<?xml version="1.0" encoding="utf-8"?>
<!-- Generator: Adobe Illustrator 19.0.0, SVG Export Plug-In . SVG Version: 6.00 Build 0)  -->
<svg version="1.1" id="圖層_1" xmlns="http://www.w3.org/2000/svg" xmlns:xlink="http://www.w3.org/1999/xlink" x="0px" y="0px"
	 width="170.5px" height="43.1px" viewBox="0 0 170.5 43.1" style="enable-background:new 0 0 170.5 43.1;" xml:space="preserve">
<style type="text/css">
	.st0{fill-rule:evenodd;clip-rule:evenodd;fill:#00469B;}
	.st1{fill-rule:evenodd;clip-rule:evenodd;fill:#C71432;}
</style>
<polygon id="XMLID_306_" class="st0" points="14.1,0.2 21.5,0.2 35.4,42.8 25,42.8 17.7,16 10.4,42.8 0,42.8 "/>
<polygon id="XMLID_305_" class="st1" points="17.7,30.3 20.8,42.8 14.5,42.8 "/>
<polygon id="XMLID_304_" class="st0" points="39.6,0.2 49.4,0.2 49.4,33.7 63.4,33.7 63.4,42.8 39.6,42.8 "/>
<polygon id="XMLID_303_" class="st0" points="98.7,0.3 108.8,0.3 108.8,17 120.6,17 120.6,0.3 130.9,0.3 130.9,42.9 120.6,42.9 
	120.6,26 108.8,26 108.8,42.9 98.7,42.9 "/>
<path id="XMLID_300_" class="st0" d="M80.7,0.1C91.4,0.8,94.8,4,94.9,12.8c0.1,11-5.3,13-14.2,13.2v-5.7c3.3-0.8,4.1-3.3,4.1-6.4
	c-0.1-3.3,0.4-7.1-4.1-8V0.1z M66.7,0h9.9c1.5,0,2.8,0,4.1,0.1v5.7c-0.7-0.2-1.6-0.3-2.6-0.3h-1.5v15h1.5c1,0,1.9-0.1,2.6-0.3V26
	c-1.3,0.1-2.6,0.1-4.1,0.1v16.7h-9.9V0z"/>
<polygon id="XMLID_299_" class="st0" points="149.2,0.2 156.5,0.2 170.5,42.8 160.1,42.8 152.7,16 145.5,42.8 135,42.8 "/>
<polygon id="XMLID_298_" class="st1" points="152.7,30.3 155.9,42.8 149.7,42.8 "/>
</svg>
