<?xml version="1.0" encoding="UTF-8"?>
<svg version="1.1" xmlns="http://www.w3.org/2000/svg" width="259" height="194">
<path d="M0 0 C85.47 0 170.94 0 259 0 C259 64.02 259 128.04 259 194 C173.53 194 88.06 194 0 194 C0 129.98 0 65.96 0 0 Z " fill="#028AD2" transform="translate(0,0)"/>
<path d="M0 0 C2.66247721 2.66247721 3.5523686 5.7276209 4.8203125 9.1953125 C5.21559647 10.25647781 5.21559647 10.25647781 5.61886597 11.33908081 C6.45940499 13.59917745 7.29227834 15.8620129 8.125 18.125 C8.69350785 19.65773858 9.26251223 21.1902931 9.83203125 22.72265625 C11.22712479 26.47965918 12.61534994 30.23913623 14 34 C14.52956299 32.6070874 14.52956299 32.6070874 15.06982422 31.18603516 C16.38017075 27.74368737 17.69755458 24.30406922 19.01708984 20.86523438 C19.58737658 19.37606218 20.15574812 17.8861551 20.72216797 16.39550781 C21.53632117 14.25389992 22.35730902 12.11502311 23.1796875 9.9765625 C23.43185028 9.30879791 23.68401306 8.64103333 23.94381714 7.95303345 C25.03309502 5.13798047 25.84060279 3.15939721 28 1 C30.22675144 10.70058207 32.34050242 20.41908566 34.25 30.1875 C34.42499023 31.05914795 34.59998047 31.9307959 34.78027344 32.82885742 C35.70585695 37.64719936 36.18588171 42.09405049 36 47 C34.68 47 33.36 47 32 47 C26.83005522 25.32069822 26.83005522 25.32069822 27 18 C26.34 18 25.68 18 25 18 C24.4740625 19.8871875 24.4740625 19.8871875 23.9375 21.8125 C21.39180779 30.35169085 18.12917535 38.66152453 15 47 C11.94553246 45.47276623 11.76402249 43.15724149 10.6171875 39.99609375 C10.17246094 38.78115234 9.72773437 37.56621094 9.26953125 36.31445312 C8.80453314 35.02219095 8.33969142 33.72987249 7.875 32.4375 C7.40300009 31.1410369 6.93035193 29.84480961 6.45703125 28.54882812 C5.29827263 25.36815395 4.14625426 22.18519743 3 19 C2.67 19 2.34 19 2 19 C1.85377197 19.77714355 1.70754395 20.55428711 1.55688477 21.35498047 C0.89517172 24.86224333 0.22889505 28.36862386 -0.4375 31.875 C-0.66759766 33.09832031 -0.89769531 34.32164063 -1.13476562 35.58203125 C-1.35712891 36.74863281 -1.57949219 37.91523437 -1.80859375 39.1171875 C-2.01282959 40.19597168 -2.21706543 41.27475586 -2.42749023 42.38623047 C-3 45 -3 45 -4 47 C-5.32 47 -6.64 47 -8 47 C-7.46154556 36.9268249 -5.41428983 27.1770021 -3.4375 17.3125 C-3.1043033 15.6283569 -2.77161703 13.94411273 -2.43945312 12.25976562 C-1.632179 8.17198868 -0.81802017 4.08563948 0 0 Z " fill="#EDF5FA" transform="translate(80,47)"/>
<path d="M0 0 C2.10093224 2.10093224 2.62188735 3.28893778 3.60400391 6.03491211 C3.90416412 6.86594955 4.20432434 7.696987 4.51358032 8.5532074 C4.83136444 9.45217239 5.14914856 10.35113739 5.4765625 11.27734375 C5.80667328 12.19963272 6.13678406 13.12192169 6.47689819 14.07215881 C7.17389347 16.0239251 7.86804262 17.97670973 8.55957031 19.93041992 C9.62041889 22.92457022 10.69233297 25.91458776 11.765625 28.90429688 C12.44077111 30.79924167 13.11527203 32.6944165 13.7890625 34.58984375 C14.11089508 35.48678452 14.43272766 36.38372528 14.76431274 37.30784607 C15.05816864 38.14203568 15.35202454 38.97622528 15.65478516 39.83569336 C15.91522614 40.5691246 16.17566711 41.30255585 16.44400024 42.05821228 C17 44 17 44 17 47 C15.35 46.67 13.7 46.34 12 46 C11.34 44.02 10.68 42.04 10 40 C3.73 40 -2.54 40 -9 40 C-9.99 42.31 -10.98 44.62 -12 47 C-13.32 47 -14.64 47 -16 47 C-14.78357381 40.9032167 -13.14551431 35.14603882 -10.99609375 29.31640625 C-10.71274673 28.53482651 -10.42939972 27.75324677 -10.13746643 26.94798279 C-9.24267754 24.48422576 -8.34008347 22.02341061 -7.4375 19.5625 C-6.82829117 17.88624385 -6.219563 16.20981293 -5.61132812 14.53320312 C-1.18910274 2.37820547 -1.18910274 2.37820547 0 0 Z " fill="#EDF4FA" transform="translate(136,47)"/>
<path d="M0 0 C2.32111987 3.4816798 3.58333558 7.07912646 4.96875 10.9921875 C5.24972534 11.77514191 5.53070068 12.55809631 5.82019043 13.36477661 C6.71729816 15.86683013 7.60884501 18.37082083 8.5 20.875 C9.39224062 23.37163659 10.28562775 25.86785809 11.17980957 28.36380005 C11.73546196 29.9159423 12.28980344 31.46855464 12.84265137 33.021698 C13.90157923 35.98848697 14.96746819 38.92238188 16.18554688 41.82861328 C17 44 17 44 17 47 C15.35 46.67 13.7 46.34 12 46 C11.01 42.535 11.01 42.535 10 39 C0.595 39.495 0.595 39.495 -9 40 C-9.99 42.31 -10.98 44.62 -12 47 C-13.32 47 -14.64 47 -16 47 C-15.32169594 41.61541799 -13.67739331 36.78602668 -11.875 31.69921875 C-11.56804199 30.82223831 -11.26108398 29.94525787 -10.94482422 29.04170227 C-10.29823834 27.19779639 -9.64926648 25.35472564 -8.99804688 23.51245117 C-7.99791299 20.68159276 -7.00621346 17.84788277 -6.015625 15.01367188 C-5.38591053 13.22118059 -4.75571903 11.42885681 -4.125 9.63671875 C-3.82706543 8.78575119 -3.52913086 7.93478363 -3.22216797 7.05802917 C-1.11573943 1.11573943 -1.11573943 1.11573943 0 0 Z " fill="#ECF4FA" transform="translate(52,47)"/>
<path d="M0 0 C2.42307909 2.42307909 3.94022266 4.28676327 5.70703125 7.1328125 C6.21169922 7.93976562 6.71636719 8.74671875 7.23632812 9.578125 C7.75646484 10.41859375 8.27660156 11.2590625 8.8125 12.125 C9.83867587 13.77416477 10.86601748 15.42260476 11.89453125 17.0703125 C12.34675049 17.80008301 12.79896973 18.52985352 13.26489258 19.28173828 C15.78312518 23.22686306 18.40381908 27.10572862 21 31 C21.33 21.1 21.66 11.2 22 1 C23.65 1 25.3 1 27 1 C27 16.51 27 32.02 27 48 C24.53339155 45.53339155 22.8986728 43.49854047 21.0390625 40.61328125 C20.48476562 39.75669922 19.93046875 38.90011719 19.359375 38.01757812 C18.78703125 37.12490234 18.2146875 36.23222656 17.625 35.3125 C17.06039062 34.43916016 16.49578125 33.56582031 15.9140625 32.66601562 C12.56225296 27.47148671 9.27708995 22.24334392 6 17 C5.67 26.9 5.34 36.8 5 47 C3.35 47 1.7 47 0 47 C0 31.49 0 15.98 0 0 Z " fill="#E4EFF8" transform="translate(158,47)"/>
<path d="M0 0 C2.76707884 2.76707884 4.59021062 4.64327465 6.5859375 7.79296875 C7.04226562 8.50646484 7.49859375 9.21996094 7.96875 9.95507812 C8.4328125 10.69177734 8.896875 11.42847656 9.375 12.1875 C13.18307154 18.17391755 17.06291807 24.0943771 21 30 C21.33 20.1 21.66 10.2 22 0 C23.65 0 25.3 0 27 0 C27 15.51 27 31.02 27 47 C24.09253696 44.09253696 22.26513995 42.11862183 20.1953125 38.76953125 C19.69386719 37.96580078 19.19242188 37.16207031 18.67578125 36.33398438 C18.16402344 35.50189453 17.65226562 34.66980469 17.125 33.8125 C16.10793696 32.17245334 15.08970996 30.53312793 14.0703125 28.89453125 C13.62445801 28.17112549 13.17860352 27.44771973 12.71923828 26.70239258 C10.21090141 22.75965176 7.5921158 18.8881737 5 15 C4.67 25.23 4.34 35.46 4 46 C2.68 46 1.36 46 0 46 C0 30.82 0 15.64 0 0 Z " fill="#EBF3FA" transform="translate(194,48)"/>
<path d="M0 0 C3.65774175 3.14735918 5.40874323 5.44084738 6.125 10.25 C5.46531295 14.86780933 3.29239849 17.86843356 -0.14453125 20.9609375 C-3.95550289 23.33678649 -7.97688142 22.95195104 -12.3125 22.3125 C-15.81246383 20.27085443 -18.11805258 18.22160064 -19.3125 14.3125 C-19.78096274 9.47171834 -19.81344246 7.27860332 -17.5625 2.9375 C-12.69660016 -2.73938314 -6.57634622 -3.35021411 0 0 Z " fill="#038AD2" transform="translate(138.3125,124.6875)"/>
<path d="M0 0 C8 0 8 0 10.5 1.6875 C12.31567651 4.48666796 12.65420677 5.72896614 12 9 C10.125 11.3125 10.125 11.3125 8 13 C7.34 13 6.68 13 6 13 C8.31 16.63 10.62 20.26 13 24 C9 23 9 23 7.515625 21.15234375 C7.09796875 20.42144531 6.6803125 19.69054687 6.25 18.9375 C5.82203125 18.20402344 5.3940625 17.47054687 4.953125 16.71484375 C4.63859375 16.14894531 4.3240625 15.58304688 4 15 C3.67 17.97 3.34 20.94 3 24 C2.01 24 1.02 24 0 24 C0 16.08 0 8.16 0 0 Z " fill="#BEDAF0" transform="translate(82,123)"/>
<path d="M0 0 C2.06232699 2.06232699 2.56808484 3.15594031 3.5078125 5.84375 C3.77207031 6.59527344 4.03632813 7.34679687 4.30859375 8.12109375 C4.57800781 8.90613281 4.84742188 9.69117187 5.125 10.5 C5.40214844 11.28503906 5.67929688 12.07007812 5.96484375 12.87890625 C8 18.72371459 8 18.72371459 8 21 C3.05 21 -1.9 21 -7 21 C-4.9376064 13.88474206 -2.59810321 6.93706745 0 0 Z " fill="#078AD2" transform="translate(136,60)"/>
<path d="M0 0 C1.58193864 2.37290796 2.53089868 4.11962201 3.5078125 6.72265625 C3.77207031 7.42583984 4.03632812 8.12902344 4.30859375 8.85351562 C4.57800781 9.58248047 4.84742188 10.31144531 5.125 11.0625 C5.40214844 11.79533203 5.67929687 12.52816406 5.96484375 13.28320312 C8 18.74203356 8 18.74203356 8 21 C3.05 21 -1.9 21 -7 21 C-6.33577702 17.67888508 -5.76292144 15.08168801 -4.58984375 12.01171875 C-4.32236328 11.30595703 -4.05488281 10.60019531 -3.77929688 9.87304688 C-3.50150391 9.15181641 -3.22371094 8.43058594 -2.9375 7.6875 C-2.51500977 6.57665039 -2.51500977 6.57665039 -2.08398438 5.44335938 C-1.39281425 3.62757345 -0.69688311 1.81360101 0 0 Z " fill="#068AD2" transform="translate(52,60)"/>
<path d="M0 0 C8 0 8 0 10.5625 1.5625 C12 4 12 4 11.9375 7.625 C11 11 11 11 8 13 C4.8125 13.125 4.8125 13.125 2 13 C2 16.63 2 20.26 2 24 C1.34 24 0.68 24 0 24 C0 16.08 0 8.16 0 0 Z " fill="#EAF3FA" transform="translate(212,123)"/>
<path d="M0 0 C2.44386172 1.43639219 3.99551687 2.94411986 6 5 C5.34 5.66 4.68 6.32 4 7 C2.9790625 6.01 2.9790625 6.01 1.9375 5 C-1.74874118 2.49021877 -3.61738151 2.37391164 -8 3 C-10.75329021 4.79562405 -12.52627461 6.05254922 -14 9 C-14.25491388 12.9086795 -14.23289019 15.70942498 -12 19 C-8.33091443 21.44605705 -5.26381231 21.83946402 -1 21 C1.69105198 18.82425584 3.45532928 17.08934144 5 14 C2.03 14 -0.94 14 -4 14 C-4 13.34 -4 12.68 -4 12 C-0.37 12 3.26 12 7 12 C6.82642417 16.42618358 6.40909257 18.51931623 3.5 21.9375 C0.18406561 24.34474083 -2.78562993 24.66368542 -6.81640625 24.42578125 C-10.97903395 23.61410608 -13.79012764 21.53983755 -16.375 18.25 C-17.66468814 13.60712268 -17.66450886 9.57383678 -15.8125 5.1875 C-11.50829479 -0.00723042 -6.52674689 -1.28244851 0 0 Z " fill="#E3EFF8" transform="translate(50,123)"/>
<path d="M0 0 C3.65774175 3.14735918 5.40874323 5.44084738 6.125 10.25 C5.46531295 14.86780933 3.29239849 17.86843356 -0.14453125 20.9609375 C-3.95550289 23.33678649 -7.97688142 22.95195104 -12.3125 22.3125 C-15.81246383 20.27085443 -18.11805258 18.22160064 -19.3125 14.3125 C-19.78096274 9.47171834 -19.81344246 7.27860332 -17.5625 2.9375 C-12.69660016 -2.73938314 -6.57634622 -3.35021411 0 0 Z M-15.3125 3.3125 C-17.76915197 6.99747796 -18.01336491 10.03221786 -17.3125 14.3125 C-15.51886089 17.1225346 -14.29369065 18.82190468 -11.3125 20.3125 C-5.49904053 20.84615513 -5.49904053 20.84615513 -0.375 18.4375 C2.78445358 15.1823054 3.02171243 12.88836762 2.98046875 8.3515625 C2.52495033 5.18115433 0.93434343 3.4932598 -1.3125 1.3125 C-6.28514378 -1.17382189 -11.09350394 0.0578459 -15.3125 3.3125 Z " fill="#EDF5FA" transform="translate(138.3125,124.6875)"/>
<path d="M0 0 C0.66 0 1.32 0 2 0 C2.33 6.93 2.66 13.86 3 21 C5.97 21 8.94 21 12 21 C13.58403524 19.41596476 13.21974935 17.7228362 13.31640625 15.52734375 C13.35830078 14.62822266 13.40019531 13.72910156 13.44335938 12.80273438 C13.48267578 11.85720703 13.52199219 10.91167969 13.5625 9.9375 C13.60568359 8.98810547 13.64886719 8.03871094 13.69335938 7.06054688 C13.79979276 4.70718647 13.90181008 2.35371646 14 0 C14.66 0 15.32 0 16 0 C16.11638036 3.24969769 16.18730581 6.4988583 16.25 9.75 C16.28351563 10.67039063 16.31703125 11.59078125 16.3515625 12.5390625 C16.45005258 19.33487804 16.45005258 19.33487804 14.234375 22.609375 C11.90397303 24.05976504 10.71714866 24.54245545 8 24.5 C7.34 24.5103125 6.68 24.520625 6 24.53125 C2.84687235 23.69370047 1.84403009 22.72524801 0 20 C-0.48952097 16.57031274 -0.37582359 13.20530925 -0.25 9.75 C-0.23195312 8.81414062 -0.21390625 7.87828125 -0.1953125 6.9140625 C-0.14825673 4.60832985 -0.08253713 2.30469055 0 0 Z " fill="#EBF4FA" transform="translate(169,123)"/>
<path d="M0 0 C0.33 0 0.66 0 1 0 C1 2.64 1 5.28 1 8 C2.65 8 4.3 8 6 8 C6.061875 8.66 6.12375 9.32 6.1875 10 C7.32136497 14.18657836 9.59631064 17.42550992 12 21 C9.29561004 20.63594751 8.25593617 20.31857318 6.515625 18.15234375 C6.09796875 17.42144531 5.6803125 16.69054687 5.25 15.9375 C4.82203125 15.20402344 4.3940625 14.47054687 3.953125 13.71484375 C3.63859375 13.14894531 3.3240625 12.58304688 3 12 C2.67 14.97 2.34 17.94 2 21 C1.34 21 0.68 21 0 21 C0 14.07 0 7.14 0 0 Z " fill="#E0EDF8" transform="translate(83,126)"/>
<path d="M0 0 C6.875 0.875 6.875 0.875 8 2 C8.1875 4.4375 8.1875 4.4375 8 7 C6 9 6 9 2.875 9.125 C1.451875 9.063125 1.451875 9.063125 0 9 C0 6.03 0 3.06 0 0 Z " fill="#108DD3" transform="translate(214,125)"/>
<path d="M0 0 C0.50537432 5.30643041 -0.69344249 7.86680312 -4 12 C-7.11020624 14.85549108 -9.05957224 15.35291162 -13.25 15.1875 C-14.14203125 15.16042969 -15.0340625 15.13335937 -15.953125 15.10546875 C-16.62859375 15.07066406 -17.3040625 15.03585938 -18 15 C-18.33 14.34 -18.66 13.68 -19 13 C-18.33613281 12.98582031 -17.67226562 12.97164062 -16.98828125 12.95703125 C-12.44480592 12.71161725 -9.71119322 12.50799516 -5.9375 9.8125 C-3.82360902 6.74394857 -3.41517814 4.65356766 -3 1 C-1 0 -1 0 0 0 Z " fill="#D3E6F5" transform="translate(144,132)"/>
<path d="M0 0 C4.875 0.875 4.875 0.875 6 2 C6.1875 4.4375 6.1875 4.4375 6 7 C5.34 7.66 4.68 8.32 4 9 C2.68 9 1.36 9 0 9 C0 6.03 0 3.06 0 0 Z " fill="#0287D1" transform="translate(85,125)"/>
<path d="M0 0 C0.25 2.25 0.25 2.25 0 5 C-2 7.3125 -2 7.3125 -4 9 C-5 6 -5 6 -4.1875 3.375 C-2.5 0 -2.5 0 0 0 Z " fill="#BCD9F0" transform="translate(94,127)"/>
<path d="M0 0 C0.99 0.495 0.99 0.495 2 1 C2 1.66 2 2.32 2 3 C4.31 3.33 6.62 3.66 9 4 C7.25 5.125 7.25 5.125 5 6 C2.8125 5.375 2.8125 5.375 1 4 C0.25 1.875 0.25 1.875 0 0 Z " fill="#E3EFF8" transform="translate(170,141)"/>
<path d="M0 0 C0.99 0.33 1.98 0.66 3 1 C1.35 2.65 -0.3 4.3 -2 6 C-2.66 5.67 -3.32 5.34 -4 5 C-2.25 1.125 -2.25 1.125 0 0 Z " fill="#D5E7F5" transform="translate(125,124)"/>
<path d="M0 0 C0.99 0.33 1.98 0.66 3 1 C1.35 2.65 -0.3 4.3 -2 6 C-2.66 5.34 -3.32 4.68 -4 4 C-2.68 2.68 -1.36 1.36 0 0 Z " fill="#DAEAF6" transform="translate(39,124)"/>
</svg>
