<?xml version="1.0" encoding="UTF-8"?>
<svg version="1.1" xmlns="http://www.w3.org/2000/svg" width="2048" height="1449">
<path d="M0 0 C675.84 0 1351.68 0 2048 0 C2048 478.17 2048 956.34 2048 1449 C1372.16 1449 696.32 1449 0 1449 C0 970.83 0 492.66 0 0 Z " fill="#FEFEFE" transform="translate(0,0)"/>
<path d="M0 0 C0.89630158 -0.00438225 1.79260317 -0.00876451 2.71606541 -0.01327956 C5.70858035 -0.02659467 8.70106588 -0.03283014 11.69360352 -0.03897095 C13.84448375 -0.04687814 15.99536268 -0.05514747 18.14624023 -0.06375122 C25.20498396 -0.08991654 32.26373343 -0.10528099 39.32250977 -0.11953735 C41.76099653 -0.12490072 44.19948327 -0.13027824 46.63796997 -0.13566971 C56.79326362 -0.15729713 66.94855573 -0.17602763 77.10386658 -0.1872921 C91.60656367 -0.20348918 106.10899109 -0.23656546 120.61158657 -0.29369295 C130.83450782 -0.33257252 141.05735751 -0.35194644 151.28035069 -0.35721266 C157.37158353 -0.36084367 163.46252839 -0.37262197 169.55368042 -0.4053154 C175.299407 -0.43571156 181.04467616 -0.44159699 186.79046631 -0.42993164 C188.8803784 -0.42971347 190.97031371 -0.43780125 193.06015015 -0.45558548 C215.08719545 -0.63257206 235.03369305 3.52886997 254.88500977 13.15390015 C255.95235352 13.67081421 257.01969727 14.18772827 258.11938477 14.7203064 C268.89473026 20.30583153 278.09205421 27.86298936 286.88500977 36.15390015 C287.62364258 36.81647827 288.36227539 37.4790564 289.12329102 38.16171265 C311.86082166 59.40494731 323.88263179 92.70706832 325.24323273 123.25050163 C325.41869579 129.76931581 325.38157014 136.28563104 325.33911133 142.80599976 C325.33797969 145.28226706 325.33862287 147.75853571 325.34088135 150.23480225 C325.34178346 155.51323601 325.33066083 160.79148927 325.30792999 166.06986809 C325.27508902 173.70101238 325.26497066 181.33206167 325.25997803 188.96326894 C325.25127495 201.35149319 325.22479667 213.73961066 325.18676758 226.1277771 C325.14991704 238.14469884 325.1216696 250.16159133 325.10473633 262.17855835 C325.10368543 262.9222516 325.10263454 263.66594485 325.1015518 264.43217426 C325.09633075 268.16395137 325.09127613 271.89572869 325.08630419 275.62750614 C325.04499788 306.46973091 324.97134558 337.31175914 324.88500977 368.15390015 C296.83500977 368.15390015 268.78500977 368.15390015 239.88500977 368.15390015 C239.88500977 332.84390015 239.88500977 297.53390015 239.88500977 261.15390015 C148.47500977 261.15390015 57.06500977 261.15390015 -37.11499023 261.15390015 C-37.11499023 296.46390015 -37.11499023 331.77390015 -37.11499023 368.15390015 C-65.16499023 368.15390015 -93.21499023 368.15390015 -122.11499023 368.15390015 C-122.18125793 336.50139072 -122.23659965 304.84894881 -122.26818622 273.19639156 C-122.27193787 269.45053818 -122.27582088 265.70468495 -122.27978516 261.95883179 C-122.28057209 261.21317138 -122.28135902 260.46751097 -122.2821698 259.69925479 C-122.29518611 247.66169544 -122.3188189 235.62417953 -122.34644862 223.58664586 C-122.37460832 211.21405105 -122.3911887 198.84147883 -122.39725572 186.46885329 C-122.40135038 178.84830108 -122.41423241 171.22787171 -122.43873964 163.60735736 C-122.45663097 157.74146323 -122.45832945 151.87563046 -122.45431328 146.0097084 C-122.45513203 143.61980882 -122.46101054 141.22990417 -122.47260666 138.84003258 C-122.65587727 99.08673277 -111.88008435 65.78445982 -83.86499023 36.59140015 C-61.8102628 15.18534117 -31.03406742 0.01866281 0 0 Z " fill="#1D2088" transform="translate(1637.114990234375,540.8460998535156)"/>
<path d="M0 0 C2.13663466 -0.00599187 4.27326716 -0.01279893 6.40989685 -0.02035522 C12.19140737 -0.03796005 17.9728586 -0.04270841 23.75439334 -0.0439868 C27.37567233 -0.04541263 30.99693646 -0.04969051 34.61821175 -0.05498123 C47.27836175 -0.07346666 59.93846976 -0.08165413 72.59863281 -0.08007812 C84.35520788 -0.07887869 96.11159877 -0.09994601 107.86812729 -0.13156545 C117.9959751 -0.15782289 128.12376313 -0.16844139 138.25164467 -0.16716731 C144.28509731 -0.16666025 150.31838633 -0.17220025 156.35180473 -0.19352341 C162.03598716 -0.21306467 167.7198526 -0.21292286 173.40404701 -0.19849014 C175.47424667 -0.19642017 177.54446701 -0.20099284 179.61463165 -0.21321106 C196.37834791 -0.30563324 212.95843157 1.30583919 228.68579102 7.54052734 C229.84630981 7.98658325 229.84630981 7.98658325 231.03027344 8.44165039 C253.66457189 17.39063523 273.16588239 31.86186887 287.87329102 51.29052734 C288.7434082 52.40234375 288.7434082 52.40234375 289.63110352 53.53662109 C309.26821092 79.88687917 314.53496907 109.69446089 314.32739258 141.80737305 C314.32626135 144.29319744 314.32690333 146.77902317 314.3291626 149.2648468 C314.33006578 154.57007849 314.31891586 159.87506383 314.29621124 165.18023109 C314.26340797 172.85013649 314.25325565 180.51994728 314.24825928 188.1899152 C314.23955046 200.64025514 314.21305617 213.09048899 314.17504883 225.54077148 C314.13821345 237.61986773 314.10995848 249.69893494 314.09301758 261.77807617 C314.09196668 262.52528186 314.09091579 263.27248756 314.08983305 264.04233585 C314.0846121 267.7916383 314.07955746 271.54094095 314.07458544 275.29024374 C314.03326115 306.2904311 313.95959882 337.29042324 313.87329102 368.29052734 C285.82329102 368.29052734 257.77329102 368.29052734 228.87329102 368.29052734 C228.87329102 332.98052734 228.87329102 297.67052734 228.87329102 261.29052734 C137.46329102 261.29052734 46.05329102 261.29052734 -48.12670898 261.29052734 C-48.12670898 296.60052734 -48.12670898 331.91052734 -48.12670898 368.29052734 C-76.17670898 368.29052734 -104.22670898 368.29052734 -133.12670898 368.29052734 C-133.17084411 336.15370878 -133.20775542 304.01691975 -133.22883964 271.88007997 C-133.2313409 268.08143022 -133.23392956 264.28278052 -133.23657227 260.48413086 C-133.2373592 259.34982168 -133.2373592 259.34982168 -133.23816203 258.19259717 C-133.24685197 245.96670143 -133.26261414 233.7408246 -133.28101458 221.51494006 C-133.29975294 208.95931068 -133.31083402 196.40369117 -133.31488597 183.84804839 C-133.31762288 176.10774209 -133.32625044 168.36748926 -133.34254192 160.62719943 C-133.35441682 154.68042594 -133.35561042 148.73367951 -133.35292435 142.78689384 C-133.35347265 140.35577695 -133.35742527 137.92465794 -133.36511993 135.49355316 C-133.41170797 120.00918216 -133.10137159 105.76202812 -128.00170898 90.97802734 C-127.69531494 90.08067871 -127.3889209 89.18333008 -127.07324219 88.25878906 C-115.33146485 54.8880466 -91.49490507 27.59292261 -59.59545898 12.02490234 C-50.69730713 7.85823985 -41.73177716 4.45354158 -32.12670898 2.29052734 C-31.46483047 2.12409414 -30.80295195 1.95766094 -30.1210165 1.78618431 C-20.19314789 -0.39952876 -10.10803783 -0.00566671 0 0 Z " fill="#1D2088" transform="translate(632.126708984375,540.70947265625)"/>
<path d="M0 0 C28.05 0 56.1 0 85 0 C85 61.71 85 123.42 85 187 C103.005625 186.9175 121.01125 186.835 139.5625 186.75 C145.22092041 186.73420898 150.87934082 186.71841797 156.70922852 186.70214844 C161.83832903 186.66887632 161.83832903 186.66887632 166.96739197 186.63043213 C169.22919822 186.61594044 171.49106183 186.60905129 173.75291443 186.60845947 C204.66348127 186.58655385 229.10115032 177.83407851 251.5 155.8125 C279.13293238 127.87498418 294.7310664 88.89585757 303 51 C303.30333252 49.6699292 303.30333252 49.6699292 303.61279297 48.31298828 C304.3054635 45.25475375 304.96816253 42.19111829 305.625 39.125 C305.93473755 37.75613647 305.93473755 37.75613647 306.25073242 36.35961914 C308.74988657 24.23755369 309.03158036 12.58945529 310 0 C336.07 0 362.14 0 389 0 C389 19.90559148 389 19.90559148 388.1875 29.6875 C388.09694336 30.79488525 388.00638672 31.90227051 387.91308594 33.04321289 C383.03797229 89.97524662 365.32591132 144.32762881 329 189 C328.36022217 189.79422363 328.36022217 189.79422363 327.70751953 190.60449219 C318.59919821 201.83172839 308.31699535 211.89375408 298 222 C299.69288795 225.65385226 301.60545833 227.62578075 304.6875 230.25 C309.22036763 234.23969947 313.12414608 238.38625806 317 243 C317.85980469 243.97195313 318.71960938 244.94390625 319.60546875 245.9453125 C351.61706143 282.22259453 381.88539714 332.08317716 388 381 C358.63 381 329.26 381 299 381 C296.69 374.4 294.38 367.8 292 361 C290.15453159 356.71199987 288.3098951 352.54798743 286.25 348.375 C285.73832275 347.32723389 285.22664551 346.27946777 284.69946289 345.19995117 C277.30853797 330.30775506 268.71719146 316.70776058 258 304 C256.85917969 302.62908203 256.85917969 302.62908203 255.6953125 301.23046875 C244.31918851 288.05278775 229.2521416 277.32309884 213 271 C212.20347015 270.6565152 211.40694031 270.3130304 210.58627319 269.95913696 C205.42611979 268.57907092 200.43979098 268.69142071 195.11962891 268.68115234 C193.92881714 268.67110672 192.73800537 268.6610611 191.5111084 268.65071106 C188.259493 268.62518166 185.0079723 268.6082885 181.7562871 268.59528303 C178.35296742 268.57961301 174.94973526 268.55283521 171.54647827 268.5272522 C165.10808826 268.48053275 158.66968165 268.44375568 152.23120916 268.41057932 C144.17881858 268.36855273 136.12652659 268.31320368 128.07421875 268.2578125 C113.71620001 268.1591035 99.35815804 268.0804972 85 268 C85 305.29 85 342.58 85 381 C56.95 381 28.9 381 0 381 C0 255.27 0 129.54 0 0 Z " fill="#1E2188" transform="translate(86,534)"/>
<path d="M0 0 C2.79035468 0.00084154 5.58070854 0.00016693 8.37106323 -0.0004425 C14.35238026 -0.00096395 20.33368628 0.00214299 26.31500053 0.00779533 C34.96271361 0.01596206 43.61042143 0.01853083 52.25813795 0.01978333 C66.29237492 0.02196576 80.32660604 0.02860382 94.36083984 0.03808594 C107.98453747 0.04728104 121.60823349 0.05435159 135.23193359 0.05859375 C136.49400194 0.05898784 136.49400194 0.05898784 137.78156661 0.05938988 C142.00299925 0.06069503 146.2244319 0.06195871 150.44586456 0.06320179 C185.40344941 0.0735492 220.36102342 0.09197386 255.31860352 0.11352539 C255.31860352 26.18352539 255.31860352 52.25352539 255.31860352 79.11352539 C242.9781665 79.13539917 242.9781665 79.13539917 230.38842773 79.15771484 C204.03077392 79.20652751 177.67317457 79.2699519 151.31557607 79.34251167 C147.21778995 79.35377912 143.12000349 79.36491768 139.0222168 79.37597656 C138.2064607 79.37818025 137.39070459 79.38038393 136.55022861 79.38265439 C123.36151591 79.41797543 110.17280326 79.44286883 96.98406087 79.46387241 C83.43962693 79.48567592 69.89525409 79.51876934 56.35087216 79.56222695 C48.00099709 79.58866548 39.65119807 79.60641819 31.30128326 79.61287143 C25.56650659 79.61814928 19.83182541 79.63444608 14.0971 79.65919105 C10.79412475 79.67312453 7.49135221 79.68076754 4.18834305 79.67853355 C-24.26826999 79.46499207 -24.26826999 79.46499207 -48.43139648 93.23852539 C-71.09836943 117.32981441 -62.16585668 148.11897819 -62.68139648 181.11352539 C42.25860352 181.11352539 147.19860352 181.11352539 255.31860352 181.11352539 C255.31860352 207.18352539 255.31860352 233.25352539 255.31860352 260.11352539 C150.04860352 260.11352539 44.77860352 260.11352539 -63.68139648 260.11352539 C-63.68139648 295.42352539 -63.68139648 330.73352539 -63.68139648 367.11352539 C-91.40139648 367.11352539 -119.12139648 367.11352539 -147.68139648 367.11352539 C-147.76974921 334.95143492 -147.84353974 302.78946323 -147.8856578 270.62728773 C-147.89066001 266.82134916 -147.89583736 263.01541084 -147.90112305 259.20947266 C-147.90217229 258.45184979 -147.90322153 257.69422692 -147.90430257 256.91364578 C-147.92165888 244.68207337 -147.95316993 232.45057696 -147.99000767 220.21904948 C-148.02755055 207.64757452 -148.04966038 195.07613907 -148.05775046 182.50461036 C-148.06321073 174.76118015 -148.08039055 167.01796483 -148.11306235 159.27460084 C-148.13691246 153.31467112 -148.13918299 147.3549222 -148.13382721 141.39493942 C-148.13491912 138.96633274 -148.14276052 136.5377172 -148.15821838 134.10915947 C-148.38588018 96.46504379 -136.65381317 65.63246075 -110.68139648 38.11352539 C-109.9969043 37.36458008 -109.31241211 36.61563477 -108.60717773 35.84399414 C-78.93795879 4.529532 -40.64749519 -0.05777703 0 0 Z " fill="#1C1F87" transform="translate(1230.681396484375,540.886474609375)"/>
<path d="M0 0 C27.72 0 55.44 0 84 0 C84 121.11 84 242.22 84 367 C56.28 367 28.56 367 0 367 C0 245.89 0 124.78 0 0 Z " fill="#1C1F87" transform="translate(973,541)"/>
<path d="M0 0 C1.88889231 -0.00707135 3.77777896 -0.01582143 5.66665649 -0.02610779 C10.76186673 -0.04847626 15.85676448 -0.04569136 20.95200491 -0.03678632 C25.22105837 -0.03165033 29.49005445 -0.03899015 33.75910199 -0.04625839 C43.83815098 -0.06321792 53.91704843 -0.0597318 63.99609375 -0.04296875 C74.36006164 -0.02605362 84.72360813 -0.04188275 95.08753002 -0.07419163 C104.01792047 -0.10096674 112.94818039 -0.10814213 121.87860692 -0.09967655 C127.19816706 -0.09477014 132.51747391 -0.09683831 137.8370018 -0.11746407 C142.84252286 -0.13594589 147.84744238 -0.12971105 152.85293198 -0.10526466 C154.67850451 -0.10029608 156.50412388 -0.10364233 158.32965851 -0.11641312 C175.22024649 -0.22512839 190.20096859 2.81110825 203.19580078 14.56079102 C225.76404047 38.10840715 216.95361328 72.15258748 216.95361328 102.53344727 C125.54361328 102.53344727 34.13361328 102.53344727 -60.04638672 102.53344727 C-60.04638672 29.07988005 -60.04638672 29.07988005 -45.73388672 13.72094727 C-32.55560848 1.50693329 -17.09733927 -0.06784774 0 0 Z " fill="#FCFCFD" transform="translate(1660.04638671875,619.466552734375)"/>
<path d="M0 0 C1.85903756 -0.00763347 3.71807199 -0.01606298 5.57710266 -0.02522278 C10.60003175 -0.04705554 15.6229 -0.05595131 20.64587116 -0.06104922 C23.7913846 -0.06470564 26.9368824 -0.07095226 30.08238983 -0.07805061 C41.07690625 -0.10250457 52.07137575 -0.11558856 63.06591797 -0.11914062 C73.28099342 -0.12277436 83.49576817 -0.15266871 93.71075177 -0.19454521 C102.50944702 -0.22933885 111.308043 -0.24469062 120.10680652 -0.24538666 C125.34929738 -0.24617627 130.59148128 -0.25476936 135.83390045 -0.28338432 C140.76877043 -0.30972157 145.70308226 -0.3116835 150.63799095 -0.29572868 C152.43777633 -0.29392668 154.237595 -0.30049049 156.03730965 -0.31654739 C172.82460143 -0.45706187 188.27427717 2.72688802 201.14355469 14.43139648 C223.08536238 37.87748886 214.45605469 71.34185871 214.45605469 101.30639648 C123.04605469 101.30639648 31.63605469 101.30639648 -62.54394531 101.30639648 C-62.54394531 28.83818839 -62.54394531 28.83818839 -48.51660156 14.18920898 C-34.40241 0.66204528 -18.41721754 0.0048145 0 0 Z " fill="#FDFEFE" transform="translate(646.5439453125,619.693603515625)"/>
<path d="M0 0 C0.66 0.33 1.32 0.66 2 1 C0.89718873 2.27200971 -0.20730769 3.54255853 -1.3125 4.8125 C-1.92738281 5.52019531 -2.54226563 6.22789062 -3.17578125 6.95703125 C-4.73334335 8.70136739 -6.32658875 10.36778041 -8 12 C-8.99 11.67 -9.98 11.34 -11 11 C-7.37 7.37 -3.74 3.74 0 0 Z " fill="#292C8E" transform="translate(542,573)"/>
<path d="M0 0 C0.66 0.33 1.32 0.66 2 1 C-0.97 4.3 -3.94 7.6 -7 11 C-7.99 10.67 -8.98 10.34 -10 10 C-6.7 6.7 -3.4 3.4 0 0 Z " fill="#2D3090" transform="translate(1558,573)"/>
</svg>
