<?xml version="1.0" encoding="UTF-8"?>
<svg version="1.1" xmlns="http://www.w3.org/2000/svg" width="350" height="250">
<path d="M0 0 C115.5 0 231 0 350 0 C350 82.5 350 165 350 250 C234.5 250 119 250 0 250 C0 167.5 0 85 0 0 Z " fill="#FAF7FC" transform="translate(0,0)"/>
<path d="M0 0 C-0.98994459 6.68212596 -4.72680181 11.72680181 -9.4375 16.4375 C-12.59980393 18.3657341 -15.40083594 19.15313787 -19 20 C-18.505 21.485 -18.505 21.485 -18 23 C-15.71202858 23.85572136 -15.71202858 23.85572136 -13 24 C-10.82455365 22.35644899 -10.82455365 22.35644899 -8.875 20.0625 C-5.31217586 16.64887285 -3.15844831 15.39214136 1.8125 15.3125 C5.85161095 15.48152485 7.94905013 16.34730932 11 19 C-3.4 29 -3.4 29 -10 29 C-10 29.66 -10 30.32 -10 31 C-9.01 31.33 -8.02 31.66 -7 32 C-3.52018141 36.7716576 -2.51758517 41.21102202 -3 47 C-4.41623216 47.05447047 -5.83308191 47.09300508 -7.25 47.125 C-8.03890625 47.14820313 -8.8278125 47.17140625 -9.640625 47.1953125 C-13.99610324 46.83475967 -17.3337386 44.24049308 -21 42 C-21.81404297 43.68029297 -21.81404297 43.68029297 -22.64453125 45.39453125 C-23.36686662 46.86734492 -24.08954062 48.33999254 -24.8125 49.8125 C-25.16892578 50.55048828 -25.52535156 51.28847656 -25.89257812 52.04882812 C-26.24384766 52.76103516 -26.59511719 53.47324219 -26.95703125 54.20703125 C-27.27647705 54.8616333 -27.59592285 55.51623535 -27.92504883 56.19067383 C-29.06901894 58.11617064 -30.35744135 59.48835511 -32 61 C-35.48218182 55.63163636 -36.07568018 50.22561806 -35 44 C-32.4375 41.0625 -32.4375 41.0625 -30 39 C-30.04497842 36.72476911 -30.04497842 36.72476911 -31 35 C-32.65 35 -34.3 35 -36 35 C-36.226875 35.804375 -36.45375 36.60875 -36.6875 37.4375 C-40.77495672 48.53202539 -40.77495672 48.53202539 -44.8828125 51.2421875 C-46.8125 52.0625 -46.8125 52.0625 -50 53 C-49.40815684 46.68700625 -45.52035293 41.25600481 -41 37 C-41.93972656 36.90912109 -41.93972656 36.90912109 -42.8984375 36.81640625 C-43.71570313 36.73261719 -44.53296875 36.64882812 -45.375 36.5625 C-46.18710938 36.48128906 -46.99921875 36.40007812 -47.8359375 36.31640625 C-50 36 -50 36 -52 35 C-52 34.34 -52 33.68 -52 33 C-50.390625 31.5625 -50.390625 31.5625 -48.25 30 C-47.55390625 29.484375 -46.8578125 28.96875 -46.140625 28.4375 C-44.14898379 27.10004751 -42.16972077 26.01644577 -40 25 C-40.165 24.505 -40.33 24.01 -40.5 23.5 C-41.20688818 19.96555911 -41.06005155 16.60309299 -41 13 C-39.54176788 12.9729957 -38.08339325 12.95360213 -36.625 12.9375 C-35.81289062 12.92589844 -35.00078125 12.91429688 -34.1640625 12.90234375 C-32 13 -32 13 -30 14 C-29.60167969 13.22914062 -29.20335937 12.45828125 -28.79296875 11.6640625 C-27.99826172 10.15972656 -27.99826172 10.15972656 -27.1875 8.625 C-26.66542969 7.62726563 -26.14335937 6.62953125 -25.60546875 5.6015625 C-24 3 -24 3 -21 1 C-17.70814152 3.57623707 -17.56008124 5.98699075 -17 10 C-16.25234375 9.44570312 -15.5046875 8.89140625 -14.734375 8.3203125 C-13.74953125 7.59585938 -12.7646875 6.87140625 -11.75 6.125 C-10.77546875 5.40570313 -9.8009375 4.68640625 -8.796875 3.9453125 C-3.12449799 0 -3.12449799 0 0 0 Z " fill="#F7EFCB" transform="translate(277,67)"/>
<path d="M0 0 C20.79 0 41.58 0 63 0 C63 6.93 63 13.86 63 21 C62.01 21 61.02 21 60 21 C59.90203125 20.33613281 59.8040625 19.67226562 59.703125 18.98828125 C58.80747582 13.69931843 58.1141297 9.76149001 54 6 C48.1846148 3.39756764 48.1846148 3.39756764 38 3 C38 24.12 38 45.24 38 67 C41.3 67.33 44.6 67.66 48 68 C48 68.33 48 68.66 48 69 C37.44 69 26.88 69 16 69 C16 68.67 16 68.34 16 68 C20.455 67.505 20.455 67.505 25 67 C25 45.88 25 24.76 25 3 C11.32752986 3.57206854 11.32752986 3.57206854 6.6875 7.5 C4.55627409 11.92032041 3.64133239 16.15650464 3 21 C2.01 21 1.02 21 0 21 C0 14.07 0 7.14 0 0 Z " fill="#013C78" transform="translate(81,94)"/>
<path d="M0 0 C10.56 0 21.12 0 32 0 C32 0.66 32 1.32 32 2 C29.36 2.33 26.72 2.66 24 3 C23.67 24.12 23.34 45.24 23 67 C25.64 67 28.28 67 31 67 C31.33 67.99 31.66 68.98 32 70 C21.11 70 10.22 70 -1 70 C-1 69.34 -1 68.68 -1 68 C3.455 67.505 3.455 67.505 8 67 C8.33 45.88 8.66 24.76 9 3 C6.03 2.67 3.06 2.34 0 2 C0 1.34 0 0.68 0 0 Z " fill="#104780" transform="translate(189,94)"/>
<path d="M0 0 C10.56 0 21.12 0 32 0 C32 0.66 32 1.32 32 2 C27.545 2.495 27.545 2.495 23 3 C22.67 12.9 22.34 22.8 22 33 C30.58 33 39.16 33 48 33 C48 33.66 48 34.32 48 35 C39.42 35 30.84 35 22 35 C22 45.56 22 56.12 22 67 C24.97 67 27.94 67 31 67 C31.33 67.99 31.66 68.98 32 70 C21.44 70 10.88 70 0 70 C0 69.34 0 68.68 0 68 C4.455 67.505 4.455 67.505 9 67 C9 45.88 9 24.76 9 3 C6.03 2.67 3.06 2.34 0 2 C0 1.34 0 0.68 0 0 Z " fill="#07407B" transform="translate(147,94)"/>
<path d="M0 0 C2.3359375 1.53125 2.3359375 1.53125 4 3 C-10.4 13 -10.4 13 -17 13 C-17 13.66 -17 14.32 -17 15 C-16.01 15.33 -15.02 15.66 -14 16 C-10.52018141 20.7716576 -9.51758517 25.21102202 -10 31 C-13.05043077 31.28777649 -15.95697619 31.41151212 -19 31 C-22.60253066 27.39746934 -23.15785242 21.89162321 -24 17 C-24.2784375 15.700625 -24.2784375 15.700625 -24.5625 14.375 C-23.56480172 10.16249614 -20.13161573 7.80567205 -17 5 C-16.53335937 4.48566406 -16.06671875 3.97132812 -15.5859375 3.44140625 C-11.24200027 -1.04224826 -5.83057943 -1.05690261 0 0 Z " fill="#DCC597" transform="translate(284,83)"/>
<path d="M0 0 C20.79 0 41.58 0 63 0 C63 6.93 63 13.86 63 21 C62.01 21 61.02 21 60 21 C59.90203125 20.33613281 59.8040625 19.67226562 59.703125 18.98828125 C58.80747582 13.69931843 58.1141297 9.76149001 54 6 C49.48091245 3.3417132 44.12551827 3.37819358 39 3 C39 2.67 39 2.34 39 2 C34.05 2 29.1 2 24 2 C24 2.33 24 2.66 24 3 C22.57107422 3.11214844 22.57107422 3.11214844 21.11328125 3.2265625 C13.24402744 3.66977487 13.24402744 3.66977487 6.75 7.5 C4.54173511 11.91652979 3.6448778 16.12972887 3 21 C2.01 21 1.02 21 0 21 C0 14.07 0 7.14 0 0 Z " fill="#24558A" transform="translate(81,94)"/>
<path d="M0 0 C0.99 0.99 1.98 1.98 3 3 C2.2265625 4.3303125 2.2265625 4.3303125 1.4375 5.6875 C-0.17001894 8.7899554 -0.17001894 8.7899554 0 11.5625 C1.57409948 15.39936749 4.29140376 18.14570188 8 20 C8.8515625 22.14453125 8.8515625 22.14453125 9.625 24.8125 C10.01558594 26.12154297 10.01558594 26.12154297 10.4140625 27.45703125 C11 30 11 30 11 34 C7.6476195 32.53191464 5.34359034 30.62540476 2.6875 28.125 C-0.0174138 25.65104764 -2.47236804 23.57990201 -5.75 21.9375 C-9.69027161 19.58849193 -12.12629643 17.21161298 -14 13 C-14.38447762 10.18542665 -14.25073342 7.85836097 -14 5 C-12.54176788 4.9729957 -11.08339325 4.95360213 -9.625 4.9375 C-8.81289062 4.92589844 -8.00078125 4.91429688 -7.1640625 4.90234375 C-5 5 -5 5 -3 6 C-2.01 4.02 -1.02 2.04 0 0 Z " fill="#E1CB93" transform="translate(250,75)"/>
<path d="M0 0 C-0.99362502 6.70696888 -4.77899525 11.66210026 -9.375 16.5 C-12.9665534 18.55231623 -15.88589466 18.7210776 -20 19 C-21.42258812 15.17679443 -22.24042276 12.08718695 -22 8 C-22.66 8 -23.32 8 -24 8 C-24.33 8.66 -24.66 9.32 -25 10 C-25.8125 8.3125 -25.8125 8.3125 -26 6 C-23.5625 3.25 -23.5625 3.25 -21 1 C-17.70814152 3.57623707 -17.56008124 5.98699075 -17 10 C-16.25234375 9.44570312 -15.5046875 8.89140625 -14.734375 8.3203125 C-13.74953125 7.59585938 -12.7646875 6.87140625 -11.75 6.125 C-10.77546875 5.40570313 -9.8009375 4.68640625 -8.796875 3.9453125 C-3.12449799 0 -3.12449799 0 0 0 Z " fill="#95772F" transform="translate(277,67)"/>
<path d="M0 0 C2.01941717 1.30373773 4.02154894 2.63489591 6 4 C4.8643305 6.76668422 3.69452936 9.50882256 2.5 12.25 C2.18546875 13.02730469 1.8709375 13.80460937 1.546875 14.60546875 C-1.14857263 20.67022592 -3.83212643 22.58986453 -10 25 C-9.40815684 18.68700625 -5.52035293 13.25600481 -1 9 C-1.62648437 8.93941406 -2.25296875 8.87882812 -2.8984375 8.81640625 C-3.71570313 8.73261719 -4.53296875 8.64882812 -5.375 8.5625 C-6.59316406 8.44068359 -6.59316406 8.44068359 -7.8359375 8.31640625 C-10 8 -10 8 -12 7 C-12 6.34 -12 5.68 -12 5 C-8.55667189 1.7253652 -4.88360375 -1.12698548 0 0 Z " fill="#AA8C48" transform="translate(237,95)"/>
<path d="M0 0 C3.875 1.875 3.875 1.875 5 3 C4.87177021 10.95024675 2.10309622 16.28698324 -2 23 C-2.99 23 -3.98 23 -5 23 C-7.37728235 17.66795781 -8.12749024 12.76912888 -7 7 C-5.03142796 4.14777966 -2.76709906 2.06826537 0 0 Z " fill="#B99B57" transform="translate(249,104)"/>
<path d="M0 0 C4.53379044 2.41425909 9.48835894 5.45165915 12.15625 9.94921875 C13.05101172 12.98219781 13 15.84467808 13 19 C9.6476195 17.53191464 7.34359034 15.62540476 4.6875 13.125 C1.93074645 10.60934866 -0.64844297 8.45588422 -3.9375 6.6875 C-7 5 -7 5 -9 2 C-5.82745499 0.11997333 -3.67365882 -0.38642233 0 0 Z " fill="#EDD56E" transform="translate(248,90)"/>
<path d="M0 0 C2.33984375 1.53125 2.33984375 1.53125 4 3 C2.58531689 3.96125903 1.1681636 4.91888325 -0.25 5.875 C-1.03890625 6.40867187 -1.8278125 6.94234375 -2.640625 7.4921875 C-8.26266036 11.08507765 -8.26266036 11.08507765 -12.25 10.625 C-13.61125 10.315625 -13.61125 10.315625 -15 10 C-15.8125 7.8125 -15.8125 7.8125 -16 5 C-12.21193784 -1.08795704 -6.55855451 -1.17291586 0 0 Z " fill="#95772E" transform="translate(284,83)"/>
<path d="M0 0 C4.29 0 8.58 0 13 0 C13 6.6 13 13.2 13 20 C12.01 20 11.02 20 10 20 C9.90203125 19.33613281 9.8040625 18.67226562 9.703125 17.98828125 C8.59257335 11.43028229 7.24372919 7.43279689 1.75 3.3125 C1.1725 2.879375 0.595 2.44625 0 2 C0 1.34 0 0.68 0 0 Z " fill="#0A427C" transform="translate(131,95)"/>
<path d="M0 0 C1.7074998 1.28062485 3.37373596 2.61767557 5 4 C5 4.66 5 5.32 5 6 C5.763125 6.28875 6.52625 6.5775 7.3125 6.875 C10 8 10 8 13 10 C13.1875 12.625 13.1875 12.625 13 15 C9.94931773 15.28780021 7.04382639 15.40548309 4 15 C-0.03378544 11.21832615 0.29528407 5.2438378 0 0 Z " fill="#CDB482" transform="translate(261,99)"/>
<path d="M0 0 C1.9375 1.125 1.9375 1.125 4 3 C4.6875 6.0625 4.6875 6.0625 5 9 C5.33 9.66 5.66 10.32 6 11 C5.34 11 4.68 11 4 11 C5.04874998 13.62187494 5.64931313 14.79371361 8.125 16.25 C8.74375 16.4975 9.3625 16.745 10 17 C6.04 17.495 6.04 17.495 2 18 C0.57741188 14.17679443 -0.24042276 11.08718695 0 7 C-0.66 7 -1.32 7 -2 7 C-2.33 7.66 -2.66 8.32 -3 9 C-3.75 7.3125 -3.75 7.3125 -4 5 C-2.0625 2.25 -2.0625 2.25 0 0 Z " fill="#A58A48" transform="translate(255,68)"/>
<path d="M0 0 C4 0 4 0 5.4375 1.3125 C6.2109375 2.1478125 6.2109375 2.1478125 7 3 C8.64605826 4.03357147 10.30963442 5.04060332 12 6 C11.67 6.99 11.34 7.98 11 9 C9.15234375 9.73046875 9.15234375 9.73046875 6.9375 10.1875 C6.20402344 10.34605469 5.47054687 10.50460938 4.71484375 10.66796875 C4.14894531 10.77753906 3.58304688 10.88710937 3 11 C0.39665076 8.28817788 0.00543309 7.10866187 -0.1875 3.25 C-0.125625 2.1775 -0.06375 1.105 0 0 Z " fill="#CBB17B" transform="translate(236,81)"/>
<path d="M0 0 C0.66 0 1.32 0 2 0 C2.12117187 0.66386719 2.24234375 1.32773438 2.3671875 2.01171875 C3.48851907 8.73718971 3.48851907 8.73718971 6 15 C8.01735205 16.34410262 8.01735205 16.34410262 10 17 C4.46508112 17 1.11118919 14.52387645 -3 11 C-2.44894091 7.0507432 -1.61064629 3.65079826 0 0 Z " fill="#F4EDDA" transform="translate(253,75)"/>
<path d="M0 0 C0.44730469 0.40992187 0.89460937 0.81984375 1.35546875 1.2421875 C4.73744485 4.25640074 7.579668 6.66050545 12 8 C12 8.99 12 9.98 12 11 C12.15373063 12.89692612 12.32166855 14.79272833 12.5 16.6875 C12.5928125 17.68136719 12.685625 18.67523438 12.78125 19.69921875 C12.8534375 20.45847656 12.925625 21.21773437 13 22 C12.34 21.67 11.68 21.34 11 21 C10.54296875 18.78515625 10.54296875 18.78515625 10.1875 16.0625 C9.75460154 13.35731249 9.75460154 13.35731249 9 11 C6.66666667 9.58333333 6.66666667 9.58333333 4 9 C0.77272762 5.68550404 0 4.73899834 0 0 Z " fill="#EEE1BF" transform="translate(249,84)"/>
<path d="M0 0 C3 1 3 1 3.875 2.75 C4.06069414 6.09249446 3.11203232 7.42596061 1 10 C-1.29353734 11.28153306 -3.51026627 12.10745395 -6 13 C-5.51675181 7.84535266 -2.81389239 4.18449681 0 0 Z " fill="#D7B978" transform="translate(233,107)"/>
<path d="M0 0 C4.74400378 -0.52036605 7.03244091 0.97694461 10.8125 3.75 C12.27623047 4.79414062 12.27623047 4.79414062 13.76953125 5.859375 C14.87361328 6.91898437 14.87361328 6.91898437 16 8 C16 9.32 16 10.64 16 12 C12.88626628 10.50079488 9.87771795 8.91847864 7 7 C7 6.34 7 5.68 7 5 C6.21625 4.731875 5.4325 4.46375 4.625 4.1875 C2 3 2 3 0 0 Z " fill="#E7CB5F" transform="translate(243,90)"/>
<path d="M0 0 C0.99 0.66 1.98 1.32 3 2 C3.29296875 4.1640625 3.29296875 4.1640625 3.1875 6.625 C3.16042969 7.44226563 3.13335937 8.25953125 3.10546875 9.1015625 C3.07066406 9.72804688 3.03585937 10.35453125 3 11 C2.67 10.34 2.34 9.68 2 9 C1.34 9 0.68 9 0 9 C0 8.34 0 7.68 0 7 C-0.66 7 -1.32 7 -2 7 C-2.33 7.66 -2.66 8.32 -3 9 C-3.75 7.3125 -3.75 7.3125 -4 5 C-2.0625 2.25 -2.0625 2.25 0 0 Z " fill="#95772D" transform="translate(255,68)"/>
<path d="M0 0 C0.66 0 1.32 0 2 0 C2.33 3.63 2.66 7.26 3 11 C0.525 10.01 0.525 10.01 -2 9 C-1.51421457 5.87709365 -1.0013988 3.00419641 0 0 Z " fill="#F6F2E8" transform="translate(253,75)"/>
<path d="M0 0 C2.475 0.495 2.475 0.495 5 1 C5 1.66 5 2.32 5 3 C6.32 3.33 7.64 3.66 9 4 C9 4.66 9 5.32 9 6 C2.84765625 6.09765625 2.84765625 6.09765625 1 6 C0 5 0 5 -0.0625 2.4375 C-0.041875 1.633125 -0.02125 0.82875 0 0 Z " fill="#BA9F65" transform="translate(263,107)"/>
<path d="M0 0 C4.45673159 0.49871064 6.57687178 2.02004362 9.8125 5.0625 C10.60269531 5.79597656 11.39289063 6.52945313 12.20703125 7.28515625 C13.09455078 8.13400391 13.09455078 8.13400391 14 9 C10.20246301 9 8.93581015 7.81129297 5.875 5.625 C4.98554688 4.99851562 4.09609375 4.37203125 3.1796875 3.7265625 C1 2 1 2 0 0 Z " fill="#F3E18C" transform="translate(239,92)"/>
<path d="M0 0 C7.66742597 5.96583144 7.66742597 5.96583144 9 11 C4.59810491 9.6549765 2.48951402 7.87257737 0 4 C0 2.68 0 1.36 0 0 Z " fill="#ECDBAA" transform="translate(249,84)"/>
<path d="M0 0 C1.65 0.33 3.3 0.66 5 1 C3.68 3.64 2.36 6.28 1 9 C0.67 8.01 0.34 7.02 0 6 C-0.66 6 -1.32 6 -2 6 C-1.34 4.02 -0.68 2.04 0 0 Z " fill="#B99A57" transform="translate(236,102)"/>
<path d="M0 0 C0.99 0.99 1.98 1.98 3 3 C2.01 4.98 1.02 6.96 0 9 C-2.86724686 8.42655063 -3.8614515 8.1385485 -6 6 C-5.01 6 -4.02 6 -3 6 C-2.01 4.02 -1.02 2.04 0 0 Z " fill="#C4AC76" transform="translate(250,75)"/>
<path d="M0 0 C0.33 1.32 0.66 2.64 1 4 C1.66 4 2.32 4 3 4 C3.33 5.65 3.66 7.3 4 9 C3.34 9 2.68 9 2 9 C2 9.66 2 10.32 2 11 C1.34 11 0.68 11 0 11 C0 7.37 0 3.74 0 0 Z " fill="#D6BA81" transform="translate(242,111)"/>
<path d="M0 0 C0.33 0.66 0.66 1.32 1 2 C3.52733235 2.65555119 3.52733235 2.65555119 6 3 C6 3.99 6 4.98 6 6 C4.125 6.625 4.125 6.625 2 7 C0 5 0 5 -0.125 2.375 C-0.08375 1.59125 -0.0425 0.8075 0 0 Z " fill="#BDA267" transform="translate(237,85)"/>
<path d="M0 0 C0.66 0.33 1.32 0.66 2 1 C1.814375 1.61875 1.62875 2.2375 1.4375 2.875 C0.76313824 5.04160178 0.76313824 5.04160178 2 7 C-0.31 6.67 -2.62 6.34 -5 6 C-5 5.34 -5 4.68 -5 4 C-3.37373596 2.61767557 -1.7074998 1.28062485 0 0 Z " fill="#C2A463" transform="translate(230,96)"/>
<path d="M0 0 C0.2475 0.598125 0.495 1.19625 0.75 1.8125 C2.16370012 4.28647521 3.65055383 5.43370255 6 7 C3.36 6.67 0.72 6.34 -2 6 C-2 2 -2 2 0 0 Z " fill="#BB9F65" transform="translate(267,88)"/>
<path d="M0 0 C2.92879371 0.62759865 5.36095629 1.58622659 8 3 C8 4.32 8 5.64 8 7 C4.2047869 5.50902342 2.38957269 3.24299151 0 0 Z " fill="#F3E28E" transform="translate(253,102)"/>
<path d="M0 0 C2.64 0.99 5.28 1.98 8 3 C6.68 3.33 5.36 3.66 4 4 C4 4.66 4 5.32 4 6 C1 5 1 5 -0.1875 2.9375 C-0.5896875 1.9784375 -0.5896875 1.9784375 -1 1 C-0.67 0.67 -0.34 0.34 0 0 Z " fill="#CFB786" transform="translate(263,92)"/>
<path d="M0 0 C3.34373475 0.55728913 6.03312999 1.35173889 9 3 C6.36 3.33 3.72 3.66 1 4 C0.67 2.68 0.34 1.36 0 0 Z " fill="#B99F63" transform="translate(256,82)"/>
<path d="M0 0 C2.88575819 0.39803561 3.82189513 0.79009069 5.75 3.0625 C6.1625 3.701875 6.575 4.34125 7 5 C4.03 4.505 4.03 4.505 1 4 C0.67 2.68 0.34 1.36 0 0 Z " fill="#A58640" transform="translate(268,89)"/>
<path d="M0 0 C4.455 2.97 4.455 2.97 9 6 C8.67 6.66 8.34 7.32 8 8 C5.03 6.35 2.06 4.7 -1 3 C-0.67 2.01 -0.34 1.02 0 0 Z " fill="#D3BB87" transform="translate(239,81)"/>
<path d="M0 0 C2.02045442 0.60183749 4.02111039 1.27306096 6 2 C6.33 2.66 6.66 3.32 7 4 C6.34 4.66 5.68 5.32 5 6 C4.34 5.01 3.68 4.02 3 3 C1.68 3 0.36 3 -1 3 C-0.67 2.01 -0.34 1.02 0 0 Z " fill="#FAF5DD" transform="translate(243,99)"/>
</svg>
