<?xml version="1.0" encoding="UTF-8"?>
<svg version="1.1" xmlns="http://www.w3.org/2000/svg" width="252" height="158">
<path d="M0 0 C83.16 0 166.32 0 252 0 C252 52.14 252 104.28 252 158 C168.84 158 85.68 158 0 158 C0 105.86 0 53.72 0 0 Z " fill="#FDFDFD" transform="translate(0,0)"/>
<path d="M0 0 C0.515625 0.70125 1.03125 1.4025 1.5625 2.125 C12.14766324 14.61006434 27.38876773 17.67122039 43 20 C44.17038818 20.17813232 45.34077637 20.35626465 46.54663086 20.53979492 C61.77255507 22.52679105 77.09177729 22.41100958 92.42028809 22.54260254 C98.4074838 22.59514725 104.39452617 22.66084041 110.3815403 22.73081779 C112.4366942 22.75309308 114.49183068 22.7697096 116.54704285 22.78553772 C151.70720528 23.15546446 151.70720528 23.15546446 160 31 C160.75 33.9375 160.75 33.9375 160 37 C153.85810354 43.44899128 145.64887071 46.42460933 137.1875 48.625 C136.47658203 48.82867187 135.76566406 49.03234375 135.03320312 49.2421875 C119.92762625 53.23959207 103.95927823 53.35130361 88.43920898 53.31567383 C85.56781229 53.31250586 82.69744316 53.33612651 79.82617188 53.36132812 C67.29275969 53.40186076 55.33143702 52.22152464 43 50 C78.69840253 60.56054657 116.1795981 59.43685176 151.75390625 48.88671875 C154.69923445 48.08215858 156.97450572 47.81663671 160 48 C158.69531323 52.98894429 156.49588625 56.25439842 153 59.9375 C152.50870605 60.46037598 152.01741211 60.98325195 151.51123047 61.52197266 C143.57132972 69.75792885 134.49175233 74.60394299 124 79 C123.11699219 79.3815625 122.23398438 79.763125 121.32421875 80.15625 C95.20703123 90.61897763 61.08717472 88.90568079 35.30712891 78.44995117 C24.04736414 73.59245711 14.76377887 67.59612397 6 59 C5.15115234 58.18789062 5.15115234 58.18789062 4.28515625 57.359375 C-5.59752387 46.97862877 -8.50482123 34.0874096 -8.28515625 20.25 C-7.94134275 12.41312554 -4.57140754 6.20405309 0 0 Z " fill="#42851F" transform="translate(46,53)"/>
<path d="M0 0 C-1.36181664 2.72363329 -2.86258987 2.96486228 -5.625 4.1875 C-12.93110175 7.74125479 -17.94810801 12.37027002 -21 20 C-21.33387329 22.80764945 -21.28701136 25.55295999 -21.1875 28.375 C-21.17396484 29.11105469 -21.16042969 29.84710938 -21.14648438 30.60546875 C-21.11144869 32.40396743 -21.05765288 34.20208422 -21 36 C-30.48666882 35.67287349 -40.65361389 32.44339224 -47.875 26.0625 C-50 23 -50 23 -50.8125 19.5 C-49.8374217 15.29966269 -48.61934784 13.90012583 -45.25390625 11.34375 C-41.08300305 8.857111 -36.60698865 7.46316378 -32 6 C-31.31550781 5.73445313 -30.63101563 5.46890625 -29.92578125 5.1953125 C-20.89716171 1.75414906 -9.68066981 -0.40658813 0 0 Z " fill="#164B1B" transform="translate(103,32)"/>
<path d="M0 0 C5.0440452 2.46699665 5.0440452 2.46699665 6.3984375 5.17578125 C2.92902204 4.71755657 -0.27551299 4.28446442 -3.6015625 3.17578125 C-8.73852878 2.69071168 -13.14745031 2.47668885 -17.8515625 4.73828125 C-19.93051775 7.15859435 -19.93051775 7.15859435 -19.7265625 10.73828125 C-18.88577614 14.18354526 -18.88577614 14.18354526 -16.6640625 16.11328125 C-11.80470084 17.79918223 -6.50134318 18.41604889 -1.65625 16.34375 C0.6137816 14.87974411 2.18099265 13.61067095 3.3984375 11.17578125 C-2.2115625 11.17578125 -7.8215625 11.17578125 -13.6015625 11.17578125 C-13.6015625 10.18578125 -13.6015625 9.19578125 -13.6015625 8.17578125 C-6.3415625 8.17578125 0.9184375 8.17578125 8.3984375 8.17578125 C7.36022639 14.40504793 7.00498422 15.40678848 2.3984375 19.17578125 C-3.34198197 21.93079862 -9.54866709 22.12765393 -15.73046875 20.67578125 C-19.86734918 19.10323059 -22.42917839 16.99917728 -24.6015625 13.17578125 C-25.2890625 9.73828125 -25.2890625 9.73828125 -24.6015625 6.17578125 C-18.13916784 -1.32731074 -9.47540371 -3.00196724 0 0 Z " fill="#1D4E21" transform="translate(156.6015625,43.82421875)"/>
<path d="M0 0 C2.3125 1.6875 2.3125 1.6875 4.3125 4.6875 C-2.4375 3.8125 -2.4375 3.8125 -4.6875 2.6875 C-9.81331965 2.18399759 -14.24585578 1.99440182 -18.9375 4.25 C-21.01645525 6.6703131 -21.01645525 6.6703131 -20.8125 10.25 C-19.97611588 13.70913872 -19.97611588 13.70913872 -17.6875 15.625 C-12.33497483 17.520686 -7.61485934 17.57705047 -2.4375 15.1875 C-1.53 14.6925 -0.6225 14.1975 0.3125 13.6875 C3.1875 13.5 3.1875 13.5 5.3125 13.6875 C1.46296963 17.75089317 -1.05852148 20.39539128 -6.7109375 21.0234375 C-17.83909487 21.1531363 -17.83909487 21.1531363 -22.6875 16.6875 C-23.30625 16.275 -23.925 15.8625 -24.5625 15.4375 C-26.52560164 12.38378634 -26.41166899 9.12059745 -25.6875 5.6875 C-19.23996005 -2.55102327 -9.57884419 -3.40941912 0 0 Z " fill="#255529" transform="translate(194.6875,44.3125)"/>
<path d="M0 0 C0.89589844 0.00322266 1.79179688 0.00644531 2.71484375 0.00976562 C4.12056641 0.02233398 4.12056641 0.02233398 5.5546875 0.03515625 C6.49957031 0.03966797 7.44445312 0.04417969 8.41796875 0.04882812 C10.75527137 0.06063268 13.09244811 0.07709866 15.4296875 0.09765625 C15.4296875 1.08765625 15.4296875 2.07765625 15.4296875 3.09765625 C14.58990356 3.12738525 14.58990356 3.12738525 13.7331543 3.15771484 C11.19402896 3.25303408 8.65571862 3.36268378 6.1171875 3.47265625 C4.79557617 3.5190625 4.79557617 3.5190625 3.44726562 3.56640625 C2.59970703 3.60507812 1.75214844 3.64375 0.87890625 3.68359375 C-0.29152222 3.7307251 -0.29152222 3.7307251 -1.4855957 3.77880859 C-3.87187018 3.99353514 -3.87187018 3.99353514 -6.5703125 6.09765625 C-6.9003125 7.08765625 -7.2303125 8.07765625 -7.5703125 9.09765625 C-0.6403125 9.09765625 6.2896875 9.09765625 13.4296875 9.09765625 C13.4296875 10.08765625 13.4296875 11.07765625 13.4296875 12.09765625 C6.4996875 12.09765625 -0.4303125 12.09765625 -7.5703125 12.09765625 C-7.5703125 15.39765625 -7.5703125 18.69765625 -7.5703125 22.09765625 C-9.2203125 22.09765625 -10.8703125 22.09765625 -12.5703125 22.09765625 C-12.73307803 19.53259201 -12.85145234 16.97790203 -12.9453125 14.41015625 C-12.99558594 13.68892578 -13.04585938 12.96769531 -13.09765625 12.22460938 C-13.24270324 6.93039414 -13.24270324 6.93039414 -11.27832031 4.49755859 C-7.4585477 1.27106981 -4.8866655 -0.03092826 0 0 Z " fill="#255429" transform="translate(114.5703125,42.90234375)"/>
<path d="M0 0 C5.0440452 2.46699665 5.0440452 2.46699665 6.3984375 5.17578125 C2.92902204 4.71755657 -0.27551299 4.28446442 -3.6015625 3.17578125 C-8.73852878 2.69071168 -13.14745031 2.47668885 -17.8515625 4.73828125 C-19.9713609 7.16704044 -19.9713609 7.16704044 -19.4765625 10.80078125 C-18.76790886 14.01678352 -18.76790886 14.01678352 -17.6015625 16.17578125 C-17.9315625 16.83578125 -18.2615625 17.49578125 -18.6015625 18.17578125 C-21.76272026 16.80594622 -22.5942717 16.18671745 -24.6015625 13.17578125 C-25.1640625 9.86328125 -25.1640625 9.86328125 -24.6015625 6.17578125 C-18.18127313 -1.35087652 -9.43945993 -2.99057965 0 0 Z " fill="#17491C" transform="translate(156.6015625,43.82421875)"/>
<path d="M0 0 C7.26 0 14.52 0 22 0 C21.67 1.65 21.34 3.3 21 5 C20.01 5 19.02 5 18 5 C18 4.34 18 3.68 18 3 C12.06 3 6.12 3 0 3 C0 2.01 0 1.02 0 0 Z " fill="#27572C" transform="translate(143,52)"/>
<path d="M0 0 C8.12192202 -0.44571523 14.0762539 -0.52706476 21 4 C21.33 4.66 21.66 5.32 22 6 C18.53058454 5.54177532 15.32604951 5.10868317 12 4 C10.10787263 3.77820215 8.21115528 3.59385985 6.3125 3.4375 C5.31863281 3.35371094 4.32476562 3.26992188 3.30078125 3.18359375 C2.16189453 3.09271484 2.16189453 3.09271484 1 3 C0.67 2.01 0.34 1.02 0 0 Z " fill="#134719" transform="translate(141,43)"/>
<path d="M0 0 C5.77494139 -0.34649648 9.99303982 -0.29726646 15 3 C15.99 4.485 15.99 4.485 17 6 C12.64165099 5.48725306 9.04106581 4.65787315 5 3 C3.0075675 2.62406934 1.0081326 2.28020455 -1 2 C-0.67 1.34 -0.34 0.68 0 0 Z " fill="#15481A" transform="translate(182,43)"/>
<path d="M0 0 C7.35028773 0.88203453 14.67349017 1.94012568 22 3 C21.67 3.99 21.34 4.98 21 6 C4.07692308 4.07692308 4.07692308 4.07692308 0 0 Z " fill="#DBE7D4" transform="translate(87,102)"/>
<path d="M0 0 C4.39158329 1.4638611 4.87947433 3.97831338 7 8 C6.01 8.66 5.02 9.32 4 10 C2 8.375 2 8.375 0 6 C-0.25 2.75 -0.25 2.75 0 0 Z " fill="#16491C" transform="translate(169,52)"/>
<path d="M0 0 C1.65 0.33 3.3 0.66 5 1 C5.33 1.99 5.66 2.98 6 4 C9.3 4 12.6 4 16 4 C16 4.33 16 4.66 16 5 C4.47835991 5.3690205 4.47835991 5.3690205 -1 3 C-0.67 2.01 -0.34 1.02 0 0 Z " fill="#26552B" transform="translate(138,60)"/>
<path d="M0 0 C0.66 0.33 1.32 0.66 2 1 C3.2077558 4.62326739 2.54311128 5.64146369 1 9 C-0.32 8.01 -1.64 7.02 -3 6 C-1.125 1.125 -1.125 1.125 0 0 Z " fill="#235228" transform="translate(172,46)"/>
<path d="M0 0 C1.32 1.32 2.64 2.64 4 4 C3.67 4.99 3.34 5.98 3 7 C1.68 6.34 0.36 5.68 -1 5 C-0.67 3.35 -0.34 1.7 0 0 Z " fill="#14481A" transform="translate(135,55)"/>
<path d="M0 0 C-0.33 0.66 -0.66 1.32 -1 2 C-4.9167686 3.23098442 -8.02389268 2.83220851 -12 2 C-12 1.67 -12 1.34 -12 1 C-7.95858806 0.36605303 -4.0934693 -0.12404452 0 0 Z " fill="#5E7E61" transform="translate(103,32)"/>
<path d="M0 0 C-1.32 1.32 -2.64 2.64 -4 4 C-5.32 3.34 -6.64 2.68 -8 2 C-4.77208445 -0.1519437 -3.71599191 -0.20086443 0 0 Z " fill="#1B4A20" transform="translate(200,58)"/>
<path d="M0 0 C1.32 0 2.64 0 4 0 C4 0.66 4 1.32 4 2 C5.98 2 7.96 2 10 2 C10 2.33 10 2.66 10 3 C7.03 3 4.06 3 1 3 C0.67 2.01 0.34 1.02 0 0 Z " fill="#39653E" transform="translate(141,43)"/>
</svg>
