<?xml version="1.0" encoding="UTF-8"?>
<svg version="1.1" xmlns="http://www.w3.org/2000/svg" width="1024" height="1141">
<path d="M0 0 C337.92 0 675.84 0 1024 0 C1024 376.53 1024 753.06 1024 1141 C686.08 1141 348.16 1141 0 1141 C0 764.47 0 387.94 0 0 Z " fill="#FEFEFE" transform="translate(0,0)"/>
<path d="M0 0 C3.60748428 1.4207192 7.16430095 2.92992105 10.7109375 4.49609375 C11.79117188 4.97240234 12.87140625 5.44871094 13.984375 5.93945312 C15.66273437 6.68098633 15.66273437 6.68098633 17.375 7.4375 C19.5910069 8.41567938 21.80714913 9.39355227 24.0234375 10.37109375 C25.00231934 10.80349365 25.98120117 11.23589355 26.98974609 11.68139648 C29.14014767 12.6233526 31.29552026 13.55399333 33.45410156 14.47705078 C36.88808906 15.9519347 40.30170391 17.4649524 43.7109375 18.99609375 C44.32337311 19.2709108 44.93580872 19.54572784 45.56680298 19.82887268 C47.50311659 20.6978641 49.43907554 21.56764205 51.375 22.4375 C53.92436841 23.58227804 56.47387455 24.72674906 59.0234375 25.87109375 C59.64084808 26.14823715 60.25825867 26.42538055 60.89437866 26.71092224 C64.81198235 28.46881456 68.73265386 30.21952496 72.65771484 31.96069336 C75.61924037 33.27476613 78.57909364 34.59258092 81.5390625 35.91015625 C83.9010379 36.96094597 86.26301714 38.01172706 88.625 39.0625 C89.81351562 39.59166016 91.00203125 40.12082031 92.2265625 40.66601562 C99.0939143 43.72579644 99.0939143 43.72579644 105.9921875 46.71484375 C109.74421418 48.31798242 113.44805458 50.01734269 117.15625 51.71875 C121.70233371 53.76698552 126.2828019 55.7212668 130.91015625 57.578125 C138.95612521 60.81001091 146.72696444 64.27716191 154.4453125 68.234375 C160.26231912 71.12370137 166.2230556 73.68096566 172.19702148 76.2265625 C173.86716776 76.94301794 175.52780871 77.68152251 177.1875 78.421875 C180.38262639 79.80554511 183.64612673 80.90921333 186.94140625 82.03125 C205.45978114 88.71378103 205.45978114 88.71378103 208.828125 95.421875 C210.26791031 99.41695127 211.0477772 103.48434883 211.64648438 107.68115234 C212.16407435 111.07622802 213.11238144 114.26190155 214.0625 117.5625 C214.37058594 118.75101562 214.67867187 119.93953125 214.99609375 121.1640625 C216.35250849 126.34693907 217.79966087 131.50321151 219.25024414 136.66040039 C220.20736388 140.07968443 221.1324348 143.49921207 221.97265625 146.94921875 C223.09003703 151.47483304 224.44890701 155.9185182 225.8125 160.375 C227.74537321 166.75090286 229.61992079 173.13539696 231.375 179.5625 C233.44488036 187.14038155 235.68136582 194.66317622 237.9375 202.1875 C240.77689985 211.67470108 243.40439278 221.19040626 245.85131836 230.78564453 C247.64004812 237.75227621 249.64482499 244.63176305 251.74829102 251.5090332 C254.13289608 259.3401603 256.28370219 267.22831703 258.41015625 275.1328125 C261.96178366 288.28176854 265.67626279 301.36732687 269.62234497 314.40325928 C274.27240382 329.79379232 278.52446275 345.24334679 282.44140625 360.8359375 C284.05592476 367.2627077 285.85113131 373.5955963 287.90209961 379.89526367 C291.23124027 390.1637681 294.12349232 400.53484278 296.96289062 410.94799805 C299.10741321 418.8015461 301.32266864 426.6288129 303.625 434.4375 C306.08327049 442.78373595 308.44690374 451.14925569 310.69580078 459.55444336 C314.36550154 473.2120525 318.3528553 486.78458248 322.2890625 500.3671875 C322.5632048 501.31328384 322.83734711 502.25938019 323.11979675 503.23414612 C324.23685349 507.0883222 325.35405927 510.94245257 326.47363281 514.79589844 C329.7763022 526.16668059 333.00495636 537.54374951 336 549 C339.42574835 561.94085627 342.88751972 574.85465301 346.7980957 587.65844727 C349.48574591 596.50003781 351.87497826 605.41952335 354.27978516 614.34130859 C355.41853771 618.54504261 356.58254243 622.74166186 357.75 626.9375 C358.04789429 628.00991943 358.04789429 628.00991943 358.35180664 629.10400391 C359.20473547 632.1687032 360.0660303 635.23069509 360.94140625 638.2890625 C361.79828634 641.29288571 362.64297947 644.29934132 363.48046875 647.30859375 C366.72520685 658.96306568 370.03552728 670.59412157 373.44848633 682.20043945 C375.33832888 688.65498675 377.13451846 695.12876053 378.875 701.625 C381.2707805 710.55092331 383.88792951 719.40441815 386.5625 728.25 C389.85077957 739.13151624 393.04807593 750.02260066 396 761 C396.27054199 762.00546875 396.54108398 763.0109375 396.81982422 764.046875 C398.04145382 768.58949769 399.26225415 773.13234298 400.48266602 777.67529297 C403.48546294 788.836989 406.67115114 799.93121816 410 811 C412.40044479 818.98173809 414.77537049 826.96709655 417 835 C417.28053223 836.010625 417.56106445 837.02125 417.85009766 838.0625 C418.82333588 841.58155347 419.78771272 845.1029373 420.75 848.625 C421.06831787 849.77693848 421.38663574 850.92887695 421.71459961 852.11572266 C422.00987549 853.2041748 422.30515137 854.29262695 422.609375 855.4140625 C422.87717773 856.3932666 423.14498047 857.3724707 423.42089844 858.38134766 C424 861 424 861 424 865 C420.31662604 864.37441965 417.12146594 863.34467284 413.68359375 861.890625 C412.67103516 861.46523438 411.65847656 861.03984375 410.61523438 860.6015625 C409.56658203 860.15554688 408.51792969 859.70953125 407.4375 859.25 C406.41591797 858.81945312 405.39433594 858.38890625 404.34179688 857.9453125 C402.271871 857.07293996 400.20278226 856.19857855 398.13452148 855.32226562 C394.97028177 853.98746367 391.79836199 852.67232061 388.625 851.359375 C384.55500173 849.66634084 380.54102172 847.90018948 376.5625 846 C371.29034965 843.54216478 365.96241305 841.39449572 360.51953125 839.34765625 C353.62285774 836.70686562 346.81914221 833.83368726 340 831 C338.38738281 830.33291016 338.38738281 830.33291016 336.7421875 829.65234375 C331.71440387 827.56748947 326.70459813 825.44534463 321.70703125 823.2890625 C313.46711836 819.7474767 305.17265574 816.34102945 296.875 812.9375 C293.95554626 811.73872629 291.03632396 810.53938986 288.1171875 809.33984375 C287.41325867 809.05064056 286.70932983 808.76143738 285.98406982 808.46347046 C279.98100432 805.99563753 273.98877682 803.50230179 268 801 C266.00008724 800.16645733 264.00008612 799.33312661 262 798.5 C258 796.83333333 254 795.16666667 250 793.5 C249.01773438 793.09128662 248.03546875 792.68257324 247.0234375 792.26147461 C244.94370197 791.39374258 242.8656668 790.52192754 240.7890625 789.64672852 C239.74492187 789.20772217 238.70078125 788.76871582 237.625 788.31640625 C236.68914062 787.92138916 235.75328125 787.52637207 234.7890625 787.11938477 C232.87143261 786.34974777 230.92516886 785.64900477 228.9609375 785.00756836 C221.69568754 782.38194249 221.69568754 782.38194249 219.75756836 778.53198242 C219.47534424 777.56623291 219.19312012 776.6004834 218.90234375 775.60546875 C218.58120605 774.53272705 218.26006836 773.45998535 217.92919922 772.35473633 C217.62256348 771.24767334 217.31592773 770.14061035 217 769 C216.70754395 767.96834717 216.41508789 766.93669434 216.11376953 765.8737793 C215.23739359 762.7138991 214.39569097 759.54652421 213.5625 756.375 C212.94966547 754.07409972 212.33638295 751.77331872 211.72265625 749.47265625 C211.42762207 748.36293457 211.13258789 747.25321289 210.82861328 746.10986328 C207.92033912 735.19483785 204.82502295 724.35816746 201.5 713.5625 C199.11750985 705.8270432 196.91474276 698.07565707 194.90307617 690.23632812 C193.32806858 684.14050041 191.59581602 678.10041491 189.8125 672.0625 C185.43903929 657.23614932 181.34379993 642.3331865 177.22607422 627.43432617 C172.73395385 611.16948909 172.73395385 611.16948909 168.125 594.9375 C166.49708575 589.27042005 164.88405372 583.59988178 163.30859375 577.91796875 C160.45064615 567.61376567 157.53030483 557.3425461 154.375 547.125 C151.52485331 537.88813717 148.99493137 528.60065133 146.58398438 519.24121094 C142.10511864 502.05225299 137.15699393 484.93825831 131.8125 468 C130.20730064 462.85929824 128.90644533 457.66514056 127.63989258 452.43383789 C126.05614669 446.00353984 124.14384388 439.6859791 122.21142578 433.35327148 C120.35030272 427.23387538 118.6754529 421.0920505 117.0625 414.90234375 C115.82342746 410.2546117 114.40365919 405.6626108 113 401.0625 C110.97973301 394.43162368 109.15570072 387.80531386 107.53466797 381.06518555 C106.0327916 374.92093751 104.19945336 368.89139282 102.3515625 362.84375 C100.17422456 355.68030818 98.20045387 348.47143346 96.25927734 341.2409668 C94.31498617 334.04402557 92.21334179 326.90313806 90.00390625 319.78320312 C88.87641928 316.11108397 87.85547682 312.47215531 87.0703125 308.7109375 C85.81474878 302.83569042 83.93749169 297.16012371 82.125 291.4375 C79.51730455 283.08787654 77.09221287 274.77801511 75.0625 266.26953125 C73.66500213 260.51621432 72.03777068 254.82448621 70.4375 249.125 C70.14415771 248.07820068 69.85081543 247.03140137 69.54858398 245.95288086 C68.02062587 240.5297724 66.44891665 235.12293536 64.81958008 229.72949219 C63.05429835 223.85047826 61.34052712 217.95618869 59.625 212.0625 C59.42513489 211.37614471 59.22526978 210.68978943 59.01934814 209.9826355 C56.49412977 201.29833253 54.05483841 192.60079321 51.80419922 183.84082031 C49.97810891 176.78652384 47.92605965 169.80388654 45.86669922 162.81469727 C43.34263273 154.22868915 40.9113609 145.61812804 38.5 137 C35.8486002 127.5244759 33.15849399 118.06278431 30.375 108.625 C27.63848069 99.34295873 25.11161913 90.01446789 22.63110352 80.66113281 C20.41517203 72.37488075 17.95987985 64.17973365 15.41625977 55.98901367 C13.7566446 50.6076092 12.24088935 45.22825422 10.9375 39.75 C9.30515339 32.93795612 7.28010389 26.30132025 5.10522461 19.64355469 C3.00135519 13.17674866 1.25468832 6.69167106 0 0 Z " fill="#00A650" transform="translate(56,13)"/>
<path d="M0 0 C1.31453266 0.41020877 2.62648553 0.82868253 3.9375 1.25 C4.66839844 1.48203125 5.39929688 1.7140625 6.15234375 1.953125 C8.53532404 2.82917262 10.81568194 3.78340861 13.13110352 4.8190918 C13.9310524 5.1766153 14.73100128 5.53413879 15.55519104 5.90249634 C19.28848137 7.57841453 23.02019635 9.25774225 26.75 10.94140625 C28.41418916 11.69189321 30.07841585 12.44229696 31.74267578 13.19262695 C33.02999603 13.77302231 33.02999603 13.77302231 34.34332275 14.36514282 C53.06183278 22.80152416 71.80579045 31.17034749 90.65625 39.30859375 C93.31256283 40.45558374 95.96881918 41.60270434 98.625 42.75 C99.27602692 43.0311264 99.92705383 43.31225281 100.59780884 43.60189819 C108.52348567 47.02680065 116.394754 50.52835611 124.1953125 54.23046875 C129.1509033 56.55956939 134.17268003 58.73972272 139.1875 60.9375 C149.72140148 65.55425503 160.24050947 70.20297725 170.75 74.875 C171.51771729 75.21621887 172.28543457 75.55743774 173.07641602 75.90899658 C184.64910156 81.05359237 196.2079642 86.22836032 207.76074219 91.41748047 C216.33364975 95.26393007 224.92900151 99.05697282 233.53417969 102.83056641 C241.68633465 106.41029018 249.81506101 110.04103132 257.9375 113.6875 C259.17618688 114.24341104 260.41487502 114.79931927 261.65356445 115.35522461 C264.01843294 116.41673807 266.38326194 117.47833949 268.74804688 118.54003906 C273.22648688 120.55063 277.70521262 122.56049904 282.1875 124.5625 C282.85064209 124.86051514 283.51378418 125.15853027 284.19702148 125.46557617 C287.70586534 127.02990019 291.2374303 128.49931426 294.8125 129.90625 C300.23740682 132.05961271 305.52057904 134.47841386 310.8125 136.9375 C320.51418636 141.41669349 330.24620462 145.82333681 340 150.1875 C340.65199371 150.47930145 341.30398743 150.77110291 341.97573853 151.07174683 C345.64987367 152.71588381 349.32464257 154.35859733 353 156 C352.52580807 164.7810386 350.79066022 173.03963058 348.6875 181.5625 C348.39166016 182.81224609 348.09582031 184.06199219 347.79101562 185.34960938 C346.04526647 192.52490235 343.90581556 199.22071587 341 206 C340.37417635 207.59399909 339.7544012 209.19038583 339.140625 210.7890625 C334.96958901 221.50363027 330.43328014 231.86468771 325 242 C324.68595215 242.58942383 324.3719043 243.17884766 324.04833984 243.78613281 C312.64635373 264.98402517 297.61872141 283.68252366 281 301 C280.14664062 301.89460938 279.29328125 302.78921875 278.4140625 303.7109375 C272.6380057 309.6327623 266.5274063 314.92403958 260 320 C259.09024414 320.70842041 259.09024414 320.70842041 258.16210938 321.43115234 C249.41546575 328.20914712 240.58689005 334.45265635 231 340 C230.39220703 340.35658691 229.78441406 340.71317383 229.15820312 341.08056641 C214.63768859 349.58280677 199.71589734 356.6845321 183.86279297 362.32958984 C182.1212936 362.95634702 180.39023296 363.61189975 178.66015625 364.26953125 C161.83544955 370.57129417 144.31477923 374.47480261 126.8125 378.375 C126.00198181 378.55616364 125.19146362 378.73732727 124.35638428 378.92398071 C122.03669286 379.4406144 119.71591228 379.95195512 117.39453125 380.4609375 C116.34125893 380.69484947 116.34125893 380.69484947 115.26670837 380.93348694 C112.44205161 381.54606495 109.90084271 382 107 382 C105.93716202 378.20842799 104.87480302 374.41672192 103.8125 370.625 C103.3342981 368.91908691 103.3342981 368.91908691 102.84643555 367.17871094 C101.41003272 362.05112466 99.97544497 356.92316857 98.5625 351.7890625 C98.34875732 351.01353027 98.13501465 350.23799805 97.91479492 349.43896484 C97.53309474 348.05172374 97.1528672 346.66407589 96.7746582 345.27587891 C95.63196872 341.12641297 94.3867621 337.01785311 93.1015625 332.91015625 C90.87676106 325.72249591 88.9614704 318.46680894 87.0625 311.1875 C84.67349356 302.10021651 82.16653977 293.09377727 79.2734375 284.15234375 C77.17108284 277.47457472 75.45909236 270.67980464 73.65820312 263.91625977 C71.1236309 254.40955219 68.4514246 244.94803101 65.72070312 235.49609375 C61.90580332 222.28351395 58.16174611 209.05086688 54.4375 195.8125 C54.14332184 194.76739258 54.14332184 194.76739258 53.84320068 193.70117188 C50.2057938 180.77620005 50.2057938 180.77620005 48.5234375 174.6171875 C46.4646744 167.08254729 44.27012027 159.62297719 41.875 152.1875 C39.88799195 146.01536782 38.20804048 139.88778304 36.83203125 133.546875 C34.14453938 122.0903369 30.61748924 110.81712693 27 99.625 C24.481674 91.80984407 22.35485108 83.92707245 20.3203125 75.97363281 C17.4049237 64.59530839 14.20775143 53.29878082 11 42 C10.73155273 41.05286133 10.46310547 40.10572266 10.18652344 39.12988281 C9.41769175 36.41944148 8.64700683 33.70953858 7.875 31 C7.51220947 29.72660767 7.51220947 29.72660767 7.14208984 28.42749023 C5.9600921 24.29610762 4.75724328 20.17247805 3.515625 16.05859375 C3.16395264 14.88780273 3.16395264 14.88780273 2.80517578 13.69335938 C2.36579786 12.23612608 1.92178429 10.78027882 1.47216797 9.32617188 C0.47439189 6.01623366 0 3.50193544 0 0 Z " fill="#ED1065" transform="translate(620,264)"/>
<path d="M0 0 C6.24434311 1.63415788 11.83922172 3.75271918 17.55859375 6.7421875 C20.51905204 8.26741561 23.54198678 9.59804571 26.6015625 10.91015625 C27.39304687 11.26980469 28.18453125 11.62945312 29 12 C29.96329224 12.3417627 29.96329224 12.3417627 30.94604492 12.69042969 C34.04428126 13.93836486 36.36893737 14.91876244 38.09277344 17.87231445 C38.91689175 20.27190604 39.51401789 22.64773901 40.0625 25.125 C40.40945923 26.49434692 40.40945923 26.49434692 40.76342773 27.89135742 C41.26483794 29.87190281 41.75336716 31.85574386 42.23046875 33.84228516 C43.574815 39.35871105 45.079942 44.83193874 46.5625 50.3125 C46.85890381 51.42399414 47.15530762 52.53548828 47.46069336 53.68066406 C49.05215918 59.62578993 50.72649444 65.52089514 52.625 71.375 C54.83699 78.2372792 56.61568715 85.16806621 58.30126953 92.17724609 C59.3538572 96.53595983 60.53908355 100.75638554 62 105 C65.53924522 116.23129726 68.95074256 127.49324061 71.9140625 138.890625 C73.33381064 144.32053893 74.85972294 149.72113506 76.375 155.125 C76.67792969 156.20579834 76.98085938 157.28659668 77.29296875 158.40014648 C79.40885293 165.93235651 81.56361097 173.45289378 83.72998047 180.97070312 C85.74241434 187.99892557 87.62411028 195.05930235 89.5 202.125 C91.51004397 209.69057451 93.62622736 217.18563886 96.0625 224.625 C98.32436094 231.53772885 100.16894282 238.49283245 101.875 245.5625 C104.52842673 256.55081882 107.76329077 267.30568623 111.16796875 278.08203125 C112.61131896 282.67848944 113.92475143 287.29380008 115.17114258 291.94702148 C116.16046923 295.59106559 117.19412294 299.2218178 118.234375 302.8515625 C118.43508102 303.55209747 118.63578705 304.25263245 118.84257507 304.97439575 C119.26171733 306.43646153 119.68103775 307.89847625 120.1005249 309.36044312 C132.27316003 351.80337093 132.27316003 351.80337093 135.0625 363.3125 C136.71917741 370.10204545 138.68656537 376.7697271 140.72338867 383.45410156 C142.35119302 388.80442 143.9028218 394.16740353 145.375 399.5625 C147.1074326 405.90763231 148.9518199 412.21281885 150.84545898 418.51171875 C154.37182181 430.24563462 157.65233346 442.01272885 160.65380859 453.89233398 C162.27967869 460.31723887 164.05963195 466.66378693 166 473 C169.42190064 484.50620659 172.7684345 496.02946304 175.875 507.625 C178.18049926 516.2222005 180.71666506 524.73634875 183.3125 533.25 C186.90904265 545.06155474 190.15197242 556.93911103 193.25979614 568.88781738 C195.79389921 578.61805251 198.53159733 588.2369664 201.65234375 597.796875 C203.15445019 602.41571575 204.50125596 607.07380219 205.8125 611.75 C206.1233252 612.84151367 206.1233252 612.84151367 206.44042969 613.95507812 C206.99625839 615.96281013 207.50531942 617.97644565 208 620 C208.31324219 621.22203125 208.62648438 622.4440625 208.94921875 623.703125 C209 627 209 627 206.97265625 629.37890625 C205.50119141 630.67634766 205.50119141 630.67634766 204 632 C201.6978971 634.89605547 199.57770704 637.92052229 197.4375 640.9375 C196.87353516 641.72318359 196.30957031 642.50886719 195.72851562 643.31835938 C192.73961931 647.49582265 189.81896152 651.70608061 187 656 C184.10740831 654.55370416 184.02170686 653.06512057 183 650 C182.69269701 648.65395068 182.39983973 647.30456557 182.1171875 645.953125 C180.99505688 640.82160717 179.587054 635.7936455 178.125 630.75 C177.72583374 629.36095459 177.72583374 629.36095459 177.31860352 627.94384766 C175.91172113 623.06977705 174.46135146 618.21400586 172.9375 613.375 C171.36670193 608.34715865 170.00464853 603.2858683 168.6875 598.1875 C166.79696948 590.8761701 164.75737447 583.61941672 162.625 576.375 C160.15206471 567.97350816 157.73071859 559.56015843 155.375 551.125 C155.08197998 550.07594482 154.78895996 549.02688965 154.48706055 547.94604492 C153.20364226 543.34245573 151.9260626 538.73734201 150.66015625 534.12890625 C148.59919536 526.6367168 146.45955048 519.18107454 144.1875 511.75 C141.15055432 501.80772538 138.49993099 491.7674181 135.89135742 481.70605469 C134.1218445 474.94426019 132.14343263 468.33229414 129.87646484 461.72167969 C128.86194966 458.57131333 128.1409296 455.42403774 127.47460938 452.18554688 C126.59902985 448.15355722 125.40362371 444.20959269 124.25 440.25 C123.71091797 438.38021396 123.17185601 436.51042214 122.6328125 434.640625 C122.35985352 433.69767578 122.08689453 432.75472656 121.80566406 431.78320312 C120.57270002 427.52387278 119.34667677 423.26258058 118.125 419 C117.88152832 418.15171631 117.63805664 417.30343262 117.38720703 416.42944336 C115.93396063 411.34308097 114.51597052 406.24829047 113.125 401.14453125 C109.53862963 387.99067308 105.79450574 374.91920033 101.72363281 361.90673828 C99.56864313 354.97539086 97.67899434 348.05289224 95.9921875 340.9921875 C93.42514789 330.4146818 90.26128878 319.94426929 87 309.5625 C84.33316385 301.01977176 82.07412303 292.36095911 79.73925781 283.72314453 C78.0570764 277.5266282 76.32458361 271.34402149 74.60009766 265.15917969 C74.00444007 263.01597557 73.41361043 260.87149748 72.82421875 258.7265625 C70.23444689 249.31790857 67.53833352 239.94365954 64.79516602 230.57861328 C61.47660459 219.23849303 58.24034873 207.8752145 55.00292969 196.51171875 C54.04051319 193.14185533 53.07218527 189.77375782 52.1015625 186.40625 C48.09467131 172.48438415 44.20531443 158.53377254 40.375 144.5625 C35.98970117 128.5479807 35.98970117 128.5479807 31.5 112.5625 C31.28134277 111.79043213 31.06268555 111.01836426 30.83740234 110.22290039 C29.79512111 106.58972353 28.67455826 103.00036871 27.45703125 99.421875 C26.15073341 95.55091518 25.12352786 91.66668694 24.1875 87.6875 C22.48347818 80.64516302 20.46693497 73.72446403 18.35888672 66.79370117 C16.45877141 60.54338473 14.61228398 54.27996458 12.8125 48 C12.5748291 47.17669189 12.3371582 46.35338379 12.09228516 45.50512695 C10.82722319 41.07652481 9.65197872 36.637325 8.5546875 32.1640625 C6.72138995 24.74535406 4.52590266 17.44246244 2.34179688 10.12109375 C2.03951172 9.09886719 1.73722656 8.07664063 1.42578125 7.0234375 C1.01453003 5.64551025 1.01453003 5.64551025 0.5949707 4.23974609 C0 2 0 2 0 0 Z " fill="#03A651" transform="translate(334,137)"/>
<path d="M0 0 C2.86607829 0.65229655 5.48561823 1.53644252 8.1953125 2.671875 C8.98929443 3.00429199 9.78327637 3.33670898 10.60131836 3.67919922 C11.85054077 4.20924561 11.85054077 4.20924561 13.125 4.75 C13.97650635 5.10980957 14.8280127 5.46961914 15.70532227 5.84033203 C21.58725759 8.34679707 27.34374486 11.01571814 33 14 C33.99942627 14.4014624 33.99942627 14.4014624 35.01904297 14.81103516 C37.51895307 16.31147418 37.79824641 17.26570446 38.60546875 20.03125 C38.86223389 20.88807373 39.11899902 21.74489746 39.38354492 22.62768555 C39.6488501 23.57554932 39.91415527 24.52341309 40.1875 25.5 C40.62316284 26.98850464 40.62316284 26.98850464 41.06762695 28.50708008 C44.17838727 39.28762809 47.00883071 50.15313314 49.8034668 61.01953125 C51.6535001 68.17853373 53.65856376 75.23119533 56.06469727 82.2277832 C57.57073452 86.69164462 58.84799979 91.21631143 60.125 95.75 C60.37636719 96.63042969 60.62773437 97.51085937 60.88671875 98.41796875 C61.98403732 102.28443681 63.05356522 106.15124278 64.01171875 110.0546875 C65.11185876 114.5315838 66.40130307 118.94861701 67.6875 123.375 C70.0900426 131.70576762 72.38383304 140.06194581 74.625 148.4375 C77.56113725 159.39590914 80.50276452 170.33408364 83.953125 181.14404297 C84.17484375 181.83900879 84.3965625 182.53397461 84.625 183.25 C84.8415625 183.92820801 85.058125 184.60641602 85.28125 185.30517578 C86.66094341 189.70187064 87.74867121 194.04009471 88.4453125 198.59375 C88.99798398 201.24297046 88.99798398 201.24297046 90.37695312 204.61010742 C92.00120583 208.89614977 93.29457666 213.23125039 94.5234375 217.64453125 C94.75149078 218.45379562 94.97954407 219.26306 95.21450806 220.09684753 C95.69509635 221.8049098 96.17402415 223.51344007 96.65136719 225.22241211 C97.36270922 227.76850779 98.07930823 230.31307441 98.796875 232.85742188 C101.39405822 242.09455555 103.91596851 251.34759832 106.31063843 260.63948059 C107.49444902 265.20452302 108.80595989 269.69770286 110.25 274.1875 C112.78097641 282.11629339 115.06029405 290.11337399 117.3125 298.125 C117.50413727 298.80643066 117.69577454 299.48786133 117.89321899 300.18994141 C120.07654161 307.9685214 122.21634225 315.7575977 124.2890625 323.56640625 C124.47162094 324.25414124 124.65417938 324.94187622 124.8422699 325.65045166 C125.71335558 328.93807156 126.57827041 332.22712565 127.43676758 335.51806641 C127.89925903 337.27836182 127.89925903 337.27836182 128.37109375 339.07421875 C128.63849365 340.10119873 128.90589355 341.12817871 129.18139648 342.1862793 C129.96483967 344.87914618 130.93340774 347.40883428 132 350 C132.46885191 351.72093042 132.9041126 353.45122717 133.3125 355.1875 C136.03272408 366.31199849 139.14907027 377.31369394 142.54492188 388.25 C145.68029037 398.3490425 148.48334571 408.47446438 150.95874023 418.75634766 C152.44314205 424.90760673 154.13153217 430.9549926 156 437 C156.48954731 438.61940948 156.97783073 440.23920157 157.46484375 441.859375 C157.70783203 442.66632813 157.95082031 443.47328125 158.20117188 444.3046875 C158.44416016 445.11164063 158.68714844 445.91859375 158.9375 446.75 C159.17662109 447.54148437 159.41574219 448.33296875 159.66210938 449.1484375 C161.84689985 456.41185701 163.92391926 463.7048898 166 471 C166.65449011 473.28658942 167.3094326 475.57304941 167.96484375 477.859375 C171.12843694 488.9066677 174.28778899 499.95428227 177.34521484 511.03149414 C178.55840526 515.42452594 179.80079642 519.80807327 181.0625 524.1875 C182.82319082 530.31071221 184.4626917 536.46023924 186.0703125 542.625 C186.67816237 544.83164826 187.34557814 547.02296139 188.078125 549.19140625 C189.30201453 552.92012055 190.04776832 556.1858218 189 560 C187.44497433 561.89684245 185.7159359 563.23256541 183.76953125 564.7265625 C179.20876802 568.47037661 175.20789377 572.78813893 171.10522461 577.02172852 C170.47495361 577.66295654 169.84468262 578.30418457 169.1953125 578.96484375 C168.62828613 579.5487085 168.06125977 580.13257324 167.47705078 580.73413086 C166 582 166 582 164 582 C163.8548999 581.42894531 163.7097998 580.85789062 163.56030273 580.26953125 C160.52221716 568.3586262 157.32487038 556.51599861 153.82910156 544.73120117 C150.72005531 534.18581346 147.8632833 523.57322953 145.02026367 512.95361328 C144.65284648 511.59016538 144.28541549 510.22672119 143.91796875 508.86328125 C143.59594482 507.65969971 143.2739209 506.45611816 142.94213867 505.21606445 C142.11203642 502.38244514 141.12199697 499.72674441 140 497 C139.42745926 494.82037707 138.89034983 492.63134903 138.375 490.4375 C135.8850249 480.13304358 132.88350234 469.9736767 129.94921875 459.7890625 C128.38789843 454.36899706 126.86594939 448.93976633 125.375 443.5 C123.6723635 437.30534686 121.86086624 431.14889827 120 425 C116.58385743 413.70070072 113.42381883 402.34214631 110.37890625 390.9375 C107.21130845 379.07977133 103.95646219 367.26007873 100.48706055 355.48681641 C98.74968445 349.5884564 97.06228084 343.68031839 95.4375 337.75 C93.76131567 331.63589205 91.97398922 325.56396073 90.125 319.5 C87.41415423 310.59431437 84.99348221 301.62242554 82.60375977 292.62597656 C80.86900408 286.12909972 79.04004543 279.67685478 77.0625 273.25 C74.51169553 264.9515088 72.26782265 256.5836177 70.0625 248.1875 C67.71108741 239.23634189 65.25966683 230.33535312 62.5 221.5 C59.80503215 212.86936738 57.41506951 204.18400477 55.125 195.4375 C52.08831865 183.85400016 48.78030911 172.39274999 45.29663086 160.93530273 C41.93053775 149.84772668 38.79252542 138.7044364 35.70507812 127.53662109 C34.80245003 124.28928525 33.87253971 121.05064981 32.9375 117.8125 C31.25313932 111.95322822 29.65663552 106.07177223 28.0625 100.1875 C26.27162262 93.58458376 24.44614824 86.99642026 22.5 80.4375 C22.19388794 79.40544434 22.19388794 79.40544434 21.8815918 78.35253906 C21.67574463 77.65870117 21.46989746 76.96486328 21.2578125 76.25 C19.94340878 71.81823132 18.6509287 67.38049786 17.375 62.9375 C17.02163574 61.70785522 17.02163574 61.70785522 16.66113281 60.45336914 C14.80450075 53.93943261 13.01733396 47.40757683 11.2421875 40.87109375 C10.7456578 39.04759317 10.2490753 37.22410697 9.75244141 35.40063477 C8.75633659 31.74260926 7.76771922 28.08265891 6.78271484 24.42163086 C6.31894986 22.71591101 5.85493081 21.01026021 5.390625 19.3046875 C5.17936981 18.51182846 4.96811462 17.71896942 4.75045776 16.90208435 C3.82246269 13.5140488 2.96506634 10.94759951 1 8 C0.46083854 5.3397977 0.26629902 2.70737337 0 0 Z " fill="#03A651" transform="translate(393,163)"/>
<path d="M0 0 C6.53406173 1.01905245 12.44885336 3.97380601 18.45703125 6.61743164 C19.90081043 7.2468088 21.34979092 7.86438793 22.80371094 8.4699707 C34.72756484 13.44004245 34.72756484 13.44004245 37.51586914 16.85839844 C38.32228536 18.92472451 38.67746186 20.80708067 39 23 C39.49822498 24.7364706 40.01392947 26.46798053 40.54296875 28.1953125 C41.09519741 30.17074687 41.64313808 32.14738337 42.1875 34.125 C42.48575684 35.19741943 42.78401367 36.26983887 43.09130859 37.37475586 C45.85786005 47.3711235 48.49825027 57.40061635 51.14575195 67.42895508 C53.24729045 75.33538125 55.5234551 83.14523656 58.046875 90.92578125 C59.08651988 94.27906206 59.84878228 97.62412307 60.5390625 101.0625 C61.18399864 103.773418 62.21697493 106.28746789 63.24389648 108.87280273 C63.97466125 110.92871278 64.45566436 112.89846205 64.88671875 115.03515625 C66.08291212 120.58753438 67.69186504 125.99651512 69.3125 131.4375 C71.40315001 138.52879522 73.47876776 145.6210571 75.4375 152.75 C77.58048474 160.53361053 79.78286185 168.29969569 82 176.0625 C82.34635498 177.27550781 82.69270996 178.48851562 83.04956055 179.73828125 C85.10419067 186.91705064 87.20444606 194.08034467 89.34326172 201.234375 C91.1083417 207.21360232 92.58102475 213.24940172 94.0078125 219.31640625 C94.94265761 223.04118389 94.94265761 223.04118389 96.41577148 226.68041992 C98.04937517 230.9835643 99.22079386 235.33665223 100.33984375 239.796875 C102.04826813 246.44132315 103.8365546 253.05333231 105.75390625 259.640625 C106.09982315 260.82912048 106.09982315 260.82912048 106.45272827 262.04162598 C107.15419013 264.44494678 107.85801014 266.8475652 108.5625 269.25 C111.50579476 279.30027478 114.39200931 289.35194941 117.05932617 299.47949219 C118.58166285 305.17689547 120.23323139 310.83610199 121.875 316.5 C124.41959166 325.32444515 126.85727897 334.16296492 129.125 343.0625 C131.0736541 350.68857708 133.25649476 358.18707955 135.68237305 365.67382812 C140.84557819 381.71264966 145.02869831 398.06376854 149.37475586 414.33813477 C151.58699248 422.5767878 153.95130637 430.7637131 156.37060547 438.94360352 C158.89643748 447.52930982 161.213474 456.16495013 163.50244141 464.81640625 C165.13414649 470.93785713 166.8966813 476.98227826 168.875 483 C170.71150963 488.68414784 171.84197912 494.02393754 172 500 C171.44054687 500.38929688 170.88109375 500.77859375 170.3046875 501.1796875 C169.50289062 501.73914063 168.70109375 502.29859375 167.875 502.875 C166.97523438 503.50277344 166.07546875 504.13054687 165.1484375 504.77734375 C162.84946086 506.40031858 160.56479239 508.03648984 158.2890625 509.69140625 C157.6614502 510.14596191 157.03383789 510.60051758 156.38720703 511.06884766 C155.13798032 511.97481983 153.89150856 512.88460404 152.64794922 513.79833984 C148.22318294 517 148.22318294 517 146 517 C142.09274385 505.12079632 138.61467961 493.17366102 135.44897461 481.07470703 C134.22676711 476.42939017 132.98655249 471.83057957 131.41796875 467.2890625 C130.16484789 463.655012 129.30458982 460.03135678 128.51416016 456.27294922 C127.6171229 452.30741416 126.38777808 448.44484277 125.1875 444.5625 C123.20627997 438.06313186 121.29112695 431.55432763 119.5 425 C117.78777955 418.73792907 115.95944914 412.52097498 114.0625 406.3125 C111.85221197 399.06459717 109.8710646 391.77994623 108 384.4375 C105.96008832 376.43286787 103.66378447 368.56786033 101.11157227 360.71289062 C99.32878504 355.1781974 97.82892117 349.62118708 96.46166992 343.97119141 C93.30744548 330.94448648 89.49192568 318.10975746 85.4987793 305.31811523 C83.72702384 299.59284746 82.17983808 293.84776957 80.75488281 288.02685547 C79.49876078 282.99017986 78.0936354 277.99650484 76.6875 273 C76.38408691 271.9176709 76.08067383 270.8353418 75.76806641 269.72021484 C73.64367188 262.1812185 71.41517155 254.67862464 69.13183594 247.18652344 C67.19883109 240.79234006 65.49045244 234.35342382 63.83032227 227.88378906 C62.15299902 221.41324164 60.19220951 215.06284209 58.11328125 208.7109375 C57.07882314 205.2627438 56.28367774 201.84589478 55.52954102 198.33056641 C54.62285691 194.3401531 53.45974623 190.42671617 52.3125 186.5 C51.77537214 184.64212052 51.23894354 182.78403877 50.703125 180.92578125 C50.42404297 179.95850098 50.14496094 178.9912207 49.85742188 177.99462891 C48.39867869 172.8998271 46.98331791 167.79298031 45.5625 162.6875 C43.30381972 154.58785391 40.99446729 146.50541006 38.625 138.4375 C32.06035915 116.07346931 25.84534769 93.60435027 19.66015625 71.1328125 C19.43489258 70.3166748 19.20962891 69.50053711 18.97753906 68.65966797 C18.54973634 67.10958981 18.12320024 65.55916123 17.69824219 64.00830078 C17.50520508 63.30946777 17.31216797 62.61063477 17.11328125 61.890625 C16.94610596 61.28250977 16.77893066 60.67439453 16.60668945 60.04785156 C16.12394951 58.41838572 15.59680904 56.80208966 15.0546875 55.19140625 C13.94434014 51.83157737 12.96647577 48.45412819 12.01171875 45.046875 C11.82804749 44.39294769 11.64437622 43.73902039 11.45513916 43.0652771 C10.86441826 40.96060403 10.27583707 38.85534057 9.6875 36.75 C9.28270809 35.30450384 8.8778413 33.85902865 8.47290039 32.41357422 C7.67706514 29.57184656 6.8821788 26.72985574 6.08789062 23.88769531 C5.16235745 20.57741329 4.23084677 17.26884978 3.296875 13.9609375 C2.84364948 12.34898659 2.39051397 10.73701037 1.9375 9.125 C1.63235474 8.04943848 1.63235474 8.04943848 1.32104492 6.95214844 C0 2.22794468 0 2.22794468 0 0 Z " fill="#04A651" transform="translate(453,190)"/>
<path d="M0 0 C17.82 0 35.64 0 54 0 C61 15 61 15 64 22 C65.8227444 26.05616776 67.69309088 30.09015134 69.5625 34.125 C69.83712067 34.71815002 70.11174133 35.31130005 70.39468384 35.92242432 C75.51952824 46.97515297 80.83534669 57.93091579 86.1875 68.875 C91.26779185 79.26707891 96.32650679 89.66136948 101.125 100.1875 C101.53258545 101.07743652 101.9401709 101.96737305 102.36010742 102.88427734 C105 108.74371045 105 108.74371045 105 111 C105.66 111 106.32 111 107 111 C107.41511841 109.67863037 107.41511841 109.67863037 107.83862305 108.33056641 C108.89830049 105.2916512 110.11495367 102.56968335 111.58203125 99.7109375 C112.35281006 98.19439575 112.35281006 98.19439575 113.13916016 96.6472168 C113.96746338 95.02746948 113.96746338 95.02746948 114.8125 93.375 C120.38095054 82.38364332 125.65674501 71.28590247 130.77270508 60.07763672 C131.28341553 58.96275879 131.79412598 57.84788086 132.3203125 56.69921875 C132.76648926 55.71783936 133.21266602 54.73645996 133.67236328 53.7253418 C135 51 135 51 136.55200195 48.42944336 C137.92555092 46.12491027 138.90395519 43.93511196 139.84765625 41.4296875 C142.13976028 35.54752789 144.77441149 29.84679402 147.4375 24.125 C148.37583937 22.10776557 149.31204045 20.08953511 150.24609375 18.0703125 C150.65529053 17.19133301 151.0644873 16.31235352 151.48608398 15.40673828 C153.75036445 10.31146823 155.85548922 5.14682586 158 0 C174.83 0 191.66 0 209 0 C209 2.97 209 5.94 209 9 C203.72 9.66 198.44 10.32 193 11 C191.32573419 18.28864963 190.71151207 25.00919752 190.74121094 32.47314453 C190.7377063 33.5736615 190.73420166 34.67417847 190.73059082 35.80804443 C190.72184642 39.41636616 190.72759606 43.02448907 190.734375 46.6328125 C190.73302645 49.15526364 190.73108433 51.67771454 190.72857666 54.20016479 C190.72563544 59.47379558 190.72969845 64.74737538 190.73925781 70.02099609 C190.75015087 76.1002258 190.74660473 82.17932141 190.735605 88.2585479 C190.72540543 94.13292024 190.72652269 100.00724198 190.73236847 105.8816185 C190.73369964 108.37023818 190.73207595 110.8588613 190.72740936 113.34747696 C190.72231494 116.82695769 190.73009506 120.30618278 190.74121094 123.78564453 C190.73513824 125.31791183 190.73513824 125.31791183 190.72894287 126.88113403 C190.76959091 133.76981573 191.8170995 139.45129851 194 146 C198.95 146 203.9 146 209 146 C209 149.3 209 152.6 209 156 C185.9 156 162.8 156 139 156 C139 147 139 147 140 146 C143.5900518 145.71406667 147.18014845 145.55089829 150.77734375 145.37890625 C154.08576974 145.32736325 154.08576974 145.32736325 156 143 C156.94442596 140.16964082 157.12387617 137.57845699 157.12025452 134.60870361 C157.12162918 133.73654709 157.12300385 132.86439056 157.12442017 131.96580505 C157.12082489 131.01706009 157.11722961 130.06831512 157.11352539 129.09082031 C157.11374443 127.5830175 157.11374443 127.5830175 157.1139679 126.04475403 C157.11327128 122.72252239 157.10549058 119.40034684 157.09765625 116.078125 C157.09579118 113.77455679 157.0943677 111.47098818 157.09336853 109.16741943 C157.08955037 103.10442001 157.07972604 97.04144455 157.06866455 90.97845459 C157.05843538 84.79162927 157.05386768 78.60480009 157.04882812 72.41796875 C157.03810317 60.27863531 157.02103513 48.13931965 157 36 C156.53367346 36.97643558 156.53367346 36.97643558 156.05792618 37.97259712 C154.62785938 40.96644834 153.19723402 43.96003233 151.76660156 46.95361328 C151.2776944 47.9773555 150.78878723 49.00109772 150.2850647 50.05586243 C147.46090732 55.96425428 144.6181587 61.86266491 141.734375 67.7421875 C141.38842254 68.44801153 141.04247007 69.15383556 140.6860342 69.8810482 C140.22330152 70.82503188 140.22330152 70.82503188 139.7512207 71.78808594 C131.47634202 88.67467551 123.56149526 105.70159207 115.86132812 122.85693359 C113.89946579 127.22704584 111.92700597 131.59233692 109.953125 135.95703125 C106.6314829 143.30291671 103.31416163 150.65073648 100 158 C97.03 158 94.06 158 91 158 C90.72969971 157.25588867 90.45939941 156.51177734 90.1809082 155.74511719 C86.66976591 146.32936201 82.51261603 137.31292232 78.1875 128.25 C77.50672225 126.81531249 76.82638232 125.38041715 76.14648438 123.9453125 C74.78368424 121.07003465 73.41874081 118.19578931 72.05224609 115.32226562 C70.00089958 111.00561874 67.96091421 106.68368679 65.92578125 102.359375 C65.59226654 101.65096466 65.25875183 100.94255432 64.91513062 100.212677 C63.36959553 96.92620957 61.82948113 93.63745489 60.3046875 90.34130859 C54.8177066 78.49749895 49.06110718 66.78825161 43.3112793 55.0703125 C41.98075839 52.35750314 40.65239677 49.6436445 39.32421875 46.9296875 C38.91902512 46.10572479 38.51383148 45.28176208 38.09635925 44.43283081 C37.71868912 43.66077301 37.34101898 42.88871521 36.9519043 42.09326172 C36.6221611 41.42124725 36.29241791 40.74923279 35.9526825 40.05685425 C34.87818778 37.73700579 33.93134054 35.38049354 33 33 C32.97678399 45.8656698 32.95903779 58.73133458 32.94818783 71.5970211 C32.94297923 77.57168698 32.93591843 83.54633849 32.92456055 89.52099609 C32.91365964 95.29167445 32.90770793 101.06233902 32.90512276 106.83302689 C32.90328147 109.02972251 32.89968595 111.22641742 32.89426994 113.42310715 C32.88696383 116.51044063 32.88601308 119.5977178 32.88647461 122.68505859 C32.8810817 124.03374023 32.8810817 124.03374023 32.87557983 125.40966797 C32.22769138 135.98441902 32.22769138 135.98441902 36 145 C38.3454654 145.27576987 40.70357311 145.44971306 43.0625 145.5625 C49.90277778 145.90277778 49.90277778 145.90277778 51 147 C51 149.97 51 152.94 51 156 C34.17 156 17.34 156 0 156 C0 147 0 147 1 146 C4.59089702 145.75485659 8.18086214 145.61559231 11.77734375 145.4765625 C12.84082031 145.31929687 13.90429688 145.16203125 15 145 C17.83802904 140.74295643 18.12386802 136.99744233 18.13371277 131.96609497 C18.13797775 130.97646759 18.14224274 129.98684021 18.14663696 128.96722412 C18.14618378 127.89281067 18.14573059 126.81839722 18.14526367 125.71142578 C18.14862228 124.57101837 18.1519809 123.43061096 18.15544128 122.25564575 C18.16494068 118.48552359 18.16689386 114.71544589 18.16796875 110.9453125 C18.17118191 108.32363873 18.17454603 105.70196514 18.17805481 103.08029175 C18.18444473 97.58428661 18.18593781 92.08829351 18.18530273 86.59228516 C18.18470216 80.25014887 18.19525245 73.90809769 18.2110464 67.56598294 C18.22572447 61.45295559 18.22929008 55.33996894 18.22869301 49.2269249 C18.22987279 46.63141406 18.23429447 44.03590258 18.24202538 41.44040298 C18.25182855 37.809318 18.24894579 34.17845183 18.24291992 30.54736328 C18.24853943 29.47699829 18.25415894 28.4066333 18.25994873 27.30383301 C18.53737485 18.58648161 18.53737485 18.58648161 15 11 C12.47804033 10.60056824 9.97036344 10.24920152 7.4375 9.9375 C6.72658203 9.84662109 6.01566406 9.75574219 5.28320312 9.66210938 C3.52261597 9.43760497 1.76136522 9.21831603 0 9 C0 6.03 0 3.06 0 0 Z " fill="#050505" transform="translate(102,939)"/>
<path d="M0 0 C7.80284442 2.46670566 15.33852585 5.44023189 22.875 8.625 C24.09703125 9.10839844 25.3190625 9.59179688 26.578125 10.08984375 C35.22127893 13.78178698 35.22127893 13.78178698 37.43920898 17.25146484 C38.20394316 19.52300339 38.64808885 21.63371004 39 24 C39.41788578 25.4640744 39.85346546 26.92330112 40.3125 28.375 C40.55742188 29.20644531 40.80234375 30.03789062 41.0546875 30.89453125 C41.80535143 33.36055533 42.58365945 35.81130367 43.3828125 38.26171875 C46.17034883 46.84757968 48.74078786 55.38132114 50.61889648 64.21704102 C51.51314511 68.33099654 52.7558087 72.10672537 54.27636719 76.01269531 C55.19169227 78.52644234 55.83051222 81.09041133 56.44580078 83.69189453 C57.67226464 88.79981933 59.07741048 93.8638752 60.4375 98.9375 C60.73720703 100.06607422 61.03691406 101.19464844 61.34570312 102.35742188 C62.85416161 107.98223777 64.45508969 113.53121567 66.34545898 119.03930664 C67.30354983 121.9092908 68.05945425 124.82034255 68.8125 127.75 C70.34385149 133.60508008 71.95573752 139.43276909 73.625 145.25 C73.86895508 146.10094238 74.11291016 146.95188477 74.36425781 147.82861328 C75.42990974 151.54139691 76.49749509 155.25362327 77.56561279 158.96569824 C79.0671815 164.18471924 80.56604069 169.40451168 82.0625 174.625 C82.28202332 175.39034058 82.50154663 176.15568115 82.72772217 176.94421387 C85.36845995 186.15958584 87.93387268 195.38343593 90.30444336 204.67260742 C91.93910077 210.98438368 93.91230155 217.17323881 95.91113281 223.37768555 C97.52905761 228.42504433 98.94156886 233.4716346 100.171875 238.62890625 C103.48967699 252.13486436 107.40758566 265.49479608 111.32543945 278.83618164 C113.40859367 285.940768 115.44332057 293.05743191 117.4375 300.1875 C117.86554932 301.7178186 117.86554932 301.7178186 118.30224609 303.27905273 C119.88815151 308.96651375 121.4550727 314.65886391 123.0078125 320.35546875 C126.16188388 331.90764887 129.35578215 343.41079459 133.06054688 354.79956055 C134.76294414 360.08418365 136.0643916 365.38410854 137.23828125 370.8125 C138.23955072 375.00242763 139.56500867 379.06484016 140.88745117 383.1628418 C143.26889543 390.65397838 145.24794781 398.24786893 147.26147461 405.84448242 C149.58765305 414.57855258 152.07746975 423.25578647 154.69091797 431.90820312 C156.47451339 437.89065755 157.8897209 443.85640011 159 450 C155.27209617 451.79430286 151.54246051 453.58497696 147.8125 455.375 C146.75740234 455.88289063 145.70230469 456.39078125 144.61523438 456.9140625 C143.59365234 457.40390625 142.57207031 457.89375 141.51953125 458.3984375 C140.58214111 458.84880371 139.64475098 459.29916992 138.67895508 459.76318359 C136.14792635 460.93170556 133.59797853 461.99047622 131 463 C126.49925454 448.21940399 122.2771698 433.37540592 118.17456055 418.47998047 C115.50296983 408.79107991 112.78263572 399.13696949 109.73402405 389.55937195 C107.74497413 383.27880653 106.04043486 376.93510142 104.375 370.5625 C102.64355571 363.95259444 100.90404002 357.39492228 98.62915039 350.94824219 C97.96058483 348.87794605 97.49327492 346.81902306 97.0625 344.6875 C96.32673992 341.16071613 95.30694244 337.8407584 94.125 334.4375 C92.23005005 328.92876073 90.79919736 323.38394276 89.43457031 317.72802734 C88.39097717 313.4430959 87.16903905 309.29851168 85.69433594 305.14575195 C85.0258945 303.08002348 84.54809854 301.05945002 84.11328125 298.93359375 C82.9424666 293.54113399 81.38864535 288.28577855 79.8125 283 C77.31665765 274.53655141 74.87093483 266.06181216 72.5 257.5625 C72.21237793 256.53229736 71.92475586 255.50209473 71.62841797 254.44067383 C70.45268282 250.22450464 69.27971149 246.00757444 68.10888672 241.79003906 C64.94119006 230.38217899 61.72763739 218.99953442 58.27148438 207.67553711 C55.84029665 199.62827349 53.69979898 191.50707372 51.54394531 183.38256836 C49.56596889 175.97397719 47.38753123 168.66644027 45.04296875 161.3671875 C44.10581034 158.34160491 43.30029375 155.32911611 42.5625 152.25 C41.33645287 147.14147029 39.85302494 142.14477838 38.3125 137.125 C35.49604083 127.91268291 33.00473141 118.62708723 30.55227661 109.31204224 C27.9711919 99.51964269 25.23936436 89.78470606 22.36572266 80.07446289 C20.8060825 74.7966154 19.31767294 69.51508113 17.9375 64.1875 C16.47559712 58.57831042 14.7787835 53.07667397 13 47.5625 C10.73121488 40.51754675 8.80636191 33.48370238 7.078125 26.28515625 C5.54965508 20.05289509 3.72067251 13.90149788 1.9296875 7.74072266 C1.67960938 6.87882324 1.42953125 6.01692383 1.171875 5.12890625 C0.9459668 4.35619385 0.72005859 3.58348145 0.48730469 2.78735352 C0 1 0 1 0 0 Z " fill="#03A651" transform="translate(512,216)"/>
<path d="M0 0 C23.1 0 46.2 0 70 0 C70 2.97 70 5.94 70 9 C67.65269214 11.34730786 61.50195295 10.26279357 58.3203125 10.328125 C54.89665189 10.6448264 54.89665189 10.6448264 53.31376648 13.17375183 C51.83660159 16.35151182 51.63661904 18.40271351 51.65942383 21.8918457 C51.65965042 23.05267166 51.65987701 24.21349762 51.66011047 25.40950012 C51.67559433 26.65237289 51.69107819 27.89524567 51.70703125 29.17578125 C51.71339851 31.09622505 51.71339851 31.09622505 51.71989441 33.0554657 C51.73130863 36.44713133 51.76074545 39.83840707 51.79400635 43.22991943 C51.82478165 46.69554369 51.83841561 50.16123139 51.85351562 53.62695312 C51.88657808 60.41813729 51.93677331 67.2090333 52 74 C58.38102275 68.34368845 64.58476038 62.56512396 70.60546875 56.52734375 C71.37377518 55.75999405 72.1420816 54.99264435 72.93367004 54.20204163 C74.54058491 52.59580096 76.14626309 50.98832218 77.75073242 49.37963867 C80.18881632 46.93618078 82.63221789 44.49813193 85.07617188 42.06054688 C86.64875833 40.48729979 88.22103464 38.91374263 89.79296875 37.33984375 C90.51292526 36.62191147 91.23288177 35.90397919 91.97465515 35.16429138 C95.97145617 31.14917694 99.79557185 27.04116833 103.48033142 22.73718262 C104.88056602 21.13652887 106.32634611 19.62581846 107.8359375 18.12890625 C113.69817384 12.42893836 113.69817384 12.42893836 116.0625 4.875 C116.041875 3.59625 116.02125 2.3175 116 1 C117 0 117 0 120.87719727 -0.11352539 C122.60694167 -0.11336621 124.33669081 -0.10766849 126.06640625 -0.09765625 C126.97502914 -0.0962413 127.88365204 -0.09482635 128.81980896 -0.09336853 C131.73407221 -0.08775193 134.64825981 -0.07519665 137.5625 -0.0625 C139.53320202 -0.05748714 141.50390524 -0.05292386 143.47460938 -0.04882812 C148.31643559 -0.03777711 153.15820495 -0.02050138 158 0 C158.09765625 6.15234375 158.09765625 6.15234375 158 8 C156.35040663 9.64959337 154.27004429 9.20215062 152 9.3125 C136.5549569 10.68583502 126.35287027 22.49961914 115.54150391 32.56738281 C113.49927607 34.46535446 111.44478512 36.34980369 109.39086914 38.23510742 C107.79009865 39.7081134 106.19539175 41.18745731 104.6015625 42.66796875 C101.88486258 45.19039754 99.14424922 47.68509131 96.3984375 50.17578125 C94.82777745 51.61680878 93.25746176 53.05821173 91.6875 54.5 C90.92735596 55.18280029 90.16721191 55.86560059 89.3840332 56.5690918 C88.68366943 57.216604 87.98330566 57.86411621 87.26171875 58.53125 C86.63225342 59.10423828 86.00278809 59.67722656 85.35424805 60.26757812 C83.58942127 62.15874527 83.58942127 62.15874527 84 66 C85.01208059 67.81505974 85.01208059 67.81505974 86.4921875 69.50390625 C87.0274707 70.15657471 87.56275391 70.80924316 88.11425781 71.48168945 C88.69530273 72.16835693 89.27634766 72.85502441 89.875 73.5625 C90.46635742 74.27559326 91.05771484 74.98868652 91.66699219 75.72338867 C95.86609319 80.7524523 100.21507504 85.61649052 104.66796875 90.421875 C107.85056668 93.94032497 110.80625021 97.62549454 113.78515625 101.31640625 C116.66189993 104.80198458 119.70007278 108.12355801 122.74609375 111.4609375 C125.10559513 114.11895465 127.33724115 116.85392294 129.5625 119.625 C132.86372847 123.70704077 136.32087566 127.44076331 140.08984375 131.08984375 C142.06455152 133.06455152 143.87591656 135.12539998 145.6875 137.25 C149.74418872 141.8901226 152.4828991 145.00940707 158.8125 145.75 C160.194375 145.8325 161.57625 145.915 163 146 C163 149.3 163 152.6 163 156 C156.57741268 156.2726768 150.15821369 156.47184649 143.73120117 156.60424805 C141.54733591 156.65944767 139.36387508 156.73443134 137.18139648 156.82983398 C119.00040548 157.60446267 119.00040548 157.60446267 114.21484375 153.76611328 C112.4582969 150.91515541 111.24680506 148.10144393 110 145 C108.39871565 142.85282717 108.39871565 142.85282717 106.5703125 141.03125 C105.72605713 140.15412354 105.72605713 140.15412354 104.86474609 139.25927734 C104.29062988 138.67871582 103.71651367 138.0981543 103.125 137.5 C98.24784844 132.42750535 93.67601082 127.25555646 89.28125 121.75390625 C85.62229087 117.33684087 81.68757975 113.18233498 77.7734375 108.9921875 C75.62367954 106.68733679 73.54242036 104.3385893 71.5 101.9375 C68.41625693 98.37406357 65.1350085 95.02648127 61.8125 91.6875 C61.30074219 91.1711499 60.78898437 90.6547998 60.26171875 90.12280273 C57.63995557 87.51176339 54.98370075 85.18065741 52 83 C51.94929074 90.88367974 51.91426245 98.76731742 51.89013672 106.65112305 C51.88120885 109.33313646 51.86729282 112.01505515 51.84912109 114.69702148 C51.82486281 118.5519481 51.81351441 122.40672973 51.8046875 126.26171875 C51.79436493 127.46084396 51.78404236 128.65996918 51.77340698 129.89543152 C51.77325592 131.01621597 51.77310486 132.13700043 51.77294922 133.29174805 C51.76628738 134.76734444 51.76628738 134.76734444 51.75949097 136.27275085 C52.04067745 139.46126148 52.66066397 142.66066397 55 145 C57.32986123 145.20968751 59.66444036 145.36815389 62 145.5 C68.88888889 145.88888889 68.88888889 145.88888889 70 147 C70 149.97 70 152.94 70 156 C46.9 156 23.8 156 0 156 C0 147 0 147 1 146 C4.2985752 145.79554286 7.59530267 145.6804171 10.8984375 145.57421875 C14.01780994 145.27625321 14.01780994 145.27625321 15.8515625 143.33203125 C18.7985203 137.34790265 18.14809389 130.38552636 18.14526367 123.87329102 C18.14862228 122.76199829 18.1519809 121.65070557 18.15544128 120.5057373 C18.164927 116.83844887 18.16689309 113.17120619 18.16796875 109.50390625 C18.17118256 106.95092246 18.17454673 104.39793885 18.17805481 101.84495544 C18.18403982 96.49615986 18.1859382 91.14738128 18.18530273 85.79858398 C18.18470189 79.62740508 18.19525886 73.45631358 18.2110464 67.28515679 C18.22572543 61.33391554 18.22929008 55.38270086 18.22869301 49.43144035 C18.2298725 46.90570659 18.23429253 44.37997216 18.24202538 41.85424995 C18.25183029 38.32146075 18.24894525 34.78889639 18.24291992 31.25610352 C18.24853943 30.21536179 18.25415894 29.17462006 18.25994873 28.1023407 C18.39055553 18.79528935 18.39055553 18.79528935 14 11 C11.63490639 10.69940057 9.25558119 10.50484988 6.875 10.375 C5.59367187 10.30023437 4.31234375 10.22546875 2.9921875 10.1484375 C1.51105469 10.07496094 1.51105469 10.07496094 0 10 C0 6.7 0 3.4 0 0 Z " fill="#050505" transform="translate(327,939)"/>
<path d="M0 0 C6.29381723 -0.44939376 12.57810611 -0.77336213 18.88427734 -0.98876953 C21.02134878 -1.07860574 23.15733483 -1.20095615 25.29052734 -1.35791016 C42.48770966 -2.59030776 42.48770966 -2.59030776 48.31594849 1.70800781 C52.47543648 5.91445572 55.61066206 10.67265549 58.61331177 15.74560547 C60.69927431 19.13683823 63.1700462 22.17388421 65.6875 25.25 C66.58014891 26.37861051 67.47103398 27.50862058 68.359375 28.640625 C68.79443359 29.19298828 69.22949219 29.74535156 69.67773438 30.31445312 C71.0258406 32.03294008 72.36537782 33.75781497 73.703125 35.484375 C78.88119646 42.15141979 84.20338181 48.64988506 89.73022461 55.03125 C92.55907955 58.30158124 95.32045178 61.60479604 98 65 C104.25074491 72.90804054 110.90654146 80.49454714 117.5625 88.0625 C121.06998834 92.05140831 124.49411987 96.10972075 127.91821289 100.17016602 C130.32503805 103.02395413 132.74095162 105.86936138 135.17163086 108.70288086 C135.70372665 109.32327744 136.23582245 109.94367401 136.78404236 110.58287048 C137.18530838 111.05052322 137.5865744 111.51817596 138 112 C138.06964428 100.29054841 138.12288452 88.58114645 138.15543652 76.87152958 C138.17106327 71.43372826 138.19224692 65.99606912 138.22631836 60.55834961 C138.25901842 55.30637154 138.27687549 50.05452986 138.28463173 44.80245781 C138.29015614 42.80308321 138.30094387 40.80371571 138.31719017 38.80439949 C138.33910597 35.99451952 138.34196103 33.18519642 138.34057617 30.37524414 C138.351362 29.55668442 138.36214783 28.73812469 138.3732605 27.89476013 C138.34345206 22.27090187 137.4692698 17.10803083 135 12 C132.16730334 10.58365167 129.52533562 10.6536995 126.375 10.4375 C125.18648437 10.35371094 123.99796875 10.26992188 122.7734375 10.18359375 C121.85820313 10.12300781 120.94296875 10.06242188 120 10 C120 6.7 120 3.4 120 0 C136.83 0 153.66 0 171 0 C171 2.97 171 5.94 171 9 C168.65269214 11.34730786 162.50195295 10.26279357 159.3203125 10.328125 C155.89859174 10.64511814 155.89859174 10.64511814 154.31502819 13.16511059 C152.82192034 16.38389758 152.62992308 18.49412838 152.63923645 22.03010559 C152.63511246 23.24020294 152.63098846 24.45030029 152.6267395 25.69706726 C152.63752533 27.01624649 152.64831116 28.33542572 152.65942383 29.69458008 C152.66027046 31.10416648 152.65979424 32.51375421 152.65809631 33.92333984 C152.65723635 37.74328618 152.67486207 41.56294932 152.69581819 45.3828299 C152.71458493 49.37733155 152.71633542 53.37183985 152.71989441 57.36637878 C152.72921489 64.92758383 152.75382869 72.48865859 152.78394288 80.0498063 C152.81748681 88.65917173 152.83397288 97.26854342 152.84902918 105.87795794 C152.88037826 123.58537913 152.9331388 141.29267909 153 159 C152.18740723 158.93216309 151.37481445 158.86432617 150.53759766 158.79443359 C149.46558105 158.70500488 148.39356445 158.61557617 147.2890625 158.5234375 C146.22896973 158.43497559 145.16887695 158.34651367 144.07666016 158.25537109 C142.19503294 158.09919096 140.31279449 157.94993478 138.4296875 157.81274414 C131.79084257 157.20612915 128.57736872 152.93107525 124.4609375 148.0546875 C123.64882813 147.04664063 122.83671875 146.03859375 122 145 C121.27039063 144.11570312 120.54078125 143.23140625 119.7890625 142.3203125 C118.32279406 140.53644078 116.86468444 138.74583709 115.4140625 136.94921875 C112.6613802 133.586314 109.83814781 130.29073541 107 127 C102.68162544 121.98843586 98.45092659 116.91780812 94.28125 111.78125 C91.70156886 108.63615929 89.07357589 105.53529458 86.4375 102.4375 C82.63846663 97.96785804 78.92777697 93.44317691 75.28125 88.84765625 C68.01868751 79.78188903 60.59427122 70.84302377 53.0625 62 C49.53857365 57.86036436 46.11027647 53.66705815 42.81079102 49.34570312 C40.83314668 46.7838578 38.81750177 44.25540128 36.79296875 41.73046875 C36.08035889 40.84125732 35.36774902 39.9520459 34.63354492 39.03588867 C34.0944751 38.36404541 33.55540527 37.69220215 33 37 C32.95367641 50.21277982 32.91813062 63.42554035 32.89637566 76.63838482 C32.88593482 82.77351943 32.87177001 88.90859852 32.84912109 95.04370117 C32.82740361 100.96348937 32.81543363 106.88322413 32.81024551 112.80304909 C32.80654781 115.06249648 32.79932721 117.32194092 32.78853989 119.58136559 C32.77403968 122.74400549 32.77202146 125.90642405 32.77294922 129.0690918 C32.76575867 130.00489075 32.75856812 130.9406897 32.75115967 131.90484619 C32.62410749 139.00017311 32.62410749 139.00017311 36 145 C38.32986123 145.20968751 40.66444036 145.36815389 43 145.5 C49.88888889 145.88888889 49.88888889 145.88888889 51 147 C51 149.97 51 152.94 51 156 C34.17 156 17.34 156 0 156 C0 152.7 0 149.4 0 146 C1.46373047 145.94392578 1.46373047 145.94392578 2.95703125 145.88671875 C4.22933594 145.82097656 5.50164063 145.75523437 6.8125 145.6875 C8.70935547 145.60048828 8.70935547 145.60048828 10.64453125 145.51171875 C13.8549549 145.25974983 13.8549549 145.25974983 15.66712952 143.90879822 C17.69777929 141.00071321 17.52738841 138.47093494 17.68139648 134.94750977 C17.71455428 134.20758821 17.74771208 133.46766665 17.78187466 132.70532322 C18.2234993 121.42467741 18.12282397 110.12663165 18.09765625 98.83984375 C18.09578704 96.35307341 18.09436551 93.8663027 18.09336853 91.37953186 C18.08958297 84.89092968 18.07978734 78.40235052 18.06866455 71.91375732 C18.05836444 65.26998159 18.05385263 58.62620351 18.04882812 51.98242188 C18.03816082 38.98827153 18.02133017 25.994137 18 13 C13.94634061 11.27696805 10.60030116 10.64244249 6.1875 10.375 C5.02605469 10.30023437 3.86460937 10.22546875 2.66796875 10.1484375 C1.78753906 10.09945312 0.90710938 10.05046875 0 10 C0 6.7 0 3.4 0 0 Z " fill="#050505" transform="translate(736,939)"/>
<path d="M0 0 C23.43 0 46.86 0 71 0 C71 3.3 71 6.6 71 10 C70.09636719 10.04898438 69.19273437 10.09796875 68.26171875 10.1484375 C66.49248047 10.26058594 66.49248047 10.26058594 64.6875 10.375 C62.92986328 10.47941406 62.92986328 10.47941406 61.13671875 10.5859375 C57.84300113 10.78613747 57.84300113 10.78613747 55 13 C55.84108114 24.14432504 60.86075545 34.29591921 65 44.5625 C65.42539062 45.62146484 65.85078125 46.68042969 66.2890625 47.77148438 C67.13010095 49.86505093 67.97188351 51.95831873 68.81445312 54.05126953 C69.89107588 56.72908042 70.96210463 59.40904112 72.03125 62.08984375 C74.15624905 67.40607506 76.3264877 72.70345467 78.5 78 C82.6748142 88.17343802 86.77495507 98.37177252 90.75 108.625 C91.06582031 109.43839844 91.38164063 110.25179688 91.70703125 111.08984375 C92.4718068 113.05972017 93.23597052 115.0298341 94 117 C94.25168945 116.34515625 94.50337891 115.6903125 94.76269531 115.015625 C95.92103666 112.00882143 97.08547086 109.00441218 98.25 106 C98.64574219 104.97003906 99.04148437 103.94007812 99.44921875 102.87890625 C101.45738979 97.71033489 103.57082219 92.71130071 106.12011719 87.78808594 C107.49896781 84.98600437 108.4910415 82.07688535 109.5 79.125 C110.85590003 75.17639923 112.27438103 71.27562353 113.83984375 67.40625 C116.38077323 61.111756 118.71781907 54.74465795 121.0625 48.375 C121.92825096 46.02859622 122.79413306 43.68224082 123.66015625 41.3359375 C124.06468018 40.23910645 124.4692041 39.14227539 124.88598633 38.01220703 C125.81875166 35.49008153 126.75744783 32.97042895 127.703125 30.453125 C131.27679797 21.50072493 131.27679797 21.50072493 132 12 C128.53287889 10.84429296 125.4585044 10.67164707 121.8125 10.4375 C120.54019531 10.35371094 119.26789063 10.26992188 117.95703125 10.18359375 C116.49330078 10.09271484 116.49330078 10.09271484 115 10 C115 6.7 115 3.4 115 0 C131.83 0 148.66 0 166 0 C166 3.3 166 6.6 166 10 C165.25234375 10.08636719 164.5046875 10.17273438 163.734375 10.26171875 C162.74953125 10.40222656 161.7646875 10.54273438 160.75 10.6875 C159.77546875 10.81511719 158.8009375 10.94273437 157.796875 11.07421875 C153.56223615 12.47590787 151.82952338 15.58967819 149.61987305 19.34643555 C144.50834901 29.61475244 140.19309995 40.21741143 135.8125 50.8125 C134.93614013 52.92379032 134.05967342 55.0350363 133.18310547 57.14624023 C124.29735205 78.58151677 115.59529633 100.09153429 106.95388794 121.62631226 C106.04166678 123.89631495 105.12577426 126.16479941 104.20874023 128.43286133 C103.67168047 129.76512391 103.13465036 131.09739845 102.59765625 132.4296875 C102.14398682 133.5522998 101.69031738 134.67491211 101.22290039 135.83154297 C99.63570636 139.94386162 98.26436183 144.10787629 96.95703125 148.31640625 C95.88856159 151.31248239 94.42253996 154.15492009 93 157 C87.39 157 81.78 157 76 157 C74.24001907 152.80490636 72.48013013 148.60977434 70.72045898 144.41455078 C70.12415599 142.99297984 69.52780339 141.5714297 68.93139648 140.14990234 C68.06480465 138.08436723 67.19839598 136.01875538 66.33203125 133.953125 C66.0475563 133.27511337 65.76308136 132.59710175 65.46998596 131.89854431 C63.3336547 126.80399136 61.21373197 121.70276075 59.10449219 116.59692383 C57.93626415 113.85014187 56.69805774 111.14301967 55.4375 108.4375 C53.40034715 104.00780316 51.69337997 99.52890224 50.07275391 94.93286133 C49.07332321 92.20046239 47.99540853 89.52737713 46.86328125 86.84765625 C44.64263366 81.55379827 42.4600643 76.24560475 40.29296875 70.9296875 C39.6166062 69.27340902 38.94017269 67.61715951 38.26367188 65.9609375 C37.22933717 63.42829023 36.19577645 60.89534241 35.16479492 58.36132812 C31.46737167 49.27688951 27.71379931 40.22464604 23.73828125 31.2578125 C23.42191208 30.54309784 23.10554291 29.82838318 22.77958679 29.0920105 C20.89348386 24.87538005 18.88599816 20.74781161 16.74357605 16.65499878 C16 15 16 15 16 13 C10.67192698 10.89681328 5.66531181 10.45934961 0 10 C0 6.7 0 3.4 0 0 Z " fill="#050505" transform="translate(556,939)"/>
<path d="M0 0 C4.13822218 1.62996896 8.22768778 3.36655355 12.3125 5.125 C13.28026367 5.54072266 13.28026367 5.54072266 14.26757812 5.96484375 C15.84529005 6.64267554 17.42267826 7.32126074 19 8 C18.01 9.485 18.01 9.485 17 11 C14.9765625 11.1171875 14.9765625 11.1171875 12.625 10.875 C10.23358565 10.71655615 10.23358565 10.71655615 8 11 C5.39089037 13.3183856 5.39089037 13.3183856 4 16 C3.5186659 14.27143541 3.04003029 12.54211929 2.5625 10.8125 C2.29566406 9.84957031 2.02882812 8.88664062 1.75390625 7.89453125 C1.07119982 5.27336303 0.50107805 2.661065 0 0 Z " fill="#0AA854" transform="translate(56,13)"/>
<path d="M0 0 C1.64846769 0.44876616 3.29373455 0.90930488 4.9375 1.375 C5.85402344 1.63023437 6.77054687 1.88546875 7.71484375 2.1484375 C10 3 10 3 11 5 C10.690625 5.70125 10.38125 6.4025 10.0625 7.125 C8.76889991 10.11448801 8.76889991 10.11448801 9 14 C9 17.70967158 8.62995214 19.74009571 7 23 C5.61213002 20.36208886 4.54935862 17.81971593 3.7109375 14.9609375 C3.49179687 14.21585938 3.27265625 13.47078125 3.046875 12.703125 C2.82515625 11.93484375 2.6034375 11.1665625 2.375 10.375 C2.14554687 9.59898437 1.91609375 8.82296875 1.6796875 8.0234375 C0 2.26450893 0 2.26450893 0 0 Z " fill="#08A652" transform="translate(334,137)"/>
<path d="M0 0 C0.66 0.66 1.32 1.32 2 2 C1.625 4.625 1.625 4.625 1 7 C0.01 7.33 -0.98 7.66 -2 8 C-2.66 7.67 -3.32 7.34 -4 7 C-4.99 8.98 -5.98 10.96 -7 13 C-7.99 13 -8.98 13 -10 13 C-10.2371875 13.61230469 -10.474375 14.22460938 -10.71875 14.85546875 C-12.31703813 17.53065224 -13.65522554 18.11640165 -16.5 19.3125 C-17.2940625 19.65925781 -18.088125 20.00601563 -18.90625 20.36328125 C-21 21 -21 21 -23 20 C-22.34515625 19.47792969 -21.6903125 18.95585938 -21.015625 18.41796875 C-13.73924948 12.54959245 -6.83014922 6.37718993 0 0 Z " fill="#F8EBF2" transform="translate(899,566)"/>
<path d="M0 0 C0.99 0 1.98 0 3 0 C3.33 0.66 3.66 1.32 4 2 C4.66 1.34 5.32 0.68 6 0 C7.19287411 3.87684087 8 6.91621923 8 11 C4.44219804 10.39009109 1.3171411 9.4216319 -2 8 C-2 7.34 -2 6.68 -2 6 C-1.34 5.67 -0.68 5.34 0 5 C0 3.35 0 1.7 0 0 Z " fill="#14A95A" transform="translate(472,867)"/>
<path d="M0 0 C0.33 0.66 0.66 1.32 1 2 C2.32 2 3.64 2 5 2 C5 2.66 5 3.32 5 4 C4.34 4 3.68 4 3 4 C3 4.66 3 5.32 3 6 C3.66 6.33 4.32 6.66 5 7 C4.34 7 3.68 7 3 7 C3 7.66 3 8.32 3 9 C-0.35867712 8.24029922 -3.52123658 7.12906745 -6.75 5.9375 C-7.73484375 5.57527344 -8.7196875 5.21304688 -9.734375 4.83984375 C-10.48203125 4.56269531 -11.2296875 4.28554688 -12 4 C-8.01890872 2.93299581 -4.09011471 2.47718005 0 2 C0 1.34 0 0.68 0 0 Z " fill="#13AA5A" transform="translate(427,848)"/>
<path d="M0 0 C0.73828125 1.734375 0.73828125 1.734375 1 4 C-0.58203125 6.140625 -0.58203125 6.140625 -2.8125 8.25 C-3.54082031 8.95640625 -4.26914062 9.6628125 -5.01953125 10.390625 C-7 12 -7 12 -9 12 C-9 10.35 -9 8.7 -9 7 C-8.34 7 -7.68 7 -7 7 C-7 6.01 -7 5.02 -7 4 C-3.68571429 0 -3.68571429 0 0 0 Z " fill="#12AA59" transform="translate(566,733)"/>
<path d="M0 0 C2.97 0.99 5.94 1.98 9 3 C7.67652988 7.85272378 6.76687864 9.23312136 3 13 C2.01 8.71 1.02 4.42 0 0 Z " fill="#15AB5B" transform="translate(512,216)"/>
<path d="M0 0 C0.75 1.75 0.75 1.75 1 4 C-0.28965176 5.37562854 -1.62689293 6.70766393 -3 8 C-3.7872678 10.1381966 -3.7872678 10.1381966 -4 12 C-4.99 12 -5.98 12 -7 12 C-7.66 13.32 -8.32 14.64 -9 16 C-10.32 15.67 -11.64 15.34 -13 15 C-12.39671875 14.33613281 -11.7934375 13.67226563 -11.171875 12.98828125 C-10.37265625 12.10527344 -9.5734375 11.22226562 -8.75 10.3125 C-7.96109375 9.44238281 -7.1721875 8.57226562 -6.359375 7.67578125 C-4.15500436 5.17579137 -2.05866059 2.62054272 0 0 Z " fill="#F6EFF3" transform="translate(919,544)"/>
<path d="M0 0 C2.37599719 3.56399578 3.15731805 7.08381174 4.125 11.1875 C4.39763672 12.31188477 4.39763672 12.31188477 4.67578125 13.45898438 C5.12251686 15.30470781 5.5619694 17.15219132 6 19 C4.5 17.625 4.5 17.625 3 16 C3 15.34 3 14.68 3 14 C2.34 14 1.68 14 1 14 C1 14.99 1 15.98 1 17 C0.01 17 -0.98 17 -2 17 C-1.42415568 14.61435923 -0.77772405 12.33317216 0 10 C0.06802967 8.27204648 0.08495645 6.54164635 0.0625 4.8125 C0.05347656 3.91144531 0.04445313 3.01039063 0.03515625 2.08203125 C0.02355469 1.39496094 0.01195312 0.70789063 0 0 Z " fill="#30B46D" transform="translate(531,722)"/>
<path d="M0 0 C1.65 0 3.3 0 5 0 C5.9360342 3.79267192 5.98276252 6.93674565 5.5625 10.8125 C5.46066406 11.78832031 5.35882813 12.76414062 5.25390625 13.76953125 C5.12822266 14.87361328 5.12822266 14.87361328 5 16 C2.22420239 13.22420239 2.13938613 10.69693063 1.375 6.875 C1.11460937 5.59367187 0.85421875 4.31234375 0.5859375 2.9921875 C0.39257812 2.00476563 0.19921875 1.01734375 0 0 Z " fill="#12A959" transform="translate(474,448)"/>
<path d="M0 0 C0.99 0 1.98 0 3 0 C3 0.99 3 1.98 3 3 C2.175 3.598125 1.35 4.19625 0.5 4.8125 C-2.35653433 6.80722348 -2.35653433 6.80722348 -2.3125 10.25 C-2.209375 11.1575 -2.10625 12.065 -2 13 C-2.99 13.33 -3.98 13.66 -5 14 C-5.33 13.67 -5.66 13.34 -6 13 C-7.32 14.32 -8.64 15.64 -10 17 C-8.6243563 13.14958019 -6.83312893 10.1183679 -4.4375 6.8125 C-2.02799361 3.52121677 -2.02799361 3.52121677 0 0 Z " fill="#F9EBF2" transform="translate(937,518)"/>
<path d="M0 0 C5 2 5 2 10 4 C9.67 4.66 9.34 5.32 9 6 C8.01 6.33 7.02 6.66 6 7 C4.77479736 10.00847418 4.77479736 10.00847418 4 13 C3.67 13 3.34 13 3 13 C1.90154282 8.67940177 0.82187261 4.38332057 0 0 Z " fill="#1BAD5F" transform="translate(56,13)"/>
<path d="M0 0 C0.99 0.33 1.98 0.66 3 1 C3 1.99 3 2.98 3 4 C3.3062434 5.33981486 3.63451555 6.67511887 4 8 C0.26414791 8 -1.01540871 7.95542188 -4 6 C-4.33 5.01 -4.66 4.02 -5 3 C-2.6875 1.4375 -2.6875 1.4375 0 0 Z " fill="#F7FBFB" transform="translate(844,607)"/>
<path d="M0 0 C2.69378789 2.69378789 3.13672837 5.22574981 4.1875 8.875 C4.55230469 10.10992187 4.91710937 11.34484375 5.29296875 12.6171875 C5.93501035 15.68905505 6.12677877 17.14357992 5 20 C4.34 18.02 3.68 16.04 3 14 C2.34 14 1.68 14 1 14 C-0.86889281 10.15227951 -1.00124921 8.11624675 0 4 C-0.33 3.34 -0.66 2.68 -1 2 C-0.67 1.34 -0.34 0.68 0 0 Z " fill="#D4EFDF" transform="translate(530,465)"/>
<path d="M0 0 C1.84187025 2.76280538 2.72248277 4.80707826 3.6875 7.9375 C3.95949219 8.79214844 4.23148437 9.64679688 4.51171875 10.52734375 C5.02075548 13.10510574 4.84888744 14.54449337 4 17 C3.67 16.01 3.34 15.02 3 14 C2.01 15.485 2.01 15.485 1 17 C-1.64812363 11.2364368 -0.8019749 6.09067424 0 0 Z " fill="#24B065" transform="translate(355,435)"/>
<path d="M0 0 C-0.99 1.485 -0.99 1.485 -2 3 C-3.32 3 -4.64 3 -6 3 C-6.33 3.66 -6.66 4.32 -7 5 C-11.75 4.125 -11.75 4.125 -14 3 C-14 2.34 -14 1.68 -14 1 C-12.41913952 0.63495397 -10.83516093 0.28339494 -9.25 -0.0625 C-8.36828125 -0.25972656 -7.4865625 -0.45695313 -6.578125 -0.66015625 C-4.01320972 -0.99825872 -2.42908361 -0.81158635 0 0 Z " fill="#FAEBF1" transform="translate(758,641)"/>
<path d="M0 0 C2.29946417 3.44919626 2.80769035 6.1381022 3.625 10.1875 C3.88539063 11.45980469 4.14578125 12.73210937 4.4140625 14.04296875 C4.60742188 15.01878906 4.80078125 15.99460938 5 17 C4.01 17 3.02 17 2 17 C0.14868517 13.07142246 -0.22004943 10.01224888 -0.125 5.6875 C-0.10695313 4.61886719 -0.08890625 3.55023438 -0.0703125 2.44921875 C-0.04710937 1.64097656 -0.02390625 0.83273438 0 0 Z " fill="#23AF64" transform="translate(264,113)"/>
<path d="M0 0 C1.32 0 2.64 0 4 0 C4.43200679 4.75207471 2.98489083 7.78210698 1 12 C-0.64826111 9.03312999 -1.44271087 6.34373475 -2 3 C-1.34 3 -0.68 3 0 3 C0 2.01 0 1.02 0 0 Z " fill="#0EA956" transform="translate(402,184)"/>
<path d="M0 0 C0.33 0.66 0.66 1.32 1 2 C-1.29803523 7.56999968 -4.57597413 11.93467893 -9 16 C-9.66 16.99 -10.32 17.98 -11 19 C-11.66 18.67 -12.32 18.34 -13 18 C-11.39642346 15.74957738 -9.79216064 13.49964941 -8.1875 11.25 C-7.73568359 10.61578125 -7.28386719 9.9815625 -6.81835938 9.328125 C-4.58023369 6.19148171 -2.33201302 3.06803042 0 0 Z " fill="#CFEFDB" transform="translate(538,768)"/>
<path d="M0 0 C4.34862851 0.8697257 7.16270693 1.9474944 11 4 C9.02 4.99 9.02 4.99 7 6 C7 5.34 7 4.68 7 4 C6.34 4 5.68 4 5 4 C5 4.66 5 5.32 5 6 C4.34 6 3.68 6 3 6 C2.67 7.32 2.34 8.64 2 10 C1.34 6.7 0.68 3.4 0 0 Z " fill="#18A95B" transform="translate(453,190)"/>
<path d="M0 0 C2.09721098 3.14581646 3.05667086 5.8408918 4.1875 9.4375 C4.55230469 10.57058594 4.91710937 11.70367188 5.29296875 12.87109375 C5.96248932 15.8339997 6.07236414 17.22004965 5 20 C4.80664062 19.44570313 4.61328125 18.89140625 4.4140625 18.3203125 C4.15367187 17.59585938 3.89328125 16.87140625 3.625 16.125 C3.24214844 15.04605469 3.24214844 15.04605469 2.8515625 13.9453125 C2.06122217 11.81842006 2.06122217 11.81842006 0 10 C-0.87401862 6.34501304 -1.2393919 3.5804655 0 0 Z " fill="#36B571" transform="translate(537,744)"/>
<path d="M0 0 C0.33 0 0.66 0 1 0 C1.58052245 3.00988272 2.05989746 5.92889402 2 9 C0.0625 11.0625 0.0625 11.0625 -2 12 C-2.33 9.03 -2.66 6.06 -3 3 C-2.34 3 -1.68 3 -1 3 C-0.67 2.01 -0.34 1.02 0 0 Z " fill="#0EA856" transform="translate(628,514)"/>
<path d="M0 0 C1.36511719 0.43119141 1.36511719 0.43119141 2.7578125 0.87109375 C3.45648438 1.09925781 4.15515625 1.32742187 4.875 1.5625 C4.875 2.5525 4.875 3.5425 4.875 4.5625 C4.545 3.9025 4.215 3.2425 3.875 2.5625 C1.235 3.2225 -1.405 3.8825 -4.125 4.5625 C-4.125 3.9025 -4.125 3.2425 -4.125 2.5625 C-5.115 2.2325 -6.105 1.9025 -7.125 1.5625 C-7.125 0.9025 -7.125 0.2425 -7.125 -0.4375 C-4.30685434 -1.84657283 -2.95222796 -0.94622691 0 0 Z " fill="#14AA5A" transform="translate(175.125,65.4375)"/>
<path d="M0 0 C4.35294118 8.70588235 4.35294118 8.70588235 3.625 13.4375 C3.41875 13.953125 3.2125 14.46875 3 15 C2.67 13.68 2.34 12.36 2 11 C0.68 10.67 -0.64 10.34 -2 10 C-1.34 6.7 -0.68 3.4 0 0 Z " fill="#D3F0DF" transform="translate(516,414)"/>
<path d="M0 0 C2.07984914 3.11977371 2.78770149 5.45013819 3.6875 9.0625 C3.95949219 10.12597656 4.23148437 11.18945312 4.51171875 12.28515625 C5 15 5 15 4 17 C2 10.25 2 10.25 2 8 C1.34 8 0.68 8 0 8 C-0.33 8.66 -0.66 9.32 -1 10 C-2.23076923 4.58461538 -2.23076923 4.58461538 -1.0625 1.625 C-0.5365625 0.820625 -0.5365625 0.820625 0 0 Z " fill="#D3EEDE" transform="translate(340,160)"/>
<path d="M0 0 C2.64 0.99 5.28 1.98 8 3 C7.01 3.495 7.01 3.495 6 4 C6 4.66 6 5.32 6 6 C4.02 6.33 2.04 6.66 0 7 C-1 4 -1 4 0 0 Z " fill="#12AA5A" transform="translate(353,145)"/>
<path d="M0 0 C1.64846769 0.44876616 3.29373455 0.90930488 4.9375 1.375 C5.85402344 1.63023437 6.77054687 1.88546875 7.71484375 2.1484375 C10 3 10 3 11 5 C9.8553125 4.9690625 9.8553125 4.9690625 8.6875 4.9375 C5.89814214 4.87057159 5.89814214 4.87057159 3 6 C2.67 6.66 2.34 7.32 2 8 C1.34 5.36 0.68 2.72 0 0 Z " fill="#1CAC5F" transform="translate(334,137)"/>
<path d="M0 0 C0.66 0.66 1.32 1.32 2 2 C-0.31856917 3.54571278 -2.50638429 4.79618552 -5 6 C-5 6.66 -5 7.32 -5 8 C-6.97746603 8.73080266 -8.98072489 9.39421747 -11 10 C-11.66 9.67 -12.32 9.34 -13 9 C-8.71 6.03 -4.42 3.06 0 0 Z " fill="#F7E3ED" transform="translate(871,590)"/>
<path d="M0 0 C3.72433382 1.2125738 7.37802806 2.50859979 11 4 C10.67 4.66 10.34 5.32 10 6 C7.6859378 6.73075648 5.35171131 7.40138258 3 8 C3 6.02 3 4.04 3 2 C2.01 2 1.02 2 0 2 C0 1.34 0 0.68 0 0 Z " fill="#0EA855" transform="translate(134,48)"/>
<path d="M0 0 C2.475 0.99 2.475 0.99 5 2 C5.33 1.34 5.66 0.68 6 0 C6.66 0.66 7.32 1.32 8 2 C7.625 5.125 7.625 5.125 7 8 C6.67 7.01 6.34 6.02 6 5 C5.01 5 4.02 5 3 5 C2.67 5.99 2.34 6.98 2 8 C1.34 5.36 0.68 2.72 0 0 Z " fill="#F0FAF5" transform="translate(408,286)"/>
<path d="M0 0 C0.99 1.32 1.98 2.64 3 4 C3.66 3.67 4.32 3.34 5 3 C5 4.65 5 6.3 5 8 C3.02 8.99 3.02 8.99 1 10 C0.63883954 8.5225254 0.28624952 7.04295325 -0.0625 5.5625 C-0.25972656 4.73878906 -0.45695312 3.91507812 -0.66015625 3.06640625 C-0.82837891 2.04353516 -0.82837891 2.04353516 -1 1 C-0.67 0.67 -0.34 0.34 0 0 Z " fill="#EBF6EF" transform="translate(313,280)"/>
<path d="M0 0 C2.11044382 3.16566573 2.75552077 5.51197415 3.625 9.1875 C3.88539063 10.27417969 4.14578125 11.36085938 4.4140625 12.48046875 C4.60742188 13.31191406 4.80078125 14.14335937 5 15 C3.68 14.34 2.36 13.68 1 13 C1.33 11.35 1.66 9.7 2 8 C1.01 7.67 0.02 7.34 -1 7 C-0.67 4.69 -0.34 2.38 0 0 Z " fill="#2BB26B" transform="translate(345,400)"/>
<path d="M0 0 C1.57554035 2.88628401 2.46276373 5.53342384 3.125 8.75 C3.29257812 9.54921875 3.46015625 10.3484375 3.6328125 11.171875 C3.81457031 12.07679688 3.81457031 12.07679688 4 13 C1.5625 12.1875 1.5625 12.1875 -1 11 C-2.41687119 6.74938644 -1.19320039 4.28148375 0 0 Z " fill="#CFEDDC" transform="translate(516,230)"/>
<path d="M0 0 C2.5 1.375 2.5 1.375 5 3 C5 3.66 5 4.32 5 5 C6.32 5 7.64 5 9 5 C9.33 5.99 9.66 6.98 10 8 C5.27934033 6.45730076 0.58335908 4.92205381 -4 3 C-2.68 2.01 -1.36 1.02 0 0 Z " fill="#1FAE61" transform="translate(455,864)"/>
<path d="M0 0 C2.01822917 0.06510417 4.03645833 0.13020833 6.0546875 0.1953125 C6.0546875 1.8453125 6.0546875 3.4953125 6.0546875 5.1953125 C2.7546875 4.2053125 -0.5453125 3.2153125 -3.9453125 2.1953125 C-1.9453125 0.1953125 -1.9453125 0.1953125 0 0 Z " fill="#20AC62" transform="translate(401.9453125,842.8046875)"/>
<path d="M0 0 C0.33 0.99 0.66 1.98 1 3 C3.01508358 3.73323796 3.01508358 3.73323796 5 4 C4.67 5.65 4.34 7.3 4 9 C3.01 9.33 2.02 9.66 1 10 C0.63883954 8.5225254 0.28624952 7.04295325 -0.0625 5.5625 C-0.25972656 4.73878906 -0.45695312 3.91507813 -0.66015625 3.06640625 C-0.82837891 2.04353516 -0.82837891 2.04353516 -1 1 C-0.67 0.67 -0.34 0.34 0 0 Z " fill="#F2F9F5" transform="translate(505,624)"/>
<path d="M0 0 C0.99 0 1.98 0 3 0 C3 0.66 3 1.32 3 2 C3.66 2 4.32 2 5 2 C4.835 3.051875 4.67 4.10375 4.5 5.1875 C4.10430322 8.20468796 3.90821029 10.97093972 4 14 C2.30566082 10.9530371 1.50532888 8.17178534 0.875 4.75 C0.70742188 3.85796875 0.53984375 2.9659375 0.3671875 2.046875 C0.18542969 1.03367187 0.18542969 1.03367187 0 0 Z " fill="#1EAE61" transform="translate(505,558)"/>
<path d="M0 0 C2.09715785 3.14573677 2.52004559 5.01456251 3.125 8.6875 C3.29257812 9.68136719 3.46015625 10.67523438 3.6328125 11.69921875 C3.75398438 12.45847656 3.87515625 13.21773438 4 14 C2.68 13.67 1.36 13.34 0 13 C-1.12122873 9.63631382 -0.76972616 7.42100517 0 4 C0 2.68 0 1.36 0 0 Z " fill="#28B167" transform="translate(508,457)"/>
<path d="M0 0 C2.1519437 3.22791555 2.20086443 4.28400809 2 8 C0.02 8.33 -1.96 8.66 -4 9 C-4 7.35 -4 5.7 -4 4 C-3.01 3.67 -2.02 3.34 -1 3 C-0.67 2.01 -0.34 1.02 0 0 Z " fill="#14AA5B" transform="translate(597,405)"/>
<path d="M0 0 C2.40994015 3.61491023 2.75176686 6.59570656 3.4375 10.8203125 C3.623125 11.53960938 3.80875 12.25890625 4 13 C4.66 13.33 5.32 13.66 6 14 C3.03 13.505 3.03 13.505 0 13 C0 8.71 0 4.42 0 0 Z " fill="#CCEBDA" transform="translate(595,694)"/>
<path d="M0 0 C2.52480693 2.52480693 2.55738633 4.13823034 3.125 7.625 C3.29257812 8.62789062 3.46015625 9.63078125 3.6328125 10.6640625 C3.75398438 11.43492187 3.87515625 12.20578125 4 13 C3.34 13 2.68 13 2 13 C1.67 11.68 1.34 10.36 1 9 C0.01 9.495 0.01 9.495 -1 10 C-0.67 6.7 -0.34 3.4 0 0 Z " fill="#1FAD60" transform="translate(428,694)"/>
<path d="M0 0 C2.29633824 3.44450737 2.54016485 5.93812283 3 10 C0.13275314 9.42655063 -0.8614515 9.1385485 -3 7 C-3 5.68 -3 4.36 -3 3 C-2.01 3 -1.02 3 0 3 C0 2.01 0 1.02 0 0 Z " fill="#E1F3E9" transform="translate(493,517)"/>
<path d="M0 0 C2.475 0.495 2.475 0.495 5 1 C5.33 2.65 5.66 4.3 6 6 C4.02 6 2.04 6 0 6 C0 4.02 0 2.04 0 0 Z " fill="#0EA856" transform="translate(257,103)"/>
<path d="M0 0 C-0.33 1.65 -0.66 3.3 -1 5 C-2.98 4.34 -4.96 3.68 -7 3 C-7 2.01 -7 1.02 -7 0 C-3.86650268 -1.04449911 -3.01031744 -0.93423645 0 0 Z " fill="#EDF6F1" transform="translate(152,50)"/>
<path d="M0 0 C0.66 0 1.32 0 2 0 C2.144375 1.11375 2.28875 2.2275 2.4375 3.375 C2.78372035 6.82142047 2.78372035 6.82142047 4 9 C3.71887936 11.00800456 3.38932033 13.01014051 3 15 C1.33141986 11.97965874 0.47672243 9.19354198 -0.1875 5.8125 C-0.36667969 4.93207031 -0.54585938 4.05164063 -0.73046875 3.14453125 C-0.81941406 2.43683594 -0.90835937 1.72914063 -1 1 C-0.67 0.67 -0.34 0.34 0 0 Z " fill="#E6F5EB" transform="translate(476,856)"/>
<path d="M0 0 C0.125 5.75 0.125 5.75 -1 8 C-3.31 7.67 -5.62 7.34 -8 7 C-7 6 -6 5 -5 4 C-3.948125 2.9171875 -3.948125 2.9171875 -2.875 1.8125 C-1 0 -1 0 0 0 Z " fill="#E0F2E8" transform="translate(626,688)"/>
<path d="M0 0 C2.09715785 3.14573677 2.52004559 5.01456251 3.125 8.6875 C3.29257812 9.68136719 3.46015625 10.67523437 3.6328125 11.69921875 C3.75398437 12.45847656 3.87515625 13.21773437 4 14 C3.34 14 2.68 14 2 14 C1.67 14.66 1.34 15.32 1 16 C0.83125293 14.08351538 0.66508357 12.16680367 0.5 10.25 C0.4071875 9.18265625 0.314375 8.1153125 0.21875 7.015625 C0.04947717 4.6820782 0 2.33967818 0 0 Z " fill="#1BAB5F" transform="translate(546,592)"/>
<path d="M0 0 C1.95216435 3.90432869 2.50639991 6.72213252 3 11 C1.68 10.67 0.36 10.34 -1 10 C-1.33 10.66 -1.66 11.32 -2 12 C-1.34 8.04 -0.68 4.08 0 0 Z " fill="#DEF1E6" transform="translate(574,436)"/>
<path d="M0 0 C0.99 0 1.98 0 3 0 C5.09230769 4.43076923 5.09230769 4.43076923 4.625 7.3125 C4.41875 7.869375 4.2125 8.42625 4 9 C4 8.01 4 7.02 4 6 C2.02 6 0.04 6 -2 6 C-1.34 4.02 -0.68 2.04 0 0 Z " fill="#D9F1E4" transform="translate(243,683)"/>
<path d="M0 0 C2.29946417 3.44919626 2.80769035 6.1381022 3.625 10.1875 C3.88539063 11.45980469 4.14578125 12.73210938 4.4140625 14.04296875 C4.60742188 15.01878906 4.80078125 15.99460937 5 17 C4.34 16.67 3.68 16.34 3 16 C2.375 13.4375 2.375 13.4375 2 11 C1.34 11 0.68 11 0 11 C0 7.37 0 3.74 0 0 Z " fill="#C9EBD6" transform="translate(635,652)"/>
<path d="M0 0 C1.96301592 3.50538557 2.95902388 7.13351728 4 11 C3.01 11 2.02 11 1 11 C0.67 10.01 0.34 9.02 0 8 C-0.66 8 -1.32 8 -2 8 C-1.34 5.36 -0.68 2.72 0 0 Z " fill="#1FAC5F" transform="translate(372,496)"/>
<path d="M0 0 C0.91448257 3.08637868 1 5.79630389 1 9 C1.33 9.66 1.66 10.32 2 11 C0.02 11.99 -1.96 12.98 -4 14 C-3.52188823 12.22888156 -3.0424722 10.45811517 -2.5625 8.6875 C-2.29566406 7.70136719 -2.02882813 6.71523438 -1.75390625 5.69921875 C-1.21920575 3.78482474 -0.62855462 1.88566385 0 0 Z " fill="#F8D0E0" transform="translate(963,461)"/>
<path d="M0 0 C0.99 0.33 1.98 0.66 3 1 C3 1.66 3 2.32 3 3 C3.99 3.33 4.98 3.66 6 4 C5.01 5.98 4.02 7.96 3 10 C0.70366176 6.55549263 0.45983515 4.06187717 0 0 Z " fill="#0FA959" transform="translate(521,430)"/>
<path d="M0 0 C2.18742014 3.2811302 2.54442806 5.33084356 3.125 9.1875 C3.37636719 10.81751953 3.37636719 10.81751953 3.6328125 12.48046875 C3.75398438 13.31191406 3.87515625 14.14335937 4 15 C2.68 14.67 1.36 14.34 0 14 C0 9.38 0 4.76 0 0 Z " fill="#DCF4E5" transform="translate(433,305)"/>
<path d="M0 0 C2.51699845 2.51699845 3.10964078 4.57554146 4 8 C3.625 10.375 3.625 10.375 3 12 C2.67 11.34 2.34 10.68 2 10 C1.34 10.66 0.68 11.32 0 12 C-1.125 6.25 -1.125 6.25 0 4 C0 2.68 0 1.36 0 0 Z " fill="#D9F0E2" transform="translate(531,286)"/>
<path d="M0 0 C5.75 1.75 5.75 1.75 8 4 C7.01 4.99 6.02 5.98 5 7 C4.01 6.67 3.02 6.34 2 6 C2.33 5.01 2.66 4.02 3 3 C2.34 3 1.68 3 1 3 C0.67 2.01 0.34 1.02 0 0 Z " fill="#E5F5EC" transform="translate(390,841)"/>
<path d="M0 0 C1.32 0.66 2.64 1.32 4 2 C3.67 3.65 3.34 5.3 3 7 C1.35 6.67 -0.3 6.34 -2 6 C-1.125 1.125 -1.125 1.125 0 0 Z " fill="#F5FBF9" transform="translate(370,833)"/>
<path d="M0 0 C2.3129482 2.3129482 2.49580975 3.47904875 3.125 6.625 C3.29257812 7.44226563 3.46015625 8.25953125 3.6328125 9.1015625 C3.81457031 10.04128906 3.81457031 10.04128906 4 11 C2.68 11 1.36 11 0 11 C0.33 9.35 0.66 7.7 1 6 C0.34 5.67 -0.32 5.34 -1 5 C-0.67 3.35 -0.34 1.7 0 0 Z " fill="#DBF0E2" transform="translate(265,754)"/>
<path d="M0 0 C2 3 2 3 1.8125 6.5625 C1 10 1 10 -2 12 C-3 9 -3 9 -2 6 C-1.34 6 -0.68 6 0 6 C0 4.02 0 2.04 0 0 Z " fill="#1EAF62" transform="translate(523,510)"/>
<path d="M0 0 C0.66 0.33 1.32 0.66 2 1 C2 2.32 2 3.64 2 5 C1.34 5 0.68 5 0 5 C0.66 5.66 1.32 6.32 2 7 C1.625 9.125 1.625 9.125 1 11 C-1.79908133 8.20091867 -1.72362983 5.86918237 -2 2 C-1.34 1.34 -0.68 0.68 0 0 Z " fill="#1EAC61" transform="translate(540,489)"/>
<path d="M0 0 C1.32 0 2.64 0 4 0 C4.33 2.64 4.66 5.28 5 8 C4.01 8.33 3.02 8.66 2 9 C1.34 6.03 0.68 3.06 0 0 Z " fill="#F5F9F6" transform="translate(562,462)"/>
<path d="M0 0 C0.66 0 1.32 0 2 0 C2 0.66 2 1.32 2 2 C2.99 2.33 3.98 2.66 5 3 C4.01 4.485 4.01 4.485 3 6 C2.34 6 1.68 6 1 6 C0.67 6.66 0.34 7.32 0 8 C-0.38063221 5.6739143 -0.71269945 3.33944736 -1 1 C-0.67 0.67 -0.34 0.34 0 0 Z " fill="#EFF8F3" transform="translate(595,390)"/>
<path d="M0 0 C0.33 0 0.66 0 1 0 C1.93402724 5.41735797 2.20808081 8.80451575 0 14 C-1.53508028 11.56661348 -2.03088304 10.32875493 -1.7578125 7.421875 C-1.54898438 6.54015625 -1.34015625 5.6584375 -1.125 4.75 C-0.92132812 3.85796875 -0.71765625 2.9659375 -0.5078125 2.046875 C-0.34023438 1.37140625 -0.17265625 0.6959375 0 0 Z " fill="#15AC5A" transform="translate(516,485)"/>
<path d="M0 0 C2.59482129 2.59482129 2.69990302 4.39883625 3 8 C2.34 8.66 1.68 9.32 1 10 C0.01 9.67 -0.98 9.34 -2 9 C-1.34 6.03 -0.68 3.06 0 0 Z " fill="#1AAC5C" transform="translate(342,390)"/>
<path d="M0 0 C1.875 1.1875 1.875 1.1875 2.875 3.1875 C-2.875 4.3125 -2.875 4.3125 -5.125 3.1875 C-5.125 2.1975 -5.125 1.2075 -5.125 0.1875 C-2.125 -0.8125 -2.125 -0.8125 0 0 Z " fill="#F1F7F4" transform="translate(222.125,81.8125)"/>
<path d="M0 0 C4.15882353 8.02058824 4.15882353 8.02058824 3.625 11.3125 C3.41875 11.869375 3.2125 12.42625 3 13 C2.525625 12.030625 2.05125 11.06125 1.5625 10.0625 C0.29806053 7.19522563 0.29806053 7.19522563 -1 6 C-1.125 3.5 -1.125 3.5 -1 1 C-0.67 0.67 -0.34 0.34 0 0 Z " fill="#CDECD9" transform="translate(459,581)"/>
<path d="M0 0 C0.99 0.33 1.98 0.66 3 1 C3 2.98 3 4.96 3 7 C1.35 6.67 -0.3 6.34 -2 6 C-1.34 4.02 -0.68 2.04 0 0 Z M-2 7 C0 8 0 8 0 8 Z " fill="#F8E5ED" transform="translate(618,263)"/>
<path d="M0 0 C0.66 0 1.32 0 2 0 C2.92844389 4.33273814 2.92844389 7.66726186 2 12 C1.67 12 1.34 12 1 12 C0.63896464 10.18885568 0.28634496 8.37603177 -0.0625 6.5625 C-0.25972656 5.55316406 -0.45695313 4.54382813 -0.66015625 3.50390625 C-0.77230469 2.67761719 -0.88445313 1.85132813 -1 1 C-0.67 0.67 -0.34 0.34 0 0 Z " fill="#EFF9F3" transform="translate(578,330)"/>
<path d="M0 0 C0.99 0 1.98 0 3 0 C3.9765625 6.0546875 3.9765625 6.0546875 4 8 C3.34 8.66 2.68 9.32 2 10 C1.34 6.7 0.68 3.4 0 0 Z " fill="#13A95A" transform="translate(145,326)"/>
<path d="M0 0 C1.9375 0.3125 1.9375 0.3125 4 1 C4.33 1.99 4.66 2.98 5 4 C4.67 4.66 4.34 5.32 4 6 C1.525 5.01 1.525 5.01 -1 4 C-0.67 2.68 -0.34 1.36 0 0 Z " fill="#EEF7F2" transform="translate(361,144)"/>
<path d="M0 0 C2.04296875 0.4609375 2.04296875 0.4609375 4.1875 1.375 C4.90292969 1.67148437 5.61835938 1.96796875 6.35546875 2.2734375 C7.16951172 2.63308594 7.16951172 2.63308594 8 3 C8 3.33 8 3.66 8 4 C6.88625 3.979375 5.7725 3.95875 4.625 3.9375 C1.16784079 3.73619282 1.16784079 3.73619282 -1 5 C-1 4.34 -1 3.68 -1 3 C-1.66 2.67 -2.32 2.34 -3 2 C-2.01 1.34 -1.02 0.68 0 0 Z " fill="#EFFBF6" transform="translate(467,873)"/>
<path d="M0 0 C0.97079451 3.0202496 1.32756618 5.06038917 0 8 C-2.5625 9.75 -2.5625 9.75 -5 11 C-3.77472971 6.94718288 -2.30119506 3.55639236 0 0 Z " fill="#FADCE9" transform="translate(944,506)"/>
<path d="M0 0 C2.55803184 3.83704776 4.34505724 7.75712791 3.625 12.4375 C3.41875 12.953125 3.2125 13.46875 3 14 C-0.16470185 9.25294723 -0.10927475 5.68228705 0 0 Z " fill="#B5E5CB" transform="translate(429,474)"/>
<path d="M0 0 C0.33 1.32 0.66 2.64 1 4 C0.01 4.495 0.01 4.495 -1 5 C-1 6.98 -1 8.96 -1 11 C-1.33 11 -1.66 11 -2 11 C-2.66 7.7 -3.32 4.4 -4 1 C-2.68 0.67 -1.36 0.34 0 0 Z " fill="#EB1A6A" transform="translate(685,480)"/>
<path d="M0 0 C0.99 0.33 1.98 0.66 3 1 C3.6875 3.0625 3.6875 3.0625 4 5 C2.68 5.99 1.36 6.98 0 8 C-0.38063221 5.6739143 -0.71269945 3.33944736 -1 1 C-0.67 0.67 -0.34 0.34 0 0 Z " fill="#F1F9F4" transform="translate(460,464)"/>
<path d="M0 0 C2.29633824 3.44450737 2.54016485 5.93812283 3 10 C1.68 9.67 0.36 9.34 -1 9 C-1.33 7.35 -1.66 5.7 -2 4 C-1.01 4.495 -1.01 4.495 0 5 C0 3.35 0 1.7 0 0 Z " fill="#25AF65" transform="translate(605,433)"/>
<path d="M0 0 C2 2 2 2 2.1875 4.5 C2 7 2 7 1 9 C0.67 9.99 0.34 10.98 0 12 C-0.66 8.7 -1.32 5.4 -2 2 C-1.34 2 -0.68 2 0 2 C0 1.34 0 0.68 0 0 Z " fill="#17AC5D" transform="translate(413,406)"/>
<path d="M0 0 C0.99 0.33 1.98 0.66 3 1 C3.875 2.875 3.875 2.875 4 5 C2.625 6.75 2.625 6.75 1 8 C0.67 8 0.34 8 0 8 C-1.125 2.25 -1.125 2.25 0 0 Z " fill="#0CA854" transform="translate(156,360)"/>
<path d="M0 0 C1.80330533 3.60661066 2.46599103 6.08393425 3 10 C1.68 9.67 0.36 9.34 -1 9 C-0.67 6.03 -0.34 3.06 0 0 Z " fill="#E7F3EC" transform="translate(418,252)"/>
<path d="M0 0 C2.475 0.99 2.475 0.99 5 2 C4.34 4.31 3.68 6.62 3 9 C0.87491756 5.81237635 0.4979837 3.73487777 0 0 Z " fill="#1AAC5D" transform="translate(120,239)"/>
<path d="M0 0 C0.66 0.33 1.32 0.66 2 1 C2.40729228 3.32156597 2.74438677 5.6568787 3 8 C1.35 7.67 -0.3 7.34 -2 7 C-1.34 6.67 -0.68 6.34 0 6 C0 4.02 0 2.04 0 0 Z " fill="#2DB269" transform="translate(477,870)"/>
<path d="M0 0 C1.09658936 3.28976808 0.79953138 4.71303767 0 8 C-1.98 7.34 -3.96 6.68 -6 6 C-5.67 4.68 -5.34 3.36 -5 2 C-4.01 3.485 -4.01 3.485 -3 5 C-2.01 3.35 -1.02 1.7 0 0 Z " fill="#C6E9D5" transform="translate(524,787)"/>
<path d="M0 0 C0.33 1.32 0.66 2.64 1 4 C-1.31 5.98 -3.62 7.96 -6 10 C-6.66 9.67 -7.32 9.34 -8 9 C-5.36 6.03 -2.72 3.06 0 0 Z " fill="#F8D9E7" transform="translate(919,544)"/>
<path d="M0 0 C0.99 0 1.98 0 3 0 C3 0.99 3 1.98 3 3 C1.37064759 4.37868281 -0.29749607 5.71274093 -2 7 C-2.33 7.66 -2.66 8.32 -3 9 C-3.66 8.67 -4.32 8.34 -5 8 C-4.24266726 6.6589523 -3.46867264 5.32730219 -2.6875 4 C-2.25824219 3.2575 -1.82898438 2.515 -1.38671875 1.75 C-0.70029297 0.88375 -0.70029297 0.88375 0 0 Z " fill="#F8DCE8" transform="translate(937,518)"/>
<path d="M0 0 C0.33 0 0.66 0 1 0 C1.33 2.31 1.66 4.62 2 7 C0.02 7.99 0.02 7.99 -2 9 C-2.25 3.375 -2.25 3.375 0 0 Z " fill="#E9F7EF" transform="translate(555,369)"/>
<path d="M0 0 C2.29633824 3.44450737 2.54016485 5.93812283 3 10 C2.01 10.33 1.02 10.66 0 11 C-1.35015859 6.94952424 -0.62084998 4.2079832 0 0 Z " fill="#D9F0E3" transform="translate(450,365)"/>
<path d="M0 0 C4.30840713 1.07710178 7.63576723 2.03947516 11 5 C8.03 4.67 5.06 4.34 2 4 C2 3.34 2 2.68 2 2 C1.34 2 0.68 2 0 2 C0 1.34 0 0.68 0 0 Z " fill="#EC1E6B" transform="translate(841,362)"/>
<path d="M0 0 C5.75 1.75 5.75 1.75 8 4 C5.21176345 5.0326802 4.1322726 5.04509293 1.25 4.0625 C0.5075 3.711875 -0.235 3.36125 -1 3 C-0.67 2.01 -0.34 1.02 0 0 Z " fill="#EC1B6B" transform="translate(803,345)"/>
<path d="M0 0 C0.66 0.33 1.32 0.66 2 1 C1.34 2.32 0.68 3.64 0 5 C1.32 5.33 2.64 5.66 4 6 C3.01 6.495 3.01 6.495 2 7 C-0.35981813 6.06421005 -2.69631264 5.06652192 -5 4 C-3.35 2.68 -1.7 1.36 0 0 Z " fill="#DAF2E4" transform="translate(528,217)"/>
<path d="M0 0 C1.4540625 0.0309375 1.4540625 0.0309375 2.9375 0.0625 C2.133125 0.619375 1.32875 1.17625 0.5 1.75 C-2.30478216 4.28114487 -2.75631595 5.38829134 -3.0625 9.0625 C-3.3925 9.0625 -3.7225 9.0625 -4.0625 9.0625 C-4.16015625 2.91015625 -4.16015625 2.91015625 -4.0625 1.0625 C-3.0625 0.0625 -3.0625 0.0625 0 0 Z " fill="#363636" transform="translate(447.0625,938.9375)"/>
<path d="M0 0 C0.99 0 1.98 0 3 0 C3 3.63 3 7.26 3 11 C1.04783565 7.09567131 0.49360009 4.27786748 0 0 Z " fill="#E5F5E9" transform="translate(572,681)"/>
<path d="M0 0 C2.55803184 3.83704776 4.34505724 7.75712791 3.625 12.4375 C3.41875 12.953125 3.2125 13.46875 3 14 C-0.00559652 8.99067246 -0.29341888 5.67276511 0 0 Z " fill="#B1E1C3" transform="translate(529,644)"/>
<path d="M0 0 C1.04005702 3.38018531 1.08004482 6.4780279 1 10 C-1.6855594 7.3144406 -2.06049974 4.62378672 -3 1 C-2.01 0.67 -1.02 0.34 0 0 Z " fill="#16A759" transform="translate(475,625)"/>
<path d="M0 0 C0.66 0.99 1.32 1.98 2 3 C1 6 1 6 -1 8 C-1.33 8.66 -1.66 9.32 -2 10 C-2.66 10 -3.32 10 -4 10 C-2.8905928 6.51329166 -1.73662334 3.22515763 0 0 Z " fill="#FAD7E6" transform="translate(949,496)"/>
<path d="M0 0 C1.32 0.66 2.64 1.32 4 2 C3.67 3.32 3.34 4.64 3 6 C1.35 5.67 -0.3 5.34 -2 5 C-1.34 3.35 -0.68 1.7 0 0 Z " fill="#FAE6EE" transform="translate(741,312)"/>
<path d="M0 0 C1.9375 0.75 1.9375 0.75 4 2 C4.75 4.125 4.75 4.125 5 6 C4.34 6 3.68 6 3 6 C2.34 6.66 1.68 7.32 1 8 C0.67 5.36 0.34 2.72 0 0 Z " fill="#EE216F" transform="translate(620,264)"/>
<path d="M0 0 C5.75 1.75 5.75 1.75 8 4 C5.39417629 4.93065133 4.35801776 5.14917407 1.75 4.0625 C1.1725 3.711875 0.595 3.36125 0 3 C0 2.01 0 1.02 0 0 Z " fill="#12A856" transform="translate(528,223)"/>
<path d="M0 0 C1.9451 2.91765 2.45276317 4.62537285 3 8 C2.01 7.34 1.02 6.68 0 6 C-0.99 6.33 -1.98 6.66 -3 7 C-2.67 5.68 -2.34 4.36 -2 3 C-1.34 3 -0.68 3 0 3 C0 2.01 0 1.02 0 0 Z " fill="#26B267" transform="translate(612,642)"/>
<path d="M0 0 C1.88391785 3.26545761 2.49287967 6.28111761 3 10 C1.35 8.68 -0.3 7.36 -2 6 C-1.34 4.02 -0.68 2.04 0 0 Z " fill="#1CAC60" transform="translate(413,640)"/>
<path d="M0 0 C0.33 1.32 0.66 2.64 1 4 C-1 5 -1 5 -4.125 4.0625 C-5.07375 3.711875 -6.0225 3.36125 -7 3 C-4.38058783 1.25372522 -2.96175123 0.61277612 0 0 Z " fill="#F7E7EF" transform="translate(806,625)"/>
<path d="M0 0 C0.99 0.33 1.98 0.66 3 1 C1.68 2.32 0.36 3.64 -1 5 C-2.32 4.34 -3.64 3.68 -5 3 C-2.6875 1.4375 -2.6875 1.4375 0 0 Z " fill="#FAE8F1" transform="translate(844,607)"/>
<path d="M0 0 C1.32 0 2.64 0 4 0 C4 1.65 4 3.3 4 5 C3.34 5 2.68 5 2 5 C1.67 5.66 1.34 6.32 1 7 C0.67 4.69 0.34 2.38 0 0 Z " fill="#13AB5B" transform="translate(563,579)"/>
<path d="M0 0 C1.76462683 3.08809695 2 4.23312136 2 8 C0.68 7.67 -0.64 7.34 -2 7 C-1.34 4.69 -0.68 2.38 0 0 Z " fill="#15AB5B" transform="translate(476,528)"/>
<path d="M0 0 C0.66 0 1.32 0 2 0 C2.80967438 2.91482778 3.21845993 4.46113217 2.0625 7.3125 C1.5365625 8.1478125 1.5365625 8.1478125 1 9 C1 7.68 1 6.36 1 5 C0.34 5 -0.32 5 -1 5 C-0.67 3.35 -0.34 1.7 0 0 Z " fill="#EC2571" transform="translate(963,451)"/>
<path d="M0 0 C0.99 0.33 1.98 0.66 3 1 C3 2.65 3 4.3 3 6 C2.01 6.495 2.01 6.495 1 7 C1 5.68 1 4.36 1 3 C-0.32 2.67 -1.64 2.34 -3 2 C-2.01 1.34 -1.02 0.68 0 0 Z " fill="#EF1A6A" transform="translate(970,419)"/>
<path d="M0 0 C2.56687367 3.8503105 1.83288724 5.58569763 1 10 C0.34 9.34 -0.32 8.68 -1 8 C-0.96712417 5.27130593 -0.43602229 2.7033382 0 0 Z " fill="#25AF64" transform="translate(443,411)"/>
<path d="M0 0 C2.29633824 3.44450737 2.54016485 5.93812283 3 10 C1.68 9.34 0.36 8.68 -1 8 C-0.67 5.36 -0.34 2.72 0 0 Z " fill="#3AB976" transform="translate(564,288)"/>
<path d="M0 0 C0.66 0.33 1.32 0.66 2 1 C2 1.99 2 2.98 2 4 C3.32 4.33 4.64 4.66 6 5 C5.01 5.495 5.01 5.495 4 6 C1.64018187 5.06421005 -0.69631264 4.06652192 -3 3 C-2.01 2.01 -1.02 1.02 0 0 Z " fill="#FCD5E4" transform="translate(670,282)"/>
<path d="M0 0 C0.66 0.33 1.32 0.66 2 1 C2.4140625 3.72265625 2.4140625 3.72265625 2.625 7.0625 C2.69976562 8.16722656 2.77453125 9.27195313 2.8515625 10.41015625 C2.90054687 11.26480469 2.94953125 12.11945313 3 13 C0.90216749 9.06103179 -0.07113523 5.35851932 -1 1 C-0.67 0.67 -0.34 0.34 0 0 Z " fill="#F0F8F1" transform="translate(385,200)"/>
<path d="M0 0 C2.4375 0.8125 2.4375 0.8125 5 2 C5.33 2.99 5.66 3.98 6 5 C3.69 4.34 1.38 3.68 -1 3 C-0.67 2.01 -0.34 1.02 0 0 Z " fill="#DEF3E7" transform="translate(96,28)"/>
<path d="M0 0 C1 2 2 4 3 6 C3.99 6.66 4.98 7.32 6 8 C4.68 8.33 3.36 8.66 2 9 C-1.07692308 4.56923077 -1.07692308 4.56923077 -0.6875 1.6875 C-0.460625 1.130625 -0.23375 0.57375 0 0 Z " fill="#DAF1E3" transform="translate(275,788)"/>
<path d="M0 0 C0.33 0.66 0.66 1.32 1 2 C0.00390625 4.1640625 0.00390625 4.1640625 -1.4375 6.625 C-1.91058594 7.44226563 -2.38367188 8.25953125 -2.87109375 9.1015625 C-3.24363281 9.72804688 -3.61617187 10.35453125 -4 11 C-4.65234375 9.234375 -4.65234375 9.234375 -5 7 C-4.00390625 5.078125 -4.00390625 5.078125 -2.5625 3.25 C-2.08941406 2.63640625 -1.61632812 2.0228125 -1.12890625 1.390625 C-0.75636719 0.93171875 -0.38382813 0.4728125 0 0 Z " fill="#DBF3E4" transform="translate(538,768)"/>
<path d="M0 0 C2.76223278 2.76223278 2.57856291 5.20706617 3 9 C0.9375 7.3125 0.9375 7.3125 -1 5 C-0.75 2.25 -0.75 2.25 0 0 Z " fill="#2AB06A" transform="translate(649,590)"/>
<path d="M0 0 C2.78637633 4.1795645 1.79562512 6.14668677 1 11 C-1.78637633 6.8204355 -0.79562512 4.85331323 0 0 Z " fill="#F1FAF5" transform="translate(595,570)"/>
<path d="M0 0 C0.66 0.33 1.32 0.66 2 1 C1.25 5.75 1.25 5.75 -1 8 C-1.33 5.69 -1.66 3.38 -2 1 C-1.34 0.67 -0.68 0.34 0 0 Z " fill="#13A959" transform="translate(420,432)"/>
<path d="M0 0 C1.5 1.3125 1.5 1.3125 3 3 C3 3.99 3 4.98 3 6 C2.34 6 1.68 6 1 6 C0.67 6.66 0.34 7.32 0 8 C-0.38063221 5.6739143 -0.71269945 3.33944736 -1 1 C-0.67 0.67 -0.34 0.34 0 0 Z " fill="#15AA5A" transform="translate(428,280)"/>
<path d="M0 0 C0.66 0 1.32 0 2 0 C2.6875 1.8125 2.6875 1.8125 3 4 C1.5625 5.75 1.5625 5.75 0 7 C-0.38133299 5.0085944 -0.71325582 3.00720923 -1 1 C-0.67 0.67 -0.34 0.34 0 0 Z " fill="#11AB59" transform="translate(421,255)"/>
<path d="M0 0 C2 3 2 3 2 7 C1.01 7.33 0.02 7.66 -1 8 C-2.2077558 4.37673261 -1.54311128 3.35853631 0 0 Z " fill="#1DAC61" transform="translate(390,224)"/>
<path d="M0 0 C1.65 0.33 3.3 0.66 5 1 C2.60490662 3.89932357 0.68754757 4.50168276 -3 5 C-2.01 3.35 -1.02 1.7 0 0 Z " fill="#10AA58" transform="translate(480,202)"/>
<path d="M0 0 C0.33 0.66 0.66 1.32 1 2 C0.67 2.99 0.34 3.98 0 5 C-1.98 4.34 -3.96 3.68 -6 3 C-5.67 2.34 -5.34 1.68 -5 1 C-2.4375 0.375 -2.4375 0.375 0 0 Z " fill="#DAF0E4" transform="translate(207,75)"/>
<path d="M0 0 C2.475 0.495 2.475 0.495 5 1 C3.625 3 3.625 3 2 5 C1.34 5 0.68 5 0 5 C0 3.35 0 1.7 0 0 Z " fill="#28AF67" transform="translate(557,740)"/>
<path d="M0 0 C0.66 0 1.32 0 2 0 C2 0.66 2 1.32 2 2 C2.66 2 3.32 2 4 2 C3.67 4.31 3.34 6.62 3 9 C0.87491756 5.81237635 0.4979837 3.73487777 0 0 Z " fill="#CCEEDA" transform="translate(548,598)"/>
<path d="M0 0 C-0.66 2.64 -1.32 5.28 -2 8 C-3.4606285 5.35261084 -4 4.10551666 -4 1 C-2 0 -2 0 0 0 Z " fill="#1AAE5F" transform="translate(589,472)"/>
<path d="M0 0 C2 3 2 3 1.75 5.125 C1 7 1 7 -1 8 C-1.625 5.6875 -1.625 5.6875 -2 3 C-1.34 2.01 -0.68 1.02 0 0 Z " fill="#20AF63" transform="translate(612,458)"/>
<path d="M0 0 C0.99 0 1.98 0 3 0 C3 3.3 3 6.6 3 10 C2.67 10 2.34 10 2 10 C1.34 6.7 0.68 3.4 0 0 Z " fill="#15A95A" transform="translate(139,305)"/>
<path d="M0 0 C0.99 0 1.98 0 3 0 C3.66 1.65 4.32 3.3 5 5 C4.34 5 3.68 5 3 5 C2.34 5.66 1.68 6.32 1 7 C0.67 4.69 0.34 2.38 0 0 Z " fill="#EAF8F0" transform="translate(458,278)"/>
<path d="M0 0 C0.78375 0.04125 1.5675 0.0825 2.375 0.125 C2.045 1.445 1.715 2.765 1.375 4.125 C-0.605 3.465 -2.585 2.805 -4.625 2.125 C-2.625 0.125 -2.625 0.125 0 0 Z " fill="#DFF3E8" transform="translate(349.625,139.875)"/>
<path d="M0 0 C2.4375 1.25 2.4375 1.25 3.4375 4.25 C-2.3125 2.5 -2.3125 2.5 -4.5625 0.25 C-2.5625 -0.75 -2.5625 -0.75 0 0 Z " fill="#D3EFDE" transform="translate(239.5625,91.75)"/>
<path d="M0 0 C2.4375 1.25 2.4375 1.25 3.4375 4.25 C-2.3125 2.5 -2.3125 2.5 -4.5625 0.25 C-2.5625 -0.75 -2.5625 -0.75 0 0 Z " fill="#D3EFDE" transform="translate(167.5625,59.75)"/>
<path d="M0 0 C6.75 2.75 6.75 2.75 9 5 C5.93606987 5.25532751 4.36766788 5.21861333 1.6875 3.625 C1.130625 3.08875 0.57375 2.5525 0 2 C0 1.34 0 0.68 0 0 Z " fill="#1FAD62" transform="translate(124,43)"/>
</svg>
