<?xml version="1.0" encoding="UTF-8"?>
<svg version="1.1" xmlns="http://www.w3.org/2000/svg" width="1451" height="576">
<path d="M0 0 C478.83 0 957.66 0 1451 0 C1451 190.08 1451 380.16 1451 576 C972.17 576 493.34 576 0 576 C0 385.92 0 195.84 0 0 Z " fill="#FEFEFE" transform="translate(0,0)"/>
<path d="M0 0 C6.74608948 3.5624403 11.97027425 7.45314066 16.66015625 13.49609375 C17.10230469 13.99238281 17.54445313 14.48867187 18 15 C18.66 15 19.32 15 20 15 C21.04755745 13.85423404 22.03809717 12.6560644 23 11.4375 C30.02654767 3.23502183 39.40532139 -3.11692336 50.32861328 -4.23925781 C65.72088762 -5.28151887 77.95017485 -3.00227731 90.421875 6.625 C100.02291605 15.46959539 106.14945511 26.30290161 107.18774223 39.36118889 C107.2619082 41.87407072 107.27860438 44.38032568 107.27124023 46.89428711 C107.27646698 47.83848511 107.28169373 48.78268311 107.28707886 49.75549316 C107.29725697 51.7884602 107.30308836 53.82145285 107.30496025 55.8544445 C107.30864181 59.06930985 107.32541273 62.28387169 107.34571838 65.49867249 C107.4009924 74.63260279 107.43194048 83.76657503 107.45629883 92.90063477 C107.47212769 98.50021435 107.50228211 104.09957238 107.54106331 109.69903755 C107.55273914 111.83254214 107.55864388 113.9660862 107.55874443 116.09962273 C107.55893541 119.07047785 107.57711776 122.04071498 107.59936523 125.01147461 C107.59478806 125.89716629 107.59021088 126.78285797 107.585495 127.69538879 C107.58207242 130.37939919 107.58207242 130.37939919 108 134 C108.99 134.66 109.98 135.32 111 136 C111 138.31 111 140.62 111 143 C93.84 143 76.68 143 59 143 C59 140.69 59 138.38 59 136 C59.99 135.34 60.98 134.68 62 134 C62.29685455 131.18043253 62.39896369 128.58017104 62.37231445 125.75830078 C62.37596512 124.90611969 62.37961578 124.0539386 62.38337708 123.17593384 C62.39150633 120.34885953 62.37785066 117.52235425 62.36328125 114.6953125 C62.36276283 112.73477173 62.36327982 110.77423044 62.36479187 108.81369019 C62.36470203 104.69944525 62.35425123 100.5853958 62.33618164 96.47119141 C62.31352397 91.19611945 62.31294379 85.92133407 62.31969929 80.64622688 C62.32304088 76.59534151 62.31640507 72.5445215 62.30657005 68.49364853 C62.30271881 66.54877947 62.30156952 64.60390314 62.3031559 62.65903091 C62.30352666 59.9393759 62.29090212 57.22008815 62.2746582 54.50048828 C62.27713562 53.69514648 62.27961304 52.88980469 62.28216553 52.06005859 C62.24830411 46.71413377 62.24830411 46.71413377 60 42 C55.98652453 39.33001844 51.66193484 39.28014241 47 40 C44.49839182 41.87620613 43.38054348 43.23891303 42 46 C41.87696927 49.05053097 41.81419677 52.07966737 41.79467773 55.13134766 C41.78477814 56.07773605 41.77487854 57.02412445 41.76467896 57.99919128 C41.73300978 61.13745596 41.70828512 64.27573579 41.68359375 67.4140625 C41.6630289 69.58597209 41.64203256 71.75787764 41.62062073 73.92977905 C41.56535161 79.65410085 41.51596369 85.37845905 41.46777344 91.10284424 C41.40877555 97.96693923 41.342521 104.83096751 41.27747345 111.69500732 C41.17940306 122.12996423 41.09058861 132.56496337 41 143 C26.48 143 11.96 143 -3 143 C-3.00257813 135.98363281 -3.00515625 128.96726562 -3.0078125 121.73828125 C-3.02275889 117.29485568 -3.03946086 112.85157608 -3.0625 108.40820312 C-3.09890632 101.35447852 -3.12878868 94.30114644 -3.12011719 87.24731445 C-3.11353281 81.56063346 -3.13595909 75.87474076 -3.17855453 70.18822289 C-3.18970152 68.01812737 -3.19037165 65.84795207 -3.18042374 63.67785072 C-3.1682779 60.63893152 -3.19328399 57.60242827 -3.22705078 54.5637207 C-3.20871941 53.21612671 -3.20871941 53.21612671 -3.1900177 51.84130859 C-3.23379317 47.26290978 -3.23379317 47.26290978 -5.30350876 43.32326317 C-9.17569229 39.9766169 -11.94758574 39.22948201 -16.87890625 39.50390625 C-20.33943049 40.3132738 -21.93246579 42.22175091 -24 45 C-25.23303175 48.69909524 -25.16351736 52.13462648 -25.17700195 55.98803711 C-25.18357315 56.80134995 -25.19014435 57.61466278 -25.19691467 58.45262146 C-25.21662737 61.14419649 -25.2283037 63.83571587 -25.23828125 66.52734375 C-25.24235678 67.44633516 -25.2464323 68.36532658 -25.25063133 69.31216621 C-25.27148011 74.17319641 -25.28578885 79.03419845 -25.29516602 83.89526367 C-25.30624789 88.92043838 -25.34067154 93.9451724 -25.38033772 98.970191 C-25.40644925 102.83147519 -25.41485281 106.6926533 -25.41844749 110.55401802 C-25.42332503 112.40681508 -25.43497208 114.25960705 -25.45348549 116.11231804 C-25.47776859 118.70276039 -25.47693245 121.29204764 -25.4699707 123.88256836 C-25.48918579 125.03212006 -25.48918579 125.03212006 -25.50878906 126.20489502 C-25.4801277 130.60872854 -25.4801277 130.60872854 -22.97062683 134.06983948 C-21.99516655 135.02526894 -21.99516655 135.02526894 -21 136 C-21 138.31 -21 140.62 -21 143 C-38.49 143 -55.98 143 -74 143 C-74 140.69 -74 138.38 -74 136 C-72.68 135.67 -71.36 135.34 -70 135 C-69.99635437 133.78858841 -69.99270874 132.57717682 -69.98895264 131.32905579 C-69.95188618 119.86906997 -69.89398672 108.40934996 -69.81609726 96.94956684 C-69.77671939 91.05905922 -69.74448342 85.16869892 -69.72900391 79.27807617 C-69.71377349 73.58499621 -69.67921494 67.89232155 -69.63169098 62.19942284 C-69.61694285 60.03594692 -69.60896279 57.87241312 -69.60811615 55.7088871 C-69.59431805 38.11663468 -68.24861513 23.57562705 -56.0390625 9.78515625 C-41.41607286 -4.37576866 -18.55921511 -9.19820749 0 0 Z " fill="#3B3B3D" transform="translate(807,234)"/>
<path d="M0 0 C1.04027344 0.43570313 2.08054687 0.87140625 3.15234375 1.3203125 C22.40368025 10.20554473 36.59808577 26.98635244 44.00390625 46.66796875 C45.7411074 52.08098683 46.72294059 57.3284309 47 63 C47.06445312 64.2478125 47.12890625 65.495625 47.1953125 66.78125 C47.89691618 86.80842223 41.65565798 105.36066432 28.33984375 120.54296875 C14.98191673 134.56990714 -1.58868392 144.7149266 -21.3671875 145.265625 C-23.20311169 145.27434243 -25.03915183 145.26884491 -26.875 145.25 C-27.84099121 145.24250732 -28.80698242 145.23501465 -29.80224609 145.22729492 C-51.24458711 144.90427026 -67.72967978 137.00794358 -83 122 C-83.62648438 121.38640625 -84.25296875 120.7728125 -84.8984375 120.140625 C-99.70444532 104.46367555 -103.75488098 85.17156573 -103.3125 64.26953125 C-102.41337575 43.57843453 -92.16056271 27.49264374 -77.6328125 13.3203125 C-57.50822319 -4.41560152 -24.97809792 -10.48624189 0 0 Z " fill="#0E6A46" transform="translate(673,235)"/>
<path d="M0 0 C0.80179688 0.24492187 1.60359375 0.48984375 2.4296875 0.7421875 C13.28369833 4.56306982 21.670541 11.47980002 28 21 C28.39832031 21.57363281 28.79664063 22.14726562 29.20703125 22.73828125 C36.00746477 33.41012262 35.41859581 45.68951192 35.38012505 57.85014343 C35.37094731 61.01931844 35.38131094 64.18791048 35.39674377 67.35705566 C35.43668418 76.35879751 35.43803418 85.36048889 35.43579102 94.36230469 C35.43574004 99.88641227 35.45482979 105.4101995 35.48512459 110.93421936 C35.49597033 114.05820162 35.48381458 117.18157903 35.47129822 120.30554199 C35.48019639 122.21086231 35.49026858 124.11617763 35.50170898 126.02148438 C35.49196548 126.89108795 35.48222198 127.76069153 35.47218323 128.65664673 C35.45854675 131.33029827 35.45854675 131.33029827 36 135 C37.30184103 136.04066695 38.63400846 137.0450943 40 138 C40 140.31 40 142.62 40 145 C22.84 145 5.68 145 -12 145 C-12 142.69 -12 140.38 -12 138 C-11.01 137.67 -10.02 137.34 -9 137 C-7.4725361 133.9450722 -7.76008168 130.7236686 -7.68359375 127.3671875 C-7.6524221 126.23943405 -7.6524221 126.23943405 -7.62062073 125.08889771 C-7.55517295 122.68435915 -7.49626262 120.27971033 -7.4375 117.875 C-7.39431023 116.24608229 -7.35069579 114.61717578 -7.30664062 112.98828125 C-7.19869615 108.99229894 -7.09958802 104.99623436 -7 101 C-15.25 101 -23.5 101 -32 101 C-31.92609922 105.94880374 -31.84336999 110.89576503 -31.73754883 115.84375 C-31.70425565 117.52757285 -31.67623744 119.21150848 -31.65356445 120.89550781 C-31.62009795 123.31364086 -31.56778964 125.73073624 -31.51171875 128.1484375 C-31.50532883 128.9036972 -31.4989389 129.65895691 -31.49235535 130.43710327 C-31.46019682 132.78645901 -31.46019682 132.78645901 -31 136 C-30.01 136.66 -29.02 137.32 -28 138 C-28 140.31 -28 142.62 -28 145 C-45.16 145 -62.32 145 -80 145 C-80 142.69 -80 140.38 -80 138 C-78.68 137.67 -77.36 137.34 -76 137 C-75.99413376 135.88072617 -75.98826752 134.76145233 -75.98222351 133.60826111 C-75.92473255 123.00245639 -75.85183586 112.39685154 -75.76428509 101.79125118 C-75.71976988 96.34026029 -75.68047336 90.88934091 -75.65356445 85.43823242 C-75.627342 80.16663877 -75.58680909 74.89532314 -75.53681374 69.62390327 C-75.52027204 67.62396292 -75.50867946 65.62397462 -75.50238609 63.62397575 C-75.43993565 45.58335011 -74.85289971 26.6083587 -61.75390625 12.5859375 C-45.52434129 -2.08934841 -20.93270484 -6.52740259 0 0 Z " fill="#3A3A3C" transform="translate(1013,232)"/>
<path d="M0 0 C0.89460938 -0.00773438 1.78921875 -0.01546875 2.7109375 -0.0234375 C17.40863095 0.01928835 29.55030623 5.39587945 40.265625 15.5859375 C50.55560247 27.20475312 54.77670519 38.95736076 54.7668457 54.44238281 C54.77032013 55.33591461 54.77379456 56.22944641 54.77737427 57.15005493 C54.78469338 59.07884355 54.7900591 61.00764038 54.79366493 62.93643951 C54.80086244 65.98754128 54.81654965 69.03848523 54.83500671 72.08953857 C54.88734995 80.7601925 54.93551924 89.43075361 54.95092773 98.1015625 C54.96098461 103.41362865 54.99023772 108.72528771 55.03224754 114.0371933 C55.0445822 116.06101154 55.04967432 118.08488715 55.04744911 120.10874176 C55.04510724 122.93133946 55.06717243 125.75275672 55.0949707 128.57519531 C55.08836929 129.41368011 55.08176788 130.25216492 55.07496643 131.11605835 C55.07138762 133.6991696 55.07138762 133.6991696 55.625 137.25 C56.93327089 138.28257206 58.26565158 139.28566103 59.625 140.25 C59.625 142.56 59.625 144.87 59.625 147.25 C42.465 147.25 25.305 147.25 7.625 147.25 C7.625 144.94 7.625 142.63 7.625 140.25 C8.27432495 139.77851028 8.9236499 139.30702057 9.59265137 138.82124329 C12.04240414 137.30478339 12.04240414 137.30478339 12.13293457 133.66471863 C12.15674615 132.14669823 12.15825786 130.62823359 12.14257812 129.11010742 C12.1495874 128.28050003 12.15659668 127.45089264 12.16381836 126.59614563 C12.18144731 123.84891443 12.16975535 121.10271077 12.15625 118.35546875 C12.15894428 116.44598696 12.16282617 114.53650651 12.16784668 112.62702942 C12.173749 108.62125613 12.16515805 104.6158393 12.14648438 100.61010742 C12.12374066 95.4819063 12.13678416 90.35454465 12.16077423 85.22637463 C12.17525192 81.280886 12.17061637 77.33559518 12.16026306 73.39010048 C12.15759882 71.49991061 12.16085488 69.60970266 12.17018127 67.71953392 C12.18037416 65.07190042 12.16480605 62.42561002 12.14257812 59.77807617 C12.15067505 59.00019745 12.15877197 58.22231873 12.16711426 57.42086792 C12.08651539 52.22213269 10.90150751 49.26215817 7.625 45.25 C4.42620571 42.90421752 1.51847111 42.77324844 -2.375 43.25 C-5.85416362 45.46401321 -7.95579243 47.38913142 -9.375 51.25 C-9.56089664 54.05640476 -9.6379601 56.76159215 -9.61791992 59.56689453 C-9.61981827 60.40307312 -9.62171661 61.23925171 -9.62367249 62.10076904 C-9.62737389 64.8615459 -9.61668642 67.62205907 -9.60546875 70.3828125 C-9.60427664 72.30044524 -9.60382385 74.21807857 -9.6040802 76.13571167 C-9.60251652 80.15219789 -9.59423444 84.16859483 -9.58081055 88.18505859 C-9.56379801 93.34138447 -9.55999693 98.49761244 -9.56075573 103.65396309 C-9.56048427 107.61210062 -9.55500724 111.57021663 -9.54775429 115.52834702 C-9.54456579 117.43021354 -9.54259979 119.33208251 -9.54186058 121.23395157 C-9.53970023 123.88664184 -9.53096328 126.53922677 -9.52026367 129.19189453 C-9.52071686 129.98258331 -9.52117004 130.77327209 -9.52163696 131.58792114 C-9.58200151 135.5483018 -9.58200151 135.5483018 -8.375 139.25 C-7.385 139.58 -6.395 139.91 -5.375 140.25 C-5.375 142.56 -5.375 144.87 -5.375 147.25 C-22.535 147.25 -39.695 147.25 -57.375 147.25 C-57.375 144.94 -57.375 142.63 -57.375 140.25 C-56.055 139.92 -54.735 139.59 -53.375 139.25 C-53.36691315 138.09456696 -53.35882629 136.93913391 -53.35049438 135.74868774 C-53.27283591 124.83232734 -53.18504754 113.91608854 -53.08747292 102.99988747 C-53.03763709 97.38845899 -52.99130627 91.77704818 -52.953125 86.16552734 C-52.91611119 80.74488395 -52.86970834 75.32439315 -52.81693649 69.90388107 C-52.79847779 67.84118719 -52.78333877 65.77846071 -52.77165604 63.71571732 C-52.75464692 60.81504106 -52.72557796 57.91470781 -52.69384766 55.01416016 C-52.69168747 54.17114349 -52.68952728 53.32812683 -52.68730164 52.45956421 C-52.47962779 37.49018607 -47.21268293 25.3774359 -36.83984375 14.47265625 C-26.10395857 4.7916441 -14.29179922 -0.12250114 0 0 Z " fill="#3A3A3C" transform="translate(1125.375,229.75)"/>
<path d="M0 0 C5.445 0.061875 10.89 0.12375 16.5 0.1875 C16.5 14.7075 16.5 29.2275 16.5 44.1875 C13.53 44.1875 10.56 44.1875 7.5 44.1875 C5.1875 41.3125 5.1875 41.3125 3.5 38.1875 C0.29214982 35.83507653 -2.59649252 35.7190791 -6.5 36.1875 C-10.72481746 38.4633823 -10.72481746 38.4633823 -13.5 42.1875 C-14.32154325 47.1063602 -14.01118748 51.03939153 -11.25 55.25 C-10.0240329 56.9138125 -8.76915921 58.55639539 -7.5 60.1875 C-5.49278647 62.82789033 -3.49610461 65.47620476 -1.5 68.125 C-0.9730957 68.82334961 -0.44619141 69.52169922 0.09667969 70.24121094 C9.75613367 83.11846675 16.04231192 94.62692578 14.5 111.1875 C13.2328893 119.18613632 9.37597993 124.86343322 4.5 131.1875 C3.88125 132.095 3.2625 133.0025 2.625 133.9375 C-7.38976024 144.54136379 -22.17454571 147.7965675 -36.25292969 148.32958984 C-40.08725242 148.34769936 -43.91619876 148.31422104 -47.75 148.25 C-50.33848864 148.21577415 -52.92703501 148.18558707 -55.515625 148.16015625 C-56.64258789 148.14218994 -57.76955078 148.12422363 -58.93066406 148.10571289 C-61.43263042 147.89204656 -61.43263042 147.89204656 -62.5 149.1875 C-64.81 149.1875 -67.12 149.1875 -69.5 149.1875 C-69.5 134.6675 -69.5 120.1475 -69.5 105.1875 C-62.5 105.1875 -62.5 105.1875 -59.75 107.5625 C-59.0075 108.42875 -58.265 109.295 -57.5 110.1875 C-53.43798186 112.89551209 -50.26491076 112.70878938 -45.5 112.1875 C-42.00615498 110.95818416 -40.10420794 109.85212873 -37.625 107.125 C-35.54847865 101.70297203 -35.62388587 96.93112057 -37.390625 91.3984375 C-41.00870286 83.31225145 -46.58157988 77.19007561 -52.4296875 70.67578125 C-61.65015198 60.35208458 -65.33582828 51.40012451 -64.90234375 37.70703125 C-64.25930488 28.10151297 -59.98308002 20.3539821 -53.328125 13.51171875 C-50.03356705 10.80417457 -46.70826688 8.72264199 -42.9375 6.75 C-42.34412842 6.43192383 -41.75075684 6.11384766 -41.1394043 5.78613281 C-28.35300706 -0.34078558 -13.84301471 -0.22483624 0 0 Z " fill="#3B3B3D" transform="translate(335.5,230.8125)"/>
<path d="M0 0 C35.64 0 71.28 0 108 0 C108 13.86 108 27.72 108 42 C105.69 42 103.38 42 101 42 C99.39526367 40.03808594 99.39526367 40.03808594 98 38 C95.49925826 37.35929004 95.49925826 37.35929004 92.67578125 37.390625 C91.13374023 37.34228516 91.13374023 37.34228516 89.56054688 37.29296875 C88.48869141 37.27878906 87.41683594 37.26460938 86.3125 37.25 C84.68731445 37.20552734 84.68731445 37.20552734 83.02929688 37.16015625 C80.35278941 37.08941156 77.67715521 37.03673844 75 37 C75.03799522 49.4652133 75.09726669 61.93012482 75.18390274 74.39510059 C75.2234562 80.18276436 75.25560604 85.97027418 75.27099609 91.75805664 C75.28611086 97.34087326 75.32046401 102.92326687 75.36830902 108.50589561 C75.3831764 110.63856014 75.39104406 112.77128505 75.39188385 114.90400124 C75.39423916 117.88543731 75.4212027 120.86569059 75.45410156 123.84692383 C75.4490712 124.7338089 75.44404083 125.62069397 75.43885803 126.53445435 C75.4770668 128.76412904 75.52935861 130.81995933 76 133 C77.29917918 134.04398814 78.63112749 135.04922882 80 136 C80 138.31 80 140.62 80 143 C62.84 143 45.68 143 28 143 C28 140.69 28 138.38 28 136 C29.485 135.01 29.485 135.01 31 134 C31.31583505 130.89255831 31.43733601 127.98053619 31.43237305 124.86865234 C31.4425647 123.92226395 31.45275635 122.97587555 31.46325684 122.00080872 C31.4935299 118.86245921 31.50267461 115.72441418 31.51171875 112.5859375 C31.52855482 110.41402155 31.54670359 108.2421154 31.56611633 106.07022095 C31.61373879 100.34589706 31.64346887 94.62161291 31.66955566 88.89715576 C31.69929953 83.05896145 31.74585095 77.22090428 31.79101562 71.3828125 C31.87718801 59.92194656 31.94447118 48.46105249 32 37 C28.20744328 37.08058849 24.41652908 37.19345317 20.625 37.3125 C19.54476563 37.33505859 18.46453125 37.35761719 17.3515625 37.38085938 C16.3203125 37.41630859 15.2890625 37.45175781 14.2265625 37.48828125 C12.79691162 37.52755737 12.79691162 37.52755737 11.33837891 37.56762695 C10.18088135 37.78165161 10.18088135 37.78165161 9 38 C8.34 38.99 7.68 39.98 7 41 C4.69 41 2.38 41 0 41 C0 27.47 0 13.94 0 0 Z " fill="#3B3B3D" transform="translate(364,234)"/>
<path d="M0 0 C1.10994324 0.00302124 1.10994324 0.00302124 2.24230957 0.00610352 C4.97540592 0.01647473 7.70841309 0.04439648 10.44140625 0.0703125 C16.56703125 0.1115625 22.69265625 0.1528125 29.00390625 0.1953125 C29.00390625 15.7053125 29.00390625 31.2153125 29.00390625 47.1953125 C22.00390625 47.1953125 22.00390625 47.1953125 19.75390625 45.2578125 C19.17640625 44.5771875 18.59890625 43.8965625 18.00390625 43.1953125 C11.6761174 41.08604955 3.65488566 41.00574905 -2.49609375 43.7578125 C-7.75426378 46.93046361 -10.34014453 51.05411703 -12.11669922 56.85327148 C-13.64566716 64.2752348 -13.2412346 71.93910167 -13.19140625 79.48046875 C-13.18767017 81.14912241 -13.18482601 82.81777829 -13.18283081 84.48643494 C-13.17524115 88.85116773 -13.15563343 93.21576472 -13.13342285 97.58044434 C-13.11286319 102.04514734 -13.10380757 106.50987255 -13.09375 110.97460938 C-13.07238257 119.71490566 -13.03830386 128.45509212 -12.99609375 137.1953125 C-11.67609375 137.8553125 -10.35609375 138.5153125 -8.99609375 139.1953125 C-8.99609375 141.5053125 -8.99609375 143.8153125 -8.99609375 146.1953125 C-26.48609375 146.1953125 -43.97609375 146.1953125 -61.99609375 146.1953125 C-61.99609375 143.8853125 -61.99609375 141.5753125 -61.99609375 139.1953125 C-60.01609375 138.2053125 -60.01609375 138.2053125 -57.99609375 137.1953125 C-57.99022751 136.1968782 -57.98436127 135.19844391 -57.97831726 134.16975403 C-57.92083811 124.71116931 -57.84794744 115.25280896 -57.76037884 105.79445362 C-57.71585458 100.93305465 -57.67656004 96.07173604 -57.6496582 91.21020508 C-57.62344478 86.50918134 -57.58291814 81.80846986 -57.53290749 77.10764122 C-57.51635975 75.32375695 -57.50477085 73.53981883 -57.49847984 71.75586891 C-57.41937433 51.36579514 -53.87837428 32.16645051 -39.24609375 16.8828125 C-28.23344269 6.45683235 -15.29553777 -0.19944898 0 0 Z " fill="#3A3A3C" transform="translate(534.99609375,230.8046875)"/>
<path d="M0 0 C7.37947222 5.25557126 12.62001559 11.98166674 14.66015625 20.89453125 C15.91698675 31.40739467 13.9191018 40.56115761 7.84765625 49.26953125 C1.87007282 56.55890356 -5.31185343 60.03227361 -14.6640625 61.1796875 C-23.01161315 61.51475498 -30.02125547 58.83344492 -36.48828125 53.62890625 C-42.40077698 48.09061911 -46.95598866 41.61275003 -47.62109375 33.4375 C-47.86455797 23.26272464 -46.87278251 14.97474498 -40.33984375 6.89453125 C-28.77588405 -4.82660849 -15.17042822 -8.71840222 0 0 Z " fill="#FDFDFD" transform="translate(661.33984375,277.10546875)"/>
<path d="M0 0 C4.10093961 2.96663717 6.21125051 6.31084881 8 11 C8.36420929 15.29997143 8.28165855 19.56370508 8.1875 23.875 C8.125625 27.87625 8.06375 31.8775 8 36 C-0.58 36 -9.16 36 -18 36 C-18.0825 32.225625 -18.165 28.45125 -18.25 24.5625 C-18.30462402 22.80595093 -18.30462402 22.80595093 -18.36035156 21.01391602 C-18.44114951 13.31400159 -17.55338156 6.71782377 -12.05859375 0.96875 C-8.13129566 -0.87939028 -4.21932879 -0.72605333 0 0 Z " fill="#F5F5F5" transform="translate(998,273)"/>
<path d="M0 0 C4.0414643 1.79033091 6.41967414 4.20205194 9 7.75 C10.76515096 13.48674063 9.99203972 18.08678054 7.25 23.375 C4.2891301 26.82934821 2.27834922 28.69087724 -2.33203125 29.31640625 C-8.04951809 29.58213652 -11.60250453 28.96847152 -16 25 C-18.96970154 21.21107045 -19.83466965 17.79458002 -20 13 C-18.55937015 7.86775618 -16.23650225 4.37059479 -12.08984375 1.109375 C-8.11610923 -1.00004669 -4.33074422 -0.9245409 0 0 Z " fill="#146D49" transform="translate(624,196)"/>
<path d="M0 0 C4.81706073 2.3630864 7.6369136 5.18293927 10 10 C10.83928774 14.77023745 10.48855428 18.05778817 8.25 22.375 C4.28577024 26.99993472 1.34739004 28.80759098 -4.8125 29.3125 C-9.21597578 29.23978205 -11.63091573 27.90966369 -15 25 C-18.67213845 20.84468544 -19.65535778 17.58126268 -19.3828125 12.17578125 C-18.54048449 7.38826389 -15.83710435 4.73976664 -12.3125 1.625 C-8.02866591 -0.47650352 -4.68644179 -0.82454452 0 0 Z " fill="#126C47" transform="translate(675,196)"/>
</svg>
